<?xml version="1.0" encoding="UTF-8" standalone="no"?>
<!DOCTYPE svg PUBLIC "-//W3C//DTD SVG 1.1//EN"
 "http://www.w3.org/Graphics/SVG/1.1/DTD/svg11.dtd">
<!-- Generated by graphviz version 2.38.0 (20140413.2041)
 -->
<!-- Title: reads_simu Pages: 1 -->
<svg width="1081pt" height="508pt"
 viewBox="0.00 0.00 1080.90 508.00" xmlns="http://www.w3.org/2000/svg" xmlns:xlink="http://www.w3.org/1999/xlink">
<g id="graph0" class="graph" transform="scale(1 1) rotate(0) translate(4 504)">
<title>reads_simu</title>
<polygon fill="white" stroke="none" points="-4,4 -4,-504 1076.9,-504 1076.9,4 -4,4"/>
<g id="clust1" class="cluster"><title>cluster_0</title>
<polygon fill="white" stroke="black" points="280.161,-64 280.161,-276 1014.16,-276 1014.16,-64 280.161,-64"/>
</g>
<!-- CALL_FreebayesGenotyping -->
<g id="node1" class="node"><title>CALL_FreebayesGenotyping</title>
<ellipse fill="none" stroke="black" cx="379.161" cy="-398" rx="102.875" ry="18"/>
<ellipse fill="none" stroke="black" cx="379.161" cy="-398" rx="106.882" ry="22"/>
<text text-anchor="middle" x="379.161" y="-394.3" font-family="Times,serif" font-size="14.00">call FreebayesGenotyping</text>
</g>
<!-- CALL_JointReports -->
<g id="node2" class="node"><title>CALL_JointReports</title>
<ellipse fill="none" stroke="black" cx="730.161" cy="-18" rx="70.3881" ry="18"/>
<text text-anchor="middle" x="730.161" y="-14.3" font-family="Times,serif" font-size="14.00">call JointReports</text>
</g>
<!-- CALL_FreebayesGenotyping&#45;&gt;CALL_JointReports -->
<g id="edge1" class="edge"><title>CALL_FreebayesGenotyping&#45;&gt;CALL_JointReports</title>
<path fill="none" stroke="black" d="M324.31,-379.095C224.878,-343.548 30.9978,-258.254 97.161,-152 144.02,-76.7472 190.911,-88.3164 276.161,-64 403.354,-27.7199 557.787,-19.6236 649.802,-18.3795"/>
<polygon fill="black" stroke="black" points="649.922,-21.8785 659.883,-18.2673 649.844,-14.8789 649.922,-21.8785"/>
</g>
<!-- CALL_ApplyRandomFilters -->
<g id="node5" class="node"><title>CALL_ApplyRandomFilters</title>
<ellipse fill="none" stroke="black" cx="511.161" cy="-322" rx="100.983" ry="18"/>
<text text-anchor="middle" x="511.161" y="-318.3" font-family="Times,serif" font-size="14.00">call ApplyRandomFilters</text>
</g>
<!-- CALL_FreebayesGenotyping&#45;&gt;CALL_ApplyRandomFilters -->
<g id="edge15" class="edge"><title>CALL_FreebayesGenotyping&#45;&gt;CALL_ApplyRandomFilters</title>
<path fill="none" stroke="black" d="M414.535,-377.169C432.648,-367.015 454.716,-354.644 473.187,-344.289"/>
<polygon fill="black" stroke="black" points="474.921,-347.329 481.932,-339.386 471.498,-341.223 474.921,-347.329"/>
</g>
<!-- CALL_CalculateVcfMetrics -->
<g id="node14" class="node"><title>CALL_CalculateVcfMetrics</title>
<ellipse fill="none" stroke="black" cx="729.161" cy="-322" rx="99.3824" ry="18"/>
<text text-anchor="middle" x="729.161" y="-318.3" font-family="Times,serif" font-size="14.00">call CalculateVcfMetrics</text>
</g>
<!-- CALL_FreebayesGenotyping&#45;&gt;CALL_CalculateVcfMetrics -->
<g id="edge26" class="edge"><title>CALL_FreebayesGenotyping&#45;&gt;CALL_CalculateVcfMetrics</title>
<path fill="none" stroke="black" d="M451.257,-381.757C511.537,-369.012 597.082,-350.925 657.297,-338.194"/>
<polygon fill="black" stroke="black" points="658.05,-341.612 667.109,-336.12 656.602,-334.764 658.05,-341.612"/>
</g>
<!-- CALL_CreateAlignmentFromSimulation -->
<g id="node3" class="node"><title>CALL_CreateAlignmentFromSimulation</title>
<ellipse fill="none" stroke="black" cx="205.161" cy="-478" rx="145.672" ry="18"/>
<ellipse fill="none" stroke="black" cx="205.161" cy="-478" rx="149.674" ry="22"/>
<text text-anchor="middle" x="205.161" y="-474.3" font-family="Times,serif" font-size="14.00">call CreateAlignmentFromSimulation</text>
</g>
<!-- CALL_CreateAlignmentFromSimulation&#45;&gt;CALL_FreebayesGenotyping -->
<g id="edge22" class="edge"><title>CALL_CreateAlignmentFromSimulation&#45;&gt;CALL_FreebayesGenotyping</title>
<path fill="none" stroke="black" d="M249.97,-456.913C273.542,-446.346 302.566,-433.336 327.128,-422.325"/>
<polygon fill="black" stroke="black" points="328.61,-425.497 336.303,-418.212 325.746,-419.109 328.61,-425.497"/>
</g>
<!-- CALL_GatkGenotyping -->
<g id="node4" class="node"><title>CALL_GatkGenotyping</title>
<ellipse fill="none" stroke="black" cx="602.161" cy="-398" rx="84.4853" ry="18"/>
<ellipse fill="none" stroke="black" cx="602.161" cy="-398" rx="88.485" ry="22"/>
<text text-anchor="middle" x="602.161" y="-394.3" font-family="Times,serif" font-size="14.00">call GatkGenotyping</text>
</g>
<!-- CALL_CreateAlignmentFromSimulation&#45;&gt;CALL_GatkGenotyping -->
<g id="edge2" class="edge"><title>CALL_CreateAlignmentFromSimulation&#45;&gt;CALL_GatkGenotyping</title>
<path fill="none" stroke="black" d="M291.794,-459.979C361.129,-446.357 457.5,-427.422 524.385,-414.281"/>
<polygon fill="black" stroke="black" points="525.307,-417.667 534.445,-412.304 523.958,-410.798 525.307,-417.667"/>
</g>
<!-- CALL_DefaultMaps -->
<g id="node7" class="node"><title>CALL_DefaultMaps</title>
<ellipse fill="none" stroke="black" cx="556.161" cy="-94" rx="72.2799" ry="18"/>
<ellipse fill="none" stroke="black" cx="556.161" cy="-94" rx="76.2875" ry="22"/>
<text text-anchor="middle" x="556.161" y="-90.3" font-family="Times,serif" font-size="14.00">call DefaultMaps</text>
</g>
<!-- CALL_CreateAlignmentFromSimulation&#45;&gt;CALL_DefaultMaps -->
<g id="edge9" class="edge"><title>CALL_CreateAlignmentFromSimulation&#45;&gt;CALL_DefaultMaps</title>
<path fill="none" stroke="black" d="M157.436,-456.965C108.705,-432.94 40.161,-387.654 40.161,-323 40.161,-323 40.161,-323 40.161,-249 40.161,-198.997 55.0022,-178.888 97.161,-152 167.557,-107.102 388.856,-130.051 471.161,-116 477.906,-114.849 484.907,-113.453 491.866,-111.934"/>
<polygon fill="black" stroke="black" points="493.018,-115.262 501.996,-109.635 491.469,-108.435 493.018,-115.262"/>
</g>
<!-- CALL_GusmapMaps -->
<g id="node8" class="node"><title>CALL_GusmapMaps</title>
<ellipse fill="none" stroke="black" cx="730.161" cy="-94" rx="75.2921" ry="18"/>
<ellipse fill="none" stroke="black" cx="730.161" cy="-94" rx="79.2868" ry="22"/>
<text text-anchor="middle" x="730.161" y="-90.3" font-family="Times,serif" font-size="14.00">call GusmapMaps</text>
</g>
<!-- CALL_CreateAlignmentFromSimulation&#45;&gt;CALL_GusmapMaps -->
<g id="edge36" class="edge"><title>CALL_CreateAlignmentFromSimulation&#45;&gt;CALL_GusmapMaps</title>
<path fill="none" stroke="black" d="M198.914,-455.954C186.864,-410.88 165.347,-303.326 210.161,-232 228.983,-202.042 252.637,-216.932 281.161,-196 303.205,-179.823 299.599,-164.016 324.161,-152 451.53,-89.6884 501.468,-140.324 641.161,-116 648.447,-114.731 656.029,-113.229 663.557,-111.62"/>
<polygon fill="black" stroke="black" points="664.38,-115.023 673.394,-109.454 662.875,-108.186 664.38,-115.023"/>
</g>
<!-- CALL_SimulatedMap -->
<g id="node9" class="node"><title>CALL_SimulatedMap</title>
<ellipse fill="none" stroke="black" cx="189.161" cy="-174" rx="78.7794" ry="18"/>
<ellipse fill="none" stroke="black" cx="189.161" cy="-174" rx="82.7863" ry="22"/>
<text text-anchor="middle" x="189.161" y="-170.3" font-family="Times,serif" font-size="14.00">call SimulatedMap</text>
</g>
<!-- CALL_CreateAlignmentFromSimulation&#45;&gt;CALL_SimulatedMap -->
<g id="edge20" class="edge"><title>CALL_CreateAlignmentFromSimulation&#45;&gt;CALL_SimulatedMap</title>
<path fill="none" stroke="black" d="M189.435,-455.997C182.7,-445.714 175.602,-432.81 172.161,-420 150.487,-339.304 160.094,-314.68 172.161,-232 173.423,-223.355 175.707,-214.199 178.2,-205.813"/>
<polygon fill="black" stroke="black" points="181.609,-206.644 181.291,-196.053 174.935,-204.53 181.609,-206.644"/>
</g>
<!-- CALL_SNPCallerMaps -->
<g id="node10" class="node"><title>CALL_SNPCallerMaps</title>
<ellipse fill="none" stroke="black" cx="375.161" cy="-94" rx="83.3768" ry="18"/>
<ellipse fill="none" stroke="black" cx="375.161" cy="-94" rx="87.3857" ry="22"/>
<text text-anchor="middle" x="375.161" y="-90.3" font-family="Times,serif" font-size="14.00">call SNPCallerMaps</text>
</g>
<!-- CALL_CreateAlignmentFromSimulation&#45;&gt;CALL_SNPCallerMaps -->
<g id="edge7" class="edge"><title>CALL_CreateAlignmentFromSimulation&#45;&gt;CALL_SNPCallerMaps</title>
<path fill="none" stroke="black" d="M99.485,-462.354C72.4397,-453.929 45.5544,-440.712 26.161,-420 -4.19352,-387.582 2.16099,-367.411 2.16099,-323 2.16099,-323 2.16099,-323 2.16099,-249 2.16099,-204.589 -6.48297,-182.112 26.161,-152 62.2082,-118.749 189.185,-104.801 279.56,-99.0123"/>
<polygon fill="black" stroke="black" points="279.797,-102.504 289.563,-98.3952 279.366,-95.5177 279.797,-102.504"/>
</g>
<!-- CALL_ScatterAt138_13 -->
<g id="node13" class="node"><title>CALL_ScatterAt138_13</title>
<ellipse fill="none" stroke="black" cx="917.161" cy="-94" rx="85.2787" ry="18"/>
<ellipse fill="none" stroke="black" cx="917.161" cy="-94" rx="89.2851" ry="22"/>
<text text-anchor="middle" x="917.161" y="-90.3" font-family="Times,serif" font-size="14.00">call ScatterAt138_13</text>
</g>
<!-- CALL_CreateAlignmentFromSimulation&#45;&gt;CALL_ScatterAt138_13 -->
<g id="edge17" class="edge"><title>CALL_CreateAlignmentFromSimulation&#45;&gt;CALL_ScatterAt138_13</title>
<path fill="none" stroke="black" d="M214.394,-455.635C242.658,-393.439 334.82,-213.046 477.161,-152 617.221,-91.9319 667.64,-139.844 818.161,-116 826.455,-114.686 835.104,-113.131 843.685,-111.47"/>
<polygon fill="black" stroke="black" points="844.575,-114.862 853.701,-109.48 843.211,-107.996 844.575,-114.862"/>
</g>
<!-- CALL_CreateAlignmentFromSimulation&#45;&gt;CALL_CalculateVcfMetrics -->
<g id="edge24" class="edge"><title>CALL_CreateAlignmentFromSimulation&#45;&gt;CALL_CalculateVcfMetrics</title>
<path fill="none" stroke="black" d="M341.405,-468.881C478.036,-459.539 672.009,-442.54 699.161,-420 719.558,-403.067 726.344,-372.553 728.471,-350.259"/>
<polygon fill="black" stroke="black" points="731.977,-350.289 729.18,-340.07 724.994,-349.803 731.977,-350.289"/>
</g>
<!-- CALL_GatkGenotyping&#45;&gt;CALL_JointReports -->
<g id="edge13" class="edge"><title>CALL_GatkGenotyping&#45;&gt;CALL_JointReports</title>
<path fill="none" stroke="black" d="M682.69,-388.73C816.999,-372.68 1072.16,-331.584 1072.16,-251 1072.16,-251 1072.16,-251 1072.16,-173 1072.16,-122.754 1079.85,-97.2343 1042.16,-64 1008.65,-34.4499 890.983,-24.2884 810.13,-20.804"/>
<polygon fill="black" stroke="black" points="810.101,-17.3001 799.967,-20.3926 809.817,-24.2943 810.101,-17.3001"/>
</g>
<!-- CALL_GatkGenotyping&#45;&gt;CALL_ApplyRandomFilters -->
<g id="edge31" class="edge"><title>CALL_GatkGenotyping&#45;&gt;CALL_ApplyRandomFilters</title>
<path fill="none" stroke="black" d="M577.295,-376.779C565.665,-367.322 551.753,-356.009 539.696,-346.205"/>
<polygon fill="black" stroke="black" points="541.663,-343.293 531.697,-339.699 537.247,-348.724 541.663,-343.293"/>
</g>
<!-- CALL_GatkGenotyping&#45;&gt;CALL_CalculateVcfMetrics -->
<g id="edge34" class="edge"><title>CALL_GatkGenotyping&#45;&gt;CALL_CalculateVcfMetrics</title>
<path fill="none" stroke="black" d="M635.529,-377.557C652.927,-367.42 674.254,-354.993 692.156,-344.562"/>
<polygon fill="black" stroke="black" points="694.289,-347.37 701.167,-339.311 690.765,-341.322 694.289,-347.37"/>
</g>
<!-- SCATTER_0_VARIABLE_vcf -->
<g id="node6" class="node"><title>SCATTER_0_VARIABLE_vcf</title>
<polygon fill="none" stroke="black" points="710.368,-250 630.765,-268 471.557,-268 391.954,-250 471.557,-232 630.765,-232 710.368,-250"/>
<text text-anchor="middle" x="551.161" y="-246.3" font-family="Times,serif" font-size="14.00">scatter over Pair[String, File] as vcf</text>
</g>
<!-- CALL_ApplyRandomFilters&#45;&gt;SCATTER_0_VARIABLE_vcf -->
<g id="edge3" class="edge"><title>CALL_ApplyRandomFilters&#45;&gt;SCATTER_0_VARIABLE_vcf</title>
<path fill="none" stroke="black" d="M520.844,-304.055C525.443,-296.007 531.044,-286.205 536.175,-277.226"/>
<polygon fill="black" stroke="black" points="539.367,-278.694 541.289,-268.275 533.289,-275.221 539.367,-278.694"/>
</g>
<!-- CALL_Gambis -->
<g id="node12" class="node"><title>CALL_Gambis</title>
<ellipse fill="none" stroke="black" cx="738.161" cy="-174" rx="53.8905" ry="18"/>
<text text-anchor="middle" x="738.161" y="-170.3" font-family="Times,serif" font-size="14.00">call Gambis</text>
</g>
<!-- CALL_ApplyRandomFilters&#45;&gt;CALL_Gambis -->
<g id="edge11" class="edge"><title>CALL_ApplyRandomFilters&#45;&gt;CALL_Gambis</title>
<path fill="none" stroke="black" d="M583.362,-309.399C639.515,-299.718 709.482,-285.945 719.161,-276 737.961,-256.683 741.189,-224.991 740.677,-202.258"/>
<polygon fill="black" stroke="black" points="744.17,-202.038 740.199,-192.215 737.178,-202.37 744.17,-202.038"/>
</g>
<!-- SCATTER_0_VARIABLE_vcf&#45;&gt;CALL_DefaultMaps -->
<g id="edge23" class="edge"><title>SCATTER_0_VARIABLE_vcf&#45;&gt;CALL_DefaultMaps</title>
<path fill="none" stroke="black" d="M513.77,-231.798C499.617,-223.203 485.033,-211.321 477.161,-196 468.224,-178.606 468.254,-169.409 477.161,-152 484.108,-138.421 495.965,-127.335 508.411,-118.671"/>
<polygon fill="black" stroke="black" points="510.58,-121.436 517.067,-113.059 506.772,-115.562 510.58,-121.436"/>
</g>
<!-- SCATTER_0_VARIABLE_vcf&#45;&gt;CALL_GusmapMaps -->
<g id="edge5" class="edge"><title>SCATTER_0_VARIABLE_vcf&#45;&gt;CALL_GusmapMaps</title>
<path fill="none" stroke="black" d="M586.239,-231.998C602.485,-222.916 621.228,-210.591 635.161,-196 650.694,-179.733 645.636,-169.173 660.161,-152 669.771,-140.638 681.882,-129.863 693.317,-120.802"/>
<polygon fill="black" stroke="black" points="695.687,-123.395 701.479,-114.524 691.419,-117.847 695.687,-123.395"/>
</g>
<!-- SCATTER_0_VARIABLE_vcf&#45;&gt;CALL_SNPCallerMaps -->
<g id="edge32" class="edge"><title>SCATTER_0_VARIABLE_vcf&#45;&gt;CALL_SNPCallerMaps</title>
<path fill="none" stroke="black" d="M519.865,-231.978C503.444,-222.389 483.418,-209.622 467.161,-196 441.045,-174.117 415.271,-144.991 397.677,-123.641"/>
<polygon fill="black" stroke="black" points="400.379,-121.416 391.351,-115.87 394.95,-125.835 400.379,-121.416"/>
</g>
<!-- CALL_vcf2onemap -->
<g id="node11" class="node"><title>CALL_vcf2onemap</title>
<ellipse fill="none" stroke="black" cx="556.161" cy="-174" rx="69.5877" ry="18"/>
<text text-anchor="middle" x="556.161" y="-170.3" font-family="Times,serif" font-size="14.00">call vcf2onemap</text>
</g>
<!-- SCATTER_0_VARIABLE_vcf&#45;&gt;CALL_vcf2onemap -->
<g id="edge10" class="edge"><title>SCATTER_0_VARIABLE_vcf&#45;&gt;CALL_vcf2onemap</title>
<path fill="none" stroke="black" d="M552.321,-231.837C552.914,-223.058 553.65,-212.163 554.319,-202.267"/>
<polygon fill="black" stroke="black" points="557.825,-202.283 555.008,-192.07 550.841,-201.811 557.825,-202.283"/>
</g>
<!-- SCATTER_0_VARIABLE_vcf&#45;&gt;CALL_Gambis -->
<g id="edge27" class="edge"><title>SCATTER_0_VARIABLE_vcf&#45;&gt;CALL_Gambis</title>
<path fill="none" stroke="black" d="M594.533,-231.837C624.811,-219.855 665.046,-203.933 695.228,-191.99"/>
<polygon fill="black" stroke="black" points="696.638,-195.196 704.648,-188.262 694.062,-188.687 696.638,-195.196"/>
</g>
<!-- SCATTER_0_VARIABLE_vcf&#45;&gt;CALL_ScatterAt138_13 -->
<g id="edge33" class="edge"><title>SCATTER_0_VARIABLE_vcf&#45;&gt;CALL_ScatterAt138_13</title>
<path fill="none" stroke="black" d="M598.337,-231.976C617.143,-223.41 637.9,-211.5 653.161,-196 668.5,-180.42 658.013,-165.564 675.161,-152 681.876,-146.688 773.262,-126.058 841.762,-111.142"/>
<polygon fill="black" stroke="black" points="842.661,-114.529 851.69,-108.986 841.175,-107.688 842.661,-114.529"/>
</g>
<!-- CALL_DefaultMaps&#45;&gt;CALL_JointReports -->
<g id="edge4" class="edge"><title>CALL_DefaultMaps&#45;&gt;CALL_JointReports</title>
<path fill="none" stroke="black" d="M597.397,-75.463C624.096,-64.1081 658.834,-49.3343 686.08,-37.7471"/>
<polygon fill="black" stroke="black" points="687.547,-40.9268 695.379,-33.7923 684.807,-34.4852 687.547,-40.9268"/>
</g>
<!-- CALL_GusmapMaps&#45;&gt;CALL_JointReports -->
<g id="edge19" class="edge"><title>CALL_GusmapMaps&#45;&gt;CALL_JointReports</title>
<path fill="none" stroke="black" d="M730.161,-71.9925C730.161,-64.0608 730.161,-54.9149 730.161,-46.4778"/>
<polygon fill="black" stroke="black" points="733.661,-46.3146 730.161,-36.3147 726.661,-46.3147 733.661,-46.3146"/>
</g>
<!-- CALL_SimulatedMap&#45;&gt;CALL_DefaultMaps -->
<g id="edge6" class="edge"><title>CALL_SimulatedMap&#45;&gt;CALL_DefaultMaps</title>
<path fill="none" stroke="black" d="M248.029,-158.333C257.419,-156.125 267.042,-153.941 276.161,-152 362.361,-133.654 385.01,-134.577 471.161,-116 477.402,-114.654 483.883,-113.185 490.357,-111.669"/>
<polygon fill="black" stroke="black" points="491.571,-114.977 500.49,-109.258 489.952,-108.167 491.571,-114.977"/>
</g>
<!-- CALL_SimulatedMap&#45;&gt;CALL_GusmapMaps -->
<g id="edge29" class="edge"><title>CALL_SimulatedMap&#45;&gt;CALL_GusmapMaps</title>
<path fill="none" stroke="black" d="M246.49,-157.974C256.339,-155.734 266.509,-153.633 276.161,-152 436.887,-124.81 480.366,-142.777 641.161,-116 648.456,-114.785 656.044,-113.317 663.576,-111.728"/>
<polygon fill="black" stroke="black" points="664.392,-115.132 673.415,-109.581 662.899,-108.293 664.392,-115.132"/>
</g>
<!-- CALL_SimulatedMap&#45;&gt;CALL_SNPCallerMaps -->
<g id="edge12" class="edge"><title>CALL_SimulatedMap&#45;&gt;CALL_SNPCallerMaps</title>
<path fill="none" stroke="black" d="M231.833,-155.105C258.718,-143.831 293.632,-129.19 322.269,-117.18"/>
<polygon fill="black" stroke="black" points="323.852,-120.312 331.72,-113.217 321.145,-113.857 323.852,-120.312"/>
</g>
<!-- CALL_SimulatedMap&#45;&gt;CALL_ScatterAt138_13 -->
<g id="edge25" class="edge"><title>CALL_SimulatedMap&#45;&gt;CALL_ScatterAt138_13</title>
<path fill="none" stroke="black" d="M245.979,-157.815C255.978,-155.565 266.331,-153.502 276.161,-152 514.812,-115.544 579.026,-149.132 818.161,-116 826.759,-114.809 835.726,-113.295 844.599,-111.628"/>
<polygon fill="black" stroke="black" points="845.406,-115.037 854.553,-109.689 844.068,-108.166 845.406,-115.037"/>
</g>
<!-- CALL_SNPCallerMaps&#45;&gt;CALL_JointReports -->
<g id="edge35" class="edge"><title>CALL_SNPCallerMaps&#45;&gt;CALL_JointReports</title>
<path fill="none" stroke="black" d="M426.664,-76.1873C440.977,-71.8586 456.591,-67.4528 471.161,-64 534.444,-49.0026 607.526,-36.7583 659.89,-28.8491"/>
<polygon fill="black" stroke="black" points="660.705,-32.2662 670.077,-27.3255 659.669,-25.3432 660.705,-32.2662"/>
</g>
<!-- CALL_vcf2onemap&#45;&gt;CALL_DefaultMaps -->
<g id="edge28" class="edge"><title>CALL_vcf2onemap&#45;&gt;CALL_DefaultMaps</title>
<path fill="none" stroke="black" d="M556.161,-155.689C556.161,-147.029 556.161,-136.275 556.161,-126.237"/>
<polygon fill="black" stroke="black" points="559.661,-126.153 556.161,-116.153 552.661,-126.153 559.661,-126.153"/>
</g>
<!-- CALL_vcf2onemap&#45;&gt;CALL_SNPCallerMaps -->
<g id="edge8" class="edge"><title>CALL_vcf2onemap&#45;&gt;CALL_SNPCallerMaps</title>
<path fill="none" stroke="black" d="M521.69,-158.145C495.035,-146.658 457.689,-130.564 427.371,-117.5"/>
<polygon fill="black" stroke="black" points="428.366,-114.117 417.798,-113.374 425.596,-120.546 428.366,-114.117"/>
</g>
<!-- CALL_vcf2onemap&#45;&gt;CALL_ScatterAt138_13 -->
<g id="edge30" class="edge"><title>CALL_vcf2onemap&#45;&gt;CALL_ScatterAt138_13</title>
<path fill="none" stroke="black" d="M607.883,-161.825C669.205,-148.575 771.902,-126.386 841.997,-111.24"/>
<polygon fill="black" stroke="black" points="843.058,-114.592 852.094,-109.059 841.58,-107.75 843.058,-114.592"/>
</g>
<!-- CALL_Gambis&#45;&gt;CALL_GusmapMaps -->
<g id="edge21" class="edge"><title>CALL_Gambis&#45;&gt;CALL_GusmapMaps</title>
<path fill="none" stroke="black" d="M736.386,-155.689C735.497,-147.029 734.394,-136.275 733.365,-126.237"/>
<polygon fill="black" stroke="black" points="736.833,-125.744 732.331,-116.153 729.869,-126.458 736.833,-125.744"/>
</g>
<!-- CALL_Gambis&#45;&gt;CALL_ScatterAt138_13 -->
<g id="edge14" class="edge"><title>CALL_Gambis&#45;&gt;CALL_ScatterAt138_13</title>
<path fill="none" stroke="black" d="M769.751,-159.235C796.219,-147.701 834.529,-131.007 865.46,-117.529"/>
<polygon fill="black" stroke="black" points="867.032,-120.662 874.802,-113.458 864.236,-114.244 867.032,-120.662"/>
</g>
<!-- CALL_ScatterAt138_13&#45;&gt;CALL_JointReports -->
<g id="edge16" class="edge"><title>CALL_ScatterAt138_13&#45;&gt;CALL_JointReports</title>
<path fill="none" stroke="black" d="M871.416,-74.8976C842.466,-63.4417 805.168,-48.6819 776.168,-37.2062"/>
<polygon fill="black" stroke="black" points="777.262,-33.875 766.676,-33.4498 774.687,-40.3839 777.262,-33.875"/>
</g>
<!-- CALL_CalculateVcfMetrics&#45;&gt;CALL_JointReports -->
<g id="edge18" class="edge"><title>CALL_CalculateVcfMetrics&#45;&gt;CALL_JointReports</title>
<path fill="none" stroke="black" d="M827.394,-318.95C901.26,-315.086 993.761,-304.493 1018.16,-276 1048.8,-240.216 1048.79,-99.7917 1018.16,-64 991.825,-33.2299 885.833,-23.3456 810.09,-20.2586"/>
<polygon fill="black" stroke="black" points="810.205,-16.7606 800.081,-19.8827 809.942,-23.7556 810.205,-16.7606"/>
</g>
</g>
</svg>
