<?xml version="1.0" encoding="UTF-8" standalone="no"?>
<!DOCTYPE svg PUBLIC "-//W3C//DTD SVG 1.1//EN"
 "http://www.w3.org/Graphics/SVG/1.1/DTD/svg11.dtd">
<!-- Generated by graphviz version 2.38.0 (20140413.2041)
 -->
<!-- Title: SNPCalling Pages: 1 -->
<svg width="416pt" height="132pt"
 viewBox="0.00 0.00 416.18 132.00" xmlns="http://www.w3.org/2000/svg" xmlns:xlink="http://www.w3.org/1999/xlink">
<g id="graph0" class="graph" transform="scale(1 1) rotate(0) translate(4 128)">
<title>SNPCalling</title>
<polygon fill="white" stroke="none" points="-4,4 -4,-128 412.183,-128 412.183,4 -4,4"/>
<!-- CALL_CreateAlignmentFromFamilies -->
<g id="node1" class="node"><title>CALL_CreateAlignmentFromFamilies</title>
<ellipse fill="none" stroke="black" cx="212.691" cy="-102" rx="137.272" ry="18"/>
<ellipse fill="none" stroke="black" cx="212.691" cy="-102" rx="141.276" ry="22"/>
<text text-anchor="middle" x="212.691" y="-98.3" font-family="Times,serif" font-size="14.00">call CreateAlignmentFromFamilies</text>
</g>
<!-- CALL_FreebayesGenotyping -->
<g id="node2" class="node"><title>CALL_FreebayesGenotyping</title>
<ellipse fill="none" stroke="black" cx="106.691" cy="-22" rx="102.875" ry="18"/>
<ellipse fill="none" stroke="black" cx="106.691" cy="-22" rx="106.882" ry="22"/>
<text text-anchor="middle" x="106.691" y="-18.3" font-family="Times,serif" font-size="14.00">call FreebayesGenotyping</text>
</g>
<!-- CALL_CreateAlignmentFromFamilies&#45;&gt;CALL_FreebayesGenotyping -->
<g id="edge1" class="edge"><title>CALL_CreateAlignmentFromFamilies&#45;&gt;CALL_FreebayesGenotyping</title>
<path fill="none" stroke="black" d="M184.563,-80.3022C171.763,-70.8836 156.461,-59.6232 142.822,-49.5871"/>
<polygon fill="black" stroke="black" points="144.711,-46.6317 134.582,-43.5239 140.562,-52.2697 144.711,-46.6317"/>
</g>
<!-- CALL_GatkGenotyping -->
<g id="node3" class="node"><title>CALL_GatkGenotyping</title>
<ellipse fill="none" stroke="black" cx="319.691" cy="-22" rx="84.4853" ry="18"/>
<ellipse fill="none" stroke="black" cx="319.691" cy="-22" rx="88.485" ry="22"/>
<text text-anchor="middle" x="319.691" y="-18.3" font-family="Times,serif" font-size="14.00">call GatkGenotyping</text>
</g>
<!-- CALL_CreateAlignmentFromFamilies&#45;&gt;CALL_GatkGenotyping -->
<g id="edge2" class="edge"><title>CALL_CreateAlignmentFromFamilies&#45;&gt;CALL_GatkGenotyping</title>
<path fill="none" stroke="black" d="M241.084,-80.3022C254.209,-70.7341 269.942,-59.2653 283.873,-49.1101"/>
<polygon fill="black" stroke="black" points="286.256,-51.7047 292.275,-42.9856 282.132,-46.0481 286.256,-51.7047"/>
</g>
</g>
</svg>
