<?xml version="1.0" encoding="UTF-8" standalone="no"?>
<!DOCTYPE svg PUBLIC "-//W3C//DTD SVG 1.1//EN"
 "http://www.w3.org/Graphics/SVG/1.1/DTD/svg11.dtd">
<!-- Generated by graphviz version 2.43.0 (0)
 -->
<!-- Title: CreateAlignmentFromSimulation Pages: 1 -->
<svg width="2851pt" height="708pt"
 viewBox="0.00 0.00 2850.74 708.00" xmlns="http://www.w3.org/2000/svg" xmlns:xlink="http://www.w3.org/1999/xlink">
<g id="graph0" class="graph" transform="scale(1 1) rotate(0) translate(4 704)">
<title>CreateAlignmentFromSimulation</title>
<polygon fill="white" stroke="transparent" points="-4,4 -4,-704 2846.74,-704 2846.74,4 -4,4"/>
<g id="clust1" class="cluster">
<title>cluster_5</title>
<polygon fill="white" stroke="black" stroke-dasharray="5,2" points="1287.74,-568 1287.74,-692 2043.74,-692 2043.74,-568 1287.74,-568"/>
</g>
<g id="clust2" class="cluster">
<title>cluster_0</title>
<polygon fill="white" stroke="black" stroke-dasharray="5,2" points="599.74,-568 599.74,-620 1279.74,-620 1279.74,-568 599.74,-568"/>
</g>
<g id="clust3" class="cluster">
<title>cluster_2</title>
<polygon fill="white" stroke="black" stroke-dasharray="5,2" points="1614.74,-280 1614.74,-332 2834.74,-332 2834.74,-280 1614.74,-280"/>
</g>
<g id="clust4" class="cluster">
<title>cluster_3</title>
<polygon fill="white" stroke="black" stroke-dasharray="5,2" points="17.74,-200 17.74,-340 1606.74,-340 1606.74,-200 17.74,-200"/>
</g>
<g id="clust5" class="cluster">
<title>cluster_4</title>
<polygon fill="white" stroke="black" points="1176.74,-208 1176.74,-332 1598.74,-332 1598.74,-208 1176.74,-208"/>
</g>
<g id="clust6" class="cluster">
<title>cluster_1</title>
<polygon fill="white" stroke="black" points="2438.74,-64 2438.74,-188 2758.74,-188 2758.74,-64 2438.74,-64"/>
</g>
<!-- CALL_ConvertPedigreeSimulationToVcf -->
<g id="node1" class="node">
<title>CALL_ConvertPedigreeSimulationToVcf</title>
<ellipse fill="none" stroke="black" cx="1302.74" cy="-450" rx="183.07" ry="18"/>
<text text-anchor="middle" x="1302.74" y="-446.3" font-family="Times,serif" font-size="14.00">call ConvertPedigreeSimulationToVcf</text>
</g>
<!-- CALL_SimuscopProfile -->
<g id="node2" class="node">
<title>CALL_SimuscopProfile</title>
<ellipse fill="none" stroke="black" cx="1062.74" cy="-306" rx="104.78" ry="18"/>
<text text-anchor="middle" x="1062.74" y="-302.3" font-family="Times,serif" font-size="14.00">call SimuscopProfile</text>
</g>
<!-- CALL_ConvertPedigreeSimulationToVcf&#45;&gt;CALL_SimuscopProfile -->
<g id="edge1" class="edge">
<title>CALL_ConvertPedigreeSimulationToVcf&#45;&gt;CALL_SimuscopProfile</title>
<path fill="none" stroke="black" d="M1274.27,-432.15C1230.64,-406.34 1147.28,-357.02 1099.26,-328.61"/>
<polygon fill="black" stroke="black" points="1100.83,-325.47 1090.44,-323.39 1097.26,-331.49 1100.83,-325.47"/>
</g>
<!-- CALL_SimuscopSimulation -->
<g id="node3" class="node">
<title>CALL_SimuscopSimulation</title>
<ellipse fill="none" stroke="black" cx="1309.74" cy="-234" rx="124.58" ry="18"/>
<text text-anchor="middle" x="1309.74" y="-230.3" font-family="Times,serif" font-size="14.00">call SimuscopSimulation</text>
</g>
<!-- CALL_ConvertPedigreeSimulationToVcf&#45;&gt;CALL_SimuscopSimulation -->
<g id="edge2" class="edge">
<title>CALL_ConvertPedigreeSimulationToVcf&#45;&gt;CALL_SimuscopSimulation</title>
<path fill="none" stroke="black" d="M1121.93,-446.97C784.72,-441.29 87.19,-419.92 13.74,-340 -4.3,-320.37 -4.78,-299.18 13.74,-280 53.56,-238.78 850.28,-234.66 1174.38,-234.7"/>
<polygon fill="black" stroke="black" points="1174.77,-238.2 1184.77,-234.71 1174.77,-231.2 1174.77,-238.2"/>
</g>
<!-- CALL_GenerateSampleNames -->
<g id="node4" class="node">
<title>CALL_GenerateSampleNames</title>
<ellipse fill="none" stroke="black" cx="1387.74" cy="-378" rx="139.98" ry="18"/>
<text text-anchor="middle" x="1387.74" y="-374.3" font-family="Times,serif" font-size="14.00">call GenerateSampleNames</text>
</g>
<!-- CALL_ConvertPedigreeSimulationToVcf&#45;&gt;CALL_GenerateSampleNames -->
<g id="edge6" class="edge">
<title>CALL_ConvertPedigreeSimulationToVcf&#45;&gt;CALL_GenerateSampleNames</title>
<path fill="none" stroke="black" d="M1323.32,-432.05C1334.1,-423.18 1347.47,-412.17 1359.23,-402.48"/>
<polygon fill="black" stroke="black" points="1361.57,-405.09 1367.06,-396.03 1357.12,-399.69 1361.57,-405.09"/>
</g>
<!-- CALL_RADinitioSimulation -->
<g id="node6" class="node">
<title>CALL_RADinitioSimulation</title>
<ellipse fill="none" stroke="black" cx="2702.74" cy="-306" rx="124.28" ry="18"/>
<text text-anchor="middle" x="2702.74" y="-302.3" font-family="Times,serif" font-size="14.00">call RADinitioSimulation</text>
</g>
<!-- CALL_ConvertPedigreeSimulationToVcf&#45;&gt;CALL_RADinitioSimulation -->
<g id="edge5" class="edge">
<title>CALL_ConvertPedigreeSimulationToVcf&#45;&gt;CALL_RADinitioSimulation</title>
<path fill="none" stroke="black" d="M1471.34,-442.94C1715.13,-432.26 2179.62,-404.77 2569.74,-340 2592.74,-336.18 2617.62,-330.45 2639.57,-324.83"/>
<polygon fill="black" stroke="black" points="2640.64,-328.17 2649.43,-322.27 2638.87,-321.4 2640.64,-328.17"/>
</g>
<!-- CALL_SimuscopProfile&#45;&gt;CALL_SimuscopSimulation -->
<g id="edge19" class="edge">
<title>CALL_SimuscopProfile&#45;&gt;CALL_SimuscopSimulation</title>
<path fill="none" stroke="black" d="M1114.52,-290.33C1152.81,-279.47 1205.18,-264.63 1246.04,-253.05"/>
<polygon fill="black" stroke="black" points="1247.23,-256.35 1255.9,-250.26 1245.32,-249.62 1247.23,-256.35"/>
</g>
<!-- SCATTER_4_VARIABLE_sampleName -->
<g id="node5" class="node">
<title>SCATTER_4_VARIABLE_sampleName</title>
<polygon fill="none" stroke="black" points="1590.51,-306 1489.13,-324 1286.36,-324 1184.98,-306 1286.36,-288 1489.13,-288 1590.51,-306"/>
<text text-anchor="middle" x="1387.74" y="-302.3" font-family="Times,serif" font-size="14.00">scatter over String as sampleName</text>
</g>
<!-- CALL_GenerateSampleNames&#45;&gt;SCATTER_4_VARIABLE_sampleName -->
<g id="edge3" class="edge">
<title>CALL_GenerateSampleNames&#45;&gt;SCATTER_4_VARIABLE_sampleName</title>
<path fill="none" stroke="black" d="M1387.74,-359.7C1387.74,-351.98 1387.74,-342.71 1387.74,-334.11"/>
<polygon fill="black" stroke="black" points="1391.24,-334.1 1387.74,-324.1 1384.24,-334.1 1391.24,-334.1"/>
</g>
<!-- CALL_GenerateSampleNames&#45;&gt;CALL_RADinitioSimulation -->
<g id="edge4" class="edge">
<title>CALL_GenerateSampleNames&#45;&gt;CALL_RADinitioSimulation</title>
<path fill="none" stroke="black" d="M1523.13,-373.53C1822.6,-365.75 2518.77,-347.04 2569.74,-340 2593.56,-336.71 2619.29,-330.88 2641.72,-325.02"/>
<polygon fill="black" stroke="black" points="2642.69,-328.38 2651.45,-322.43 2640.88,-321.62 2642.69,-328.38"/>
</g>
<!-- SCATTER_4_VARIABLE_sampleName&#45;&gt;CALL_SimuscopSimulation -->
<g id="edge15" class="edge">
<title>SCATTER_4_VARIABLE_sampleName&#45;&gt;CALL_SimuscopSimulation</title>
<path fill="none" stroke="black" d="M1368.46,-287.7C1358.76,-278.99 1346.84,-268.29 1336.28,-258.82"/>
<polygon fill="black" stroke="black" points="1338.31,-255.94 1328.53,-251.86 1333.64,-261.15 1338.31,-255.94"/>
</g>
<!-- CALL_RunBwaAlignmentSimu -->
<g id="node8" class="node">
<title>CALL_RunBwaAlignmentSimu</title>
<ellipse fill="none" stroke="black" cx="2604.74" cy="-90" rx="139.98" ry="18"/>
<text text-anchor="middle" x="2604.74" y="-86.3" font-family="Times,serif" font-size="14.00">call RunBwaAlignmentSimu</text>
</g>
<!-- CALL_RADinitioSimulation&#45;&gt;CALL_RunBwaAlignmentSimu -->
<g id="edge16" class="edge">
<title>CALL_RADinitioSimulation&#45;&gt;CALL_RunBwaAlignmentSimu</title>
<path fill="none" stroke="black" d="M2720.17,-287.82C2729.09,-278.09 2739.37,-265.24 2745.74,-252 2766.73,-208.38 2787.89,-183.37 2759.74,-144 2747.25,-126.52 2728.63,-114.75 2708.6,-106.83"/>
<polygon fill="black" stroke="black" points="2709.58,-103.46 2698.99,-103.35 2707.2,-110.04 2709.58,-103.46"/>
</g>
<!-- CALL_SepareChunksFastq -->
<g id="node14" class="node">
<title>CALL_SepareChunksFastq</title>
<ellipse fill="none" stroke="black" cx="2613.74" cy="-234" rx="122.68" ry="18"/>
<text text-anchor="middle" x="2613.74" y="-230.3" font-family="Times,serif" font-size="14.00">call SepareChunksFastq</text>
</g>
<!-- CALL_RADinitioSimulation&#45;&gt;CALL_SepareChunksFastq -->
<g id="edge17" class="edge">
<title>CALL_RADinitioSimulation&#45;&gt;CALL_SepareChunksFastq</title>
<path fill="none" stroke="black" d="M2681.2,-288.05C2669.72,-279.03 2655.44,-267.79 2642.97,-257.99"/>
<polygon fill="black" stroke="black" points="2645.11,-255.22 2635.09,-251.79 2640.79,-260.72 2645.11,-255.22"/>
</g>
<!-- SCATTER_1_VARIABLE_chunk -->
<g id="node7" class="node">
<title>SCATTER_1_VARIABLE_chunk</title>
<polygon fill="none" stroke="black" points="2750.44,-162 2674.59,-180 2522.9,-180 2447.05,-162 2522.9,-144 2674.59,-144 2750.44,-162"/>
<text text-anchor="middle" x="2598.74" y="-158.3" font-family="Times,serif" font-size="14.00">scatter over File as chunk</text>
</g>
<!-- SCATTER_1_VARIABLE_chunk&#45;&gt;CALL_RunBwaAlignmentSimu -->
<g id="edge7" class="edge">
<title>SCATTER_1_VARIABLE_chunk&#45;&gt;CALL_RunBwaAlignmentSimu</title>
<path fill="none" stroke="black" d="M2600.23,-143.7C2600.89,-135.98 2601.68,-126.71 2602.42,-118.11"/>
<polygon fill="black" stroke="black" points="2605.91,-118.37 2603.28,-108.1 2598.94,-117.77 2605.91,-118.37"/>
</g>
<!-- CALL_MergeBams -->
<g id="node13" class="node">
<title>CALL_MergeBams</title>
<ellipse fill="none" stroke="black" cx="2604.74" cy="-18" rx="85.59" ry="18"/>
<text text-anchor="middle" x="2604.74" y="-14.3" font-family="Times,serif" font-size="14.00">call MergeBams</text>
</g>
<!-- CALL_RunBwaAlignmentSimu&#45;&gt;CALL_MergeBams -->
<g id="edge13" class="edge">
<title>CALL_RunBwaAlignmentSimu&#45;&gt;CALL_MergeBams</title>
<path fill="none" stroke="black" d="M2604.74,-71.7C2604.74,-63.98 2604.74,-54.71 2604.74,-46.11"/>
<polygon fill="black" stroke="black" points="2608.24,-46.1 2604.74,-36.1 2601.24,-46.1 2608.24,-46.1"/>
</g>
<!-- CALL_CreatePedigreeSimulatorInputs -->
<g id="node9" class="node">
<title>CALL_CreatePedigreeSimulatorInputs</title>
<ellipse fill="none" stroke="black" cx="1472.74" cy="-594" rx="177.37" ry="18"/>
<text text-anchor="middle" x="1472.74" y="-590.3" font-family="Times,serif" font-size="14.00">call CreatePedigreeSimulatorInputs</text>
</g>
<!-- CALL_CreatePedigreeSimulatorInputs&#45;&gt;CALL_ConvertPedigreeSimulationToVcf -->
<g id="edge12" class="edge">
<title>CALL_CreatePedigreeSimulatorInputs&#45;&gt;CALL_ConvertPedigreeSimulationToVcf</title>
<path fill="none" stroke="black" d="M1472.18,-575.69C1470.63,-555.92 1465.2,-523.77 1446.74,-504 1432.23,-488.45 1412.75,-477.45 1392.83,-469.66"/>
<polygon fill="black" stroke="black" points="1393.94,-466.34 1383.35,-466.2 1391.54,-472.92 1393.94,-466.34"/>
</g>
<!-- CALL_RunPedigreeSimulator -->
<g id="node10" class="node">
<title>CALL_RunPedigreeSimulator</title>
<ellipse fill="none" stroke="black" cx="1302.74" cy="-522" rx="135.38" ry="18"/>
<text text-anchor="middle" x="1302.74" y="-518.3" font-family="Times,serif" font-size="14.00">call RunPedigreeSimulator</text>
</g>
<!-- CALL_CreatePedigreeSimulatorInputs&#45;&gt;CALL_RunPedigreeSimulator -->
<g id="edge8" class="edge">
<title>CALL_CreatePedigreeSimulatorInputs&#45;&gt;CALL_RunPedigreeSimulator</title>
<path fill="none" stroke="black" d="M1432.46,-576.41C1408.25,-566.44 1377.29,-553.69 1351.68,-543.15"/>
<polygon fill="black" stroke="black" points="1352.74,-539.8 1342.16,-539.23 1350.07,-546.27 1352.74,-539.8"/>
</g>
<!-- CALL_RunPedigreeSimulator&#45;&gt;CALL_ConvertPedigreeSimulationToVcf -->
<g id="edge10" class="edge">
<title>CALL_RunPedigreeSimulator&#45;&gt;CALL_ConvertPedigreeSimulationToVcf</title>
<path fill="none" stroke="black" d="M1302.74,-503.7C1302.74,-495.98 1302.74,-486.71 1302.74,-478.11"/>
<polygon fill="black" stroke="black" points="1306.24,-478.1 1302.74,-468.1 1299.24,-478.1 1306.24,-478.1"/>
</g>
<!-- CALL_Vcf2PedigreeSimulator -->
<g id="node11" class="node">
<title>CALL_Vcf2PedigreeSimulator</title>
<ellipse fill="none" stroke="black" cx="1134.74" cy="-594" rx="137.28" ry="18"/>
<text text-anchor="middle" x="1134.74" y="-590.3" font-family="Times,serif" font-size="14.00">call Vcf2PedigreeSimulator</text>
</g>
<!-- CALL_Vcf2PedigreeSimulator&#45;&gt;CALL_ConvertPedigreeSimulationToVcf -->
<g id="edge9" class="edge">
<title>CALL_Vcf2PedigreeSimulator&#45;&gt;CALL_ConvertPedigreeSimulationToVcf</title>
<path fill="none" stroke="black" d="M1134.87,-575.71C1135.93,-555.97 1140.6,-523.84 1158.74,-504 1172.88,-488.54 1191.92,-477.58 1211.51,-469.81"/>
<polygon fill="black" stroke="black" points="1212.99,-472.99 1221.16,-466.25 1210.57,-466.43 1212.99,-472.99"/>
</g>
<!-- CALL_Vcf2PedigreeSimulator&#45;&gt;CALL_RunPedigreeSimulator -->
<g id="edge14" class="edge">
<title>CALL_Vcf2PedigreeSimulator&#45;&gt;CALL_RunPedigreeSimulator</title>
<path fill="none" stroke="black" d="M1174.13,-576.59C1198.04,-566.63 1228.74,-553.84 1254.15,-543.25"/>
<polygon fill="black" stroke="black" points="1255.72,-546.39 1263.6,-539.31 1253.03,-539.92 1255.72,-546.39"/>
</g>
<!-- CALL_GenerateAlternativeGenome -->
<g id="node12" class="node">
<title>CALL_GenerateAlternativeGenome</title>
<ellipse fill="none" stroke="black" cx="1873.74" cy="-666" rx="162.47" ry="18"/>
<text text-anchor="middle" x="1873.74" y="-662.3" font-family="Times,serif" font-size="14.00">call GenerateAlternativeGenome</text>
</g>
<!-- CALL_GenerateAlternativeGenome&#45;&gt;CALL_CreatePedigreeSimulatorInputs -->
<g id="edge11" class="edge">
<title>CALL_GenerateAlternativeGenome&#45;&gt;CALL_CreatePedigreeSimulatorInputs</title>
<path fill="none" stroke="black" d="M1790.66,-650.5C1725.85,-639.18 1635.78,-623.46 1568.04,-611.64"/>
<polygon fill="black" stroke="black" points="1568.25,-608.12 1557.8,-609.85 1567.05,-615.01 1568.25,-608.12"/>
</g>
<!-- CALL_SepareChunksFastq&#45;&gt;SCATTER_1_VARIABLE_chunk -->
<g id="edge18" class="edge">
<title>CALL_SepareChunksFastq&#45;&gt;SCATTER_1_VARIABLE_chunk</title>
<path fill="none" stroke="black" d="M2610.04,-215.7C2608.38,-207.98 2606.4,-198.71 2604.55,-190.11"/>
<polygon fill="black" stroke="black" points="2607.93,-189.15 2602.41,-180.1 2601.08,-190.62 2607.93,-189.15"/>
</g>
<!-- CONDITIONAL_5_EXPRESSION -->
<g id="node15" class="node">
<title>CONDITIONAL_5_EXPRESSION</title>
<polygon fill="none" stroke="black" stroke-dasharray="5,2" points="1693.5,-666 1594.12,-684 1395.36,-684 1295.98,-666 1395.36,-648 1594.12,-648 1693.5,-666"/>
<text text-anchor="middle" x="1494.74" y="-662.3" font-family="Times,serif" font-size="14.00">if (!(defined(sequencing.emp_vcf)))</text>
</g>
<!-- CONDITIONAL_0_EXPRESSION -->
<g id="node16" class="node">
<title>CONDITIONAL_0_EXPRESSION</title>
<polygon fill="none" stroke="black" stroke-dasharray="5,2" points="979.99,-594 886.87,-612 700.62,-612 607.5,-594 700.62,-576 886.87,-576 979.99,-594"/>
<text text-anchor="middle" x="793.74" y="-590.3" font-family="Times,serif" font-size="14.00">if (defined(sequencing.emp_vcf))</text>
</g>
<!-- CONDITIONAL_2_EXPRESSION -->
<g id="node17" class="node">
<title>CONDITIONAL_2_EXPRESSION</title>
<polygon fill="none" stroke="black" stroke-dasharray="5,2" points="2560.85,-306 2326.3,-324 1857.19,-324 1622.63,-306 1857.19,-288 2326.3,-288 2560.85,-306"/>
<text text-anchor="middle" x="2091.74" y="-302.3" font-family="Times,serif" font-size="14.00">if (((sequencing.library_type == &quot;sdRAD&quot;) || (sequencing.library_type == &quot;ddRAD&quot;)))</text>
</g>
<!-- CONDITIONAL_3_EXPRESSION -->
<g id="node18" class="node">
<title>CONDITIONAL_3_EXPRESSION</title>
<polygon fill="none" stroke="black" stroke-dasharray="5,2" points="939.84,-306 711.29,-324 254.2,-324 25.65,-306 254.2,-288 711.29,-288 939.84,-306"/>
<text text-anchor="middle" x="482.74" y="-302.3" font-family="Times,serif" font-size="14.00">if (((sequencing.library_type == &quot;WGS&quot;) || (sequencing.library_type == &quot;exome&quot;)))</text>
</g>
</g>
</svg>
