<?xml version="1.0" encoding="UTF-8" standalone="no"?>
<!DOCTYPE svg PUBLIC "-//W3C//DTD SVG 1.1//EN"
 "http://www.w3.org/Graphics/SVG/1.1/DTD/svg11.dtd">
<!-- Generated by graphviz version 2.43.0 (0)
 -->
<!-- Title: Maps Pages: 1 -->
<svg width="714pt" height="364pt"
 viewBox="0.00 0.00 714.00 364.00" xmlns="http://www.w3.org/2000/svg" xmlns:xlink="http://www.w3.org/1999/xlink">
<g id="graph0" class="graph" transform="scale(1 1) rotate(0) translate(4 360)">
<title>Maps</title>
<polygon fill="white" stroke="transparent" points="-4,4 -4,-360 710,-360 710,4 -4,4"/>
<g id="clust1" class="cluster">
<title>cluster_0</title>
<polygon fill="white" stroke="black" points="126,-64 126,-276 698,-276 698,-64 126,-64"/>
</g>
<g id="clust2" class="cluster">
<title>cluster_1</title>
<polygon fill="white" stroke="black" stroke-dasharray="5,2" points="8,-296 8,-348 511,-348 511,-296 8,-296"/>
</g>
<!-- CALL_gusmapMapsEmp -->
<g id="node1" class="node">
<title>CALL_gusmapMapsEmp</title>
<ellipse fill="none" stroke="black" cx="251" cy="-94" rx="113.18" ry="18"/>
<ellipse fill="none" stroke="black" cx="251" cy="-94" rx="117.18" ry="22"/>
<text text-anchor="middle" x="251" y="-90.3" font-family="Times,serif" font-size="14.00">call gusmapMapsEmp</text>
</g>
<!-- CALL_JointReports -->
<g id="node2" class="node">
<title>CALL_JointReports</title>
<ellipse fill="none" stroke="black" cx="515" cy="-18" rx="87.99" ry="18"/>
<text text-anchor="middle" x="515" y="-14.3" font-family="Times,serif" font-size="14.00">call JointReports</text>
</g>
<!-- CALL_gusmapMapsEmp&#45;&gt;CALL_JointReports -->
<g id="edge1" class="edge">
<title>CALL_gusmapMapsEmp&#45;&gt;CALL_JointReports</title>
<path fill="none" stroke="black" d="M313.9,-75.37C356.82,-63.34 413.32,-47.5 455.5,-35.68"/>
<polygon fill="black" stroke="black" points="456.67,-38.99 465.35,-32.92 454.78,-32.25 456.67,-38.99"/>
</g>
<!-- SCATTER_0_VARIABLE_analysis -->
<g id="node3" class="node">
<title>SCATTER_0_VARIABLE_analysis</title>
<polygon fill="none" stroke="black" points="621.82,-250 499.91,-268 256.09,-268 134.18,-250 256.09,-232 499.91,-232 621.82,-250"/>
<text text-anchor="middle" x="378" y="-246.3" font-family="Times,serif" font-size="14.00">scatter over PopulationAnalysis as analysis</text>
</g>
<!-- SCATTER_0_VARIABLE_analysis&#45;&gt;CALL_gusmapMapsEmp -->
<g id="edge2" class="edge">
<title>SCATTER_0_VARIABLE_analysis&#45;&gt;CALL_gusmapMapsEmp</title>
<path fill="none" stroke="black" d="M245.89,-233.44C201.02,-225.23 158.71,-213.18 145,-196 132.8,-180.72 134.97,-168.79 145,-152 153.83,-137.23 167.94,-126.07 183.03,-117.72"/>
<polygon fill="black" stroke="black" points="184.69,-120.8 191.99,-113.12 181.5,-114.57 184.69,-120.8"/>
</g>
<!-- CALL_splitvcf -->
<g id="node4" class="node">
<title>CALL_splitvcf</title>
<ellipse fill="none" stroke="black" cx="376" cy="-174" rx="63.89" ry="18"/>
<text text-anchor="middle" x="376" y="-170.3" font-family="Times,serif" font-size="14.00">call splitvcf</text>
</g>
<!-- SCATTER_0_VARIABLE_analysis&#45;&gt;CALL_splitvcf -->
<g id="edge4" class="edge">
<title>SCATTER_0_VARIABLE_analysis&#45;&gt;CALL_splitvcf</title>
<path fill="none" stroke="black" d="M377.54,-231.84C377.3,-223.06 377,-212.16 376.74,-202.27"/>
<polygon fill="black" stroke="black" points="380.23,-201.97 376.46,-192.07 373.23,-202.16 380.23,-201.97"/>
</g>
<!-- CALL_SNPCallerMapsEmp -->
<g id="node5" class="node">
<title>CALL_SNPCallerMapsEmp</title>
<ellipse fill="none" stroke="black" cx="515" cy="-94" rx="124.58" ry="18"/>
<ellipse fill="none" stroke="black" cx="515" cy="-94" rx="128.58" ry="22"/>
<text text-anchor="middle" x="515" y="-90.3" font-family="Times,serif" font-size="14.00">call SNPCallerMapsEmp</text>
</g>
<!-- SCATTER_0_VARIABLE_analysis&#45;&gt;CALL_SNPCallerMapsEmp -->
<g id="edge12" class="edge">
<title>SCATTER_0_VARIABLE_analysis&#45;&gt;CALL_SNPCallerMapsEmp</title>
<path fill="none" stroke="black" d="M407.37,-231.96C421.37,-222.71 437.52,-210.26 449,-196 462.48,-179.27 457.72,-170.28 469,-152 474.98,-142.31 482.41,-132.42 489.54,-123.66"/>
<polygon fill="black" stroke="black" points="492.23,-125.89 495.95,-115.97 486.86,-121.4 492.23,-125.89"/>
</g>
<!-- CALL_splitbam -->
<g id="node6" class="node">
<title>CALL_splitbam</title>
<ellipse fill="none" stroke="black" cx="224" cy="-174" rx="70.39" ry="18"/>
<text text-anchor="middle" x="224" y="-170.3" font-family="Times,serif" font-size="14.00">call splitbam</text>
</g>
<!-- SCATTER_0_VARIABLE_analysis&#45;&gt;CALL_splitbam -->
<g id="edge5" class="edge">
<title>SCATTER_0_VARIABLE_analysis&#45;&gt;CALL_splitbam</title>
<path fill="none" stroke="black" d="M342.28,-231.84C319.14,-220.72 288.94,-206.2 264.85,-194.63"/>
<polygon fill="black" stroke="black" points="266.13,-191.36 255.61,-190.19 263.1,-197.67 266.13,-191.36"/>
</g>
<!-- CALL_ScatterAt53_18 -->
<g id="node8" class="node">
<title>CALL_ScatterAt53_18</title>
<ellipse fill="none" stroke="black" cx="584" cy="-174" rx="102.08" ry="18"/>
<ellipse fill="none" stroke="black" cx="584" cy="-174" rx="106.08" ry="22"/>
<text text-anchor="middle" x="584" y="-170.3" font-family="Times,serif" font-size="14.00">call ScatterAt53_18</text>
</g>
<!-- SCATTER_0_VARIABLE_analysis&#45;&gt;CALL_ScatterAt53_18 -->
<g id="edge11" class="edge">
<title>SCATTER_0_VARIABLE_analysis&#45;&gt;CALL_ScatterAt53_18</title>
<path fill="none" stroke="black" d="M425.52,-231.93C454.59,-221.49 492.07,-208.02 523.29,-196.81"/>
<polygon fill="black" stroke="black" points="524.53,-200.08 532.75,-193.41 522.16,-193.5 524.53,-200.08"/>
</g>
<!-- CALL_splitvcf&#45;&gt;CALL_gusmapMapsEmp -->
<g id="edge7" class="edge">
<title>CALL_splitvcf&#45;&gt;CALL_gusmapMapsEmp</title>
<path fill="none" stroke="black" d="M351,-157.4C334.2,-146.92 311.65,-132.85 292.22,-120.72"/>
<polygon fill="black" stroke="black" points="293.88,-117.63 283.55,-115.31 290.18,-123.57 293.88,-117.63"/>
</g>
<!-- CALL_splitvcf&#45;&gt;CALL_SNPCallerMapsEmp -->
<g id="edge3" class="edge">
<title>CALL_splitvcf&#45;&gt;CALL_SNPCallerMapsEmp</title>
<path fill="none" stroke="black" d="M403.46,-157.59C422.45,-146.94 448.13,-132.52 470.07,-120.21"/>
<polygon fill="black" stroke="black" points="471.89,-123.2 478.9,-115.26 468.46,-117.1 471.89,-123.2"/>
</g>
<!-- CALL_SNPCallerMapsEmp&#45;&gt;CALL_JointReports -->
<g id="edge8" class="edge">
<title>CALL_SNPCallerMapsEmp&#45;&gt;CALL_JointReports</title>
<path fill="none" stroke="black" d="M515,-71.99C515,-64.06 515,-54.91 515,-46.48"/>
<polygon fill="black" stroke="black" points="518.5,-46.31 515,-36.31 511.5,-46.31 518.5,-46.31"/>
</g>
<!-- CALL_splitbam&#45;&gt;CALL_gusmapMapsEmp -->
<g id="edge10" class="edge">
<title>CALL_splitbam&#45;&gt;CALL_gusmapMapsEmp</title>
<path fill="none" stroke="black" d="M229.99,-155.69C233.05,-146.85 236.87,-135.82 240.41,-125.6"/>
<polygon fill="black" stroke="black" points="243.71,-126.75 243.68,-116.15 237.1,-124.46 243.71,-126.75"/>
</g>
<!-- CALL_ApplyRandomFilters -->
<g id="node7" class="node">
<title>CALL_ApplyRandomFilters</title>
<ellipse fill="none" stroke="black" cx="378" cy="-322" rx="124.58" ry="18"/>
<text text-anchor="middle" x="378" y="-318.3" font-family="Times,serif" font-size="14.00">call ApplyRandomFilters</text>
</g>
<!-- CALL_ApplyRandomFilters&#45;&gt;SCATTER_0_VARIABLE_analysis -->
<g id="edge6" class="edge">
<title>CALL_ApplyRandomFilters&#45;&gt;SCATTER_0_VARIABLE_analysis</title>
<path fill="none" stroke="black" d="M378,-303.7C378,-295.98 378,-286.71 378,-278.11"/>
<polygon fill="black" stroke="black" points="381.5,-278.1 378,-268.1 374.5,-278.1 381.5,-278.1"/>
</g>
<!-- CALL_ScatterAt53_18&#45;&gt;CALL_JointReports -->
<g id="edge9" class="edge">
<title>CALL_ScatterAt53_18&#45;&gt;CALL_JointReports</title>
<path fill="none" stroke="black" d="M619.35,-153.1C632.45,-143.7 645.85,-131.18 653,-116 662.85,-95.09 666.57,-82.7 653,-64 640.73,-47.09 621.92,-36.41 602.11,-29.7"/>
<polygon fill="black" stroke="black" points="602.91,-26.29 592.32,-26.72 600.87,-32.98 602.91,-26.29"/>
</g>
<!-- CONDITIONAL_1_EXPRESSION -->
<g id="node9" class="node">
<title>CONDITIONAL_1_EXPRESSION</title>
<polygon fill="none" stroke="black" stroke-dasharray="5,2" points="235.64,-322 180.82,-340 71.18,-340 16.36,-322 71.18,-304 180.82,-304 235.64,-322"/>
<text text-anchor="middle" x="126" y="-318.3" font-family="Times,serif" font-size="14.00">if (defined(filters))</text>
</g>
</g>
</svg>
