<?xml version="1.0" encoding="UTF-8" standalone="no"?>
<!DOCTYPE svg PUBLIC "-//W3C//DTD SVG 1.1//EN"
 "http://www.w3.org/Graphics/SVG/1.1/DTD/svg11.dtd">
<!-- Generated by graphviz version 2.43.0 (0)
 -->
<!-- Title: SNPCalling Pages: 1 -->
<svg width="1469pt" height="164pt"
 viewBox="0.00 0.00 1469.00 164.00" xmlns="http://www.w3.org/2000/svg" xmlns:xlink="http://www.w3.org/1999/xlink">
<g id="graph0" class="graph" transform="scale(1 1) rotate(0) translate(4 160)">
<title>SNPCalling</title>
<polygon fill="white" stroke="transparent" points="-4,4 -4,-160 1465,-160 1465,4 -4,4"/>
<g id="clust1" class="cluster">
<title>cluster_0</title>
<polygon fill="white" stroke="black" stroke-dasharray="5,2" points="1014,-88 1014,-148 1453,-148 1453,-88 1014,-88"/>
</g>
<g id="clust2" class="cluster">
<title>cluster_3</title>
<polygon fill="white" stroke="black" stroke-dasharray="5,2" points="952,-8 952,-68 1400,-68 1400,-8 952,-8"/>
</g>
<g id="clust3" class="cluster">
<title>cluster_2</title>
<polygon fill="white" stroke="black" stroke-dasharray="5,2" points="536,-8 536,-68 944,-68 944,-8 536,-8"/>
</g>
<g id="clust4" class="cluster">
<title>cluster_1</title>
<polygon fill="white" stroke="black" stroke-dasharray="5,2" points="8,-8 8,-68 528,-68 528,-8 8,-8"/>
</g>
<!-- CALL_CreateAlignmentFromFamilies -->
<g id="node1" class="node">
<title>CALL_CreateAlignmentFromFamilies</title>
<ellipse fill="none" stroke="black" cx="827" cy="-118" rx="172.77" ry="18"/>
<ellipse fill="none" stroke="black" cx="827" cy="-118" rx="176.77" ry="22"/>
<text text-anchor="middle" x="827" y="-114.3" font-family="Times,serif" font-size="14.00">call CreateAlignmentFromFamilies</text>
</g>
<!-- CALL_FreebayesGenotyping -->
<g id="node2" class="node">
<title>CALL_FreebayesGenotyping</title>
<ellipse fill="none" stroke="black" cx="384" cy="-38" rx="131.88" ry="18"/>
<ellipse fill="none" stroke="black" cx="384" cy="-38" rx="135.88" ry="22"/>
<text text-anchor="middle" x="384" y="-34.3" font-family="Times,serif" font-size="14.00">call FreebayesGenotyping</text>
</g>
<!-- CALL_CreateAlignmentFromFamilies&#45;&gt;CALL_FreebayesGenotyping -->
<g id="edge1" class="edge">
<title>CALL_CreateAlignmentFromFamilies&#45;&gt;CALL_FreebayesGenotyping</title>
<path fill="none" stroke="black" d="M721.74,-100.27C665.39,-91.13 594.84,-79.37 532,-68 513.98,-64.74 494.76,-61.1 476.35,-57.52"/>
<polygon fill="black" stroke="black" points="476.99,-54.08 466.51,-55.6 475.65,-60.95 476.99,-54.08"/>
</g>
<!-- CALL_GatkGenotyping -->
<g id="node3" class="node">
<title>CALL_GatkGenotyping</title>
<ellipse fill="none" stroke="black" cx="827" cy="-38" rx="105.09" ry="18"/>
<ellipse fill="none" stroke="black" cx="827" cy="-38" rx="109.08" ry="22"/>
<text text-anchor="middle" x="827" y="-34.3" font-family="Times,serif" font-size="14.00">call GatkGenotyping</text>
</g>
<!-- CALL_CreateAlignmentFromFamilies&#45;&gt;CALL_GatkGenotyping -->
<g id="edge2" class="edge">
<title>CALL_CreateAlignmentFromFamilies&#45;&gt;CALL_GatkGenotyping</title>
<path fill="none" stroke="black" d="M827,-95.69C827,-87.8 827,-78.68 827,-70.1"/>
<polygon fill="black" stroke="black" points="830.5,-70.02 827,-60.02 823.5,-70.02 830.5,-70.02"/>
</g>
<!-- CALL_StacksGenotyping -->
<g id="node4" class="node">
<title>CALL_StacksGenotyping</title>
<ellipse fill="none" stroke="black" cx="1274" cy="-38" rx="114.28" ry="18"/>
<ellipse fill="none" stroke="black" cx="1274" cy="-38" rx="118.28" ry="22"/>
<text text-anchor="middle" x="1274" y="-34.3" font-family="Times,serif" font-size="14.00">call StacksGenotyping</text>
</g>
<!-- CALL_CreateAlignmentFromFamilies&#45;&gt;CALL_StacksGenotyping -->
<g id="edge3" class="edge">
<title>CALL_CreateAlignmentFromFamilies&#45;&gt;CALL_StacksGenotyping</title>
<path fill="none" stroke="black" d="M931.48,-100.22C957.15,-96.16 984.56,-91.87 1010,-88 1070.83,-78.74 1086.51,-79.3 1147,-68 1162.41,-65.12 1178.79,-61.67 1194.47,-58.18"/>
<polygon fill="black" stroke="black" points="1195.68,-61.49 1204.67,-55.88 1194.14,-54.67 1195.68,-61.49"/>
</g>
<!-- CALL_TasselGenotyping -->
<g id="node5" class="node">
<title>CALL_TasselGenotyping</title>
<ellipse fill="none" stroke="black" cx="1329" cy="-118" rx="112.38" ry="18"/>
<ellipse fill="none" stroke="black" cx="1329" cy="-118" rx="116.38" ry="22"/>
<text text-anchor="middle" x="1329" y="-114.3" font-family="Times,serif" font-size="14.00">call TasselGenotyping</text>
</g>
<!-- CONDITIONAL_0_EXPRESSION -->
<g id="node6" class="node">
<title>CONDITIONAL_0_EXPRESSION</title>
<polygon fill="none" stroke="black" stroke-dasharray="5,2" points="1194.11,-118 1151.06,-136 1064.94,-136 1021.89,-118 1064.94,-100 1151.06,-100 1194.11,-118"/>
<text text-anchor="middle" x="1108" y="-114.3" font-family="Times,serif" font-size="14.00">if (run_tassel)</text>
</g>
<!-- CONDITIONAL_3_EXPRESSION -->
<g id="node7" class="node">
<title>CONDITIONAL_3_EXPRESSION</title>
<polygon fill="none" stroke="black" stroke-dasharray="5,2" points="1137.62,-38 1093.31,-56 1004.69,-56 960.38,-38 1004.69,-20 1093.31,-20 1137.62,-38"/>
<text text-anchor="middle" x="1049" y="-34.3" font-family="Times,serif" font-size="14.00">if (run_stacks)</text>
</g>
<!-- CONDITIONAL_2_EXPRESSION -->
<g id="node8" class="node">
<title>CONDITIONAL_2_EXPRESSION</title>
<polygon fill="none" stroke="black" stroke-dasharray="5,2" points="700.1,-38 661.05,-56 582.95,-56 543.9,-38 582.95,-20 661.05,-20 700.1,-38"/>
<text text-anchor="middle" x="622" y="-34.3" font-family="Times,serif" font-size="14.00">if (run_gatk)</text>
</g>
<!-- CONDITIONAL_1_EXPRESSION -->
<g id="node9" class="node">
<title>CONDITIONAL_1_EXPRESSION</title>
<polygon fill="none" stroke="black" stroke-dasharray="5,2" points="230.14,-38 176.57,-56 69.43,-56 15.86,-38 69.43,-20 176.57,-20 230.14,-38"/>
<text text-anchor="middle" x="123" y="-34.3" font-family="Times,serif" font-size="14.00">if (run_freebayes)</text>
</g>
</g>
</svg>
