<?xml version="1.0" encoding="UTF-8" standalone="no"?>
<!DOCTYPE svg PUBLIC "-//W3C//DTD SVG 1.1//EN"
 "http://www.w3.org/Graphics/SVG/1.1/DTD/svg11.dtd">
<!-- Generated by graphviz version 2.43.0 (0)
 -->
<!-- Title: GatkGenotyping Pages: 1 -->
<svg width="1339pt" height="660pt"
 viewBox="0.00 0.00 1339.00 660.00" xmlns="http://www.w3.org/2000/svg" xmlns:xlink="http://www.w3.org/1999/xlink">
<g id="graph0" class="graph" transform="scale(1 1) rotate(0) translate(4 656)">
<title>GatkGenotyping</title>
<polygon fill="white" stroke="transparent" points="-4,4 -4,-656 1335,-656 1335,4 -4,4"/>
<g id="clust1" class="cluster">
<title>cluster_1</title>
<polygon fill="white" stroke="black" points="857,-320 857,-516 1223,-516 1223,-320 857,-320"/>
</g>
<g id="clust2" class="cluster">
<title>cluster_2</title>
<polygon fill="white" stroke="black" stroke-dasharray="5,2" points="643,-12 643,-64 1009,-64 1009,-12 643,-12"/>
</g>
<g id="clust3" class="cluster">
<title>cluster_3</title>
<polygon fill="white" stroke="black" stroke-dasharray="5,2" points="8,-160 8,-236 1155,-236 1155,-160 8,-160"/>
</g>
<g id="clust4" class="cluster">
<title>cluster_4</title>
<polygon fill="white" stroke="black" stroke-dasharray="5,2" points="643,-168 643,-228 1147,-228 1147,-168 643,-168"/>
</g>
<g id="clust5" class="cluster">
<title>cluster_5</title>
<polygon fill="white" stroke="black" stroke-dasharray="5,2" points="200,-168 200,-228 635,-228 635,-168 200,-168"/>
</g>
<g id="clust6" class="cluster">
<title>cluster_0</title>
<polygon fill="white" stroke="black" stroke-dasharray="5,2" points="1017,-8 1017,-68 1323,-68 1323,-8 1017,-8"/>
</g>
<g id="clust7" class="cluster">
<title>cluster_6</title>
<polygon fill="white" stroke="black" points="417,-464 417,-588 849,-588 849,-464 417,-464"/>
</g>
<!-- CALL_HardFilteringEmp -->
<g id="node1" class="node">
<title>CALL_HardFilteringEmp</title>
<ellipse fill="none" stroke="black" cx="1020" cy="-198" rx="115.08" ry="18"/>
<ellipse fill="none" stroke="black" cx="1020" cy="-198" rx="119.08" ry="22"/>
<text text-anchor="middle" x="1020" y="-194.3" font-family="Times,serif" font-size="14.00">call HardFilteringEmp</text>
</g>
<!-- CALL_Normalization -->
<g id="node2" class="node">
<title>CALL_Normalization</title>
<ellipse fill="none" stroke="black" cx="1020" cy="-118" rx="95.58" ry="18"/>
<ellipse fill="none" stroke="black" cx="1020" cy="-118" rx="99.58" ry="22"/>
<text text-anchor="middle" x="1020" y="-114.3" font-family="Times,serif" font-size="14.00">call Normalization</text>
</g>
<!-- CALL_HardFilteringEmp&#45;&gt;CALL_Normalization -->
<g id="edge1" class="edge">
<title>CALL_HardFilteringEmp&#45;&gt;CALL_Normalization</title>
<path fill="none" stroke="black" d="M1020,-175.69C1020,-167.8 1020,-158.68 1020,-150.1"/>
<polygon fill="black" stroke="black" points="1023.5,-150.02 1020,-140.02 1016.5,-150.02 1023.5,-150.02"/>
</g>
<!-- CALL_ReplaceAD -->
<g id="node10" class="node">
<title>CALL_ReplaceAD</title>
<ellipse fill="none" stroke="black" cx="921" cy="-38" rx="79.89" ry="18"/>
<text text-anchor="middle" x="921" y="-34.3" font-family="Times,serif" font-size="14.00">call ReplaceAD</text>
</g>
<!-- CALL_Normalization&#45;&gt;CALL_ReplaceAD -->
<g id="edge6" class="edge">
<title>CALL_Normalization&#45;&gt;CALL_ReplaceAD</title>
<path fill="none" stroke="black" d="M994.25,-96.71C980.65,-85.99 963.91,-72.81 949.87,-61.75"/>
<polygon fill="black" stroke="black" points="951.98,-58.95 941.96,-55.51 947.65,-64.45 951.98,-58.95"/>
</g>
<!-- CALL_MCHap -->
<g id="node11" class="node">
<title>CALL_MCHap</title>
<ellipse fill="none" stroke="black" cx="1246" cy="-38" rx="64.99" ry="18"/>
<ellipse fill="none" stroke="black" cx="1246" cy="-38" rx="68.99" ry="22"/>
<text text-anchor="middle" x="1246" y="-34.3" font-family="Times,serif" font-size="14.00">call MCHap</text>
</g>
<!-- CALL_Normalization&#45;&gt;CALL_MCHap -->
<g id="edge10" class="edge">
<title>CALL_Normalization&#45;&gt;CALL_MCHap</title>
<path fill="none" stroke="black" d="M1074.29,-99.55C1102.35,-90.4 1137.1,-78.85 1168,-68 1176.22,-65.11 1184.9,-61.98 1193.36,-58.87"/>
<polygon fill="black" stroke="black" points="1194.61,-62.13 1202.78,-55.39 1192.19,-55.57 1194.61,-62.13"/>
</g>
<!-- CALL_CreateChunksBam -->
<g id="node3" class="node">
<title>CALL_CreateChunksBam</title>
<ellipse fill="none" stroke="black" cx="793" cy="-634" rx="116.18" ry="18"/>
<text text-anchor="middle" x="793" y="-630.3" font-family="Times,serif" font-size="14.00">call CreateChunksBam</text>
</g>
<!-- SCATTER_1_VARIABLE_interval -->
<g id="node4" class="node">
<title>SCATTER_1_VARIABLE_interval</title>
<polygon fill="none" stroke="black" points="1214.73,-490 1127.36,-508 952.64,-508 865.27,-490 952.64,-472 1127.36,-472 1214.73,-490"/>
<text text-anchor="middle" x="1040" y="-486.3" font-family="Times,serif" font-size="14.00">scatter over String as interval</text>
</g>
<!-- CALL_CreateChunksBam&#45;&gt;SCATTER_1_VARIABLE_interval -->
<g id="edge2" class="edge">
<title>CALL_CreateChunksBam&#45;&gt;SCATTER_1_VARIABLE_interval</title>
<path fill="none" stroke="black" d="M821.82,-616.43C866.26,-590.88 951.6,-541.82 1001.36,-513.22"/>
<polygon fill="black" stroke="black" points="1003.29,-516.14 1010.21,-508.12 999.8,-510.07 1003.29,-516.14"/>
</g>
<!-- SCATTER_6_VARIABLE_chunk -->
<g id="node5" class="node">
<title>SCATTER_6_VARIABLE_chunk</title>
<polygon fill="none" stroke="black" points="840.77,-562 736.89,-580 529.11,-580 425.23,-562 529.11,-544 736.89,-544 840.77,-562"/>
<text text-anchor="middle" x="633" y="-558.3" font-family="Times,serif" font-size="14.00">scatter over Pair[File, File] as chunk</text>
</g>
<!-- CALL_CreateChunksBam&#45;&gt;SCATTER_6_VARIABLE_chunk -->
<g id="edge14" class="edge">
<title>CALL_CreateChunksBam&#45;&gt;SCATTER_6_VARIABLE_chunk</title>
<path fill="none" stroke="black" d="M755.89,-616.76C733.64,-607.03 705.11,-594.55 681.14,-584.06"/>
<polygon fill="black" stroke="black" points="682.42,-580.8 671.86,-580 679.62,-587.22 682.42,-580.8"/>
</g>
<!-- CALL_ImportGVCFs -->
<g id="node7" class="node">
<title>CALL_ImportGVCFs</title>
<ellipse fill="none" stroke="black" cx="958" cy="-418" rx="92.88" ry="18"/>
<text text-anchor="middle" x="958" y="-414.3" font-family="Times,serif" font-size="14.00">call ImportGVCFs</text>
</g>
<!-- SCATTER_1_VARIABLE_interval&#45;&gt;CALL_ImportGVCFs -->
<g id="edge7" class="edge">
<title>SCATTER_1_VARIABLE_interval&#45;&gt;CALL_ImportGVCFs</title>
<path fill="none" stroke="black" d="M1019.73,-471.7C1009.35,-462.84 996.56,-451.92 985.32,-442.33"/>
<polygon fill="black" stroke="black" points="987.35,-439.45 977.47,-435.62 982.81,-444.78 987.35,-439.45"/>
</g>
<!-- CALL_GenotypeGVCFs -->
<g id="node8" class="node">
<title>CALL_GenotypeGVCFs</title>
<ellipse fill="none" stroke="black" cx="1020" cy="-346" rx="105.88" ry="18"/>
<text text-anchor="middle" x="1020" y="-342.3" font-family="Times,serif" font-size="14.00">call GenotypeGVCFs</text>
</g>
<!-- SCATTER_1_VARIABLE_interval&#45;&gt;CALL_GenotypeGVCFs -->
<g id="edge9" class="edge">
<title>SCATTER_1_VARIABLE_interval&#45;&gt;CALL_GenotypeGVCFs</title>
<path fill="none" stroke="black" d="M1049.25,-471.99C1057.85,-453.87 1068.2,-424.48 1060,-400 1056.59,-389.83 1050.38,-380.06 1043.86,-371.73"/>
<polygon fill="black" stroke="black" points="1046.42,-369.35 1037.32,-363.93 1041.06,-373.84 1046.42,-369.35"/>
</g>
<!-- CALL_HaplotypeCaller -->
<g id="node6" class="node">
<title>CALL_HaplotypeCaller</title>
<ellipse fill="none" stroke="black" cx="684" cy="-490" rx="105.08" ry="18"/>
<text text-anchor="middle" x="684" y="-486.3" font-family="Times,serif" font-size="14.00">call HaplotypeCaller</text>
</g>
<!-- SCATTER_6_VARIABLE_chunk&#45;&gt;CALL_HaplotypeCaller -->
<g id="edge3" class="edge">
<title>SCATTER_6_VARIABLE_chunk&#45;&gt;CALL_HaplotypeCaller</title>
<path fill="none" stroke="black" d="M645.61,-543.7C651.6,-535.47 658.88,-525.48 665.48,-516.42"/>
<polygon fill="black" stroke="black" points="668.48,-518.25 671.54,-508.1 662.82,-514.13 668.48,-518.25"/>
</g>
<!-- CALL_HaplotypeCaller&#45;&gt;CALL_ImportGVCFs -->
<g id="edge13" class="edge">
<title>CALL_HaplotypeCaller&#45;&gt;CALL_ImportGVCFs</title>
<path fill="none" stroke="black" d="M740.11,-474.67C784.98,-463.2 847.9,-447.13 894.59,-435.2"/>
<polygon fill="black" stroke="black" points="895.47,-438.59 904.3,-432.72 893.74,-431.8 895.47,-438.59"/>
</g>
<!-- CALL_ImportGVCFs&#45;&gt;CALL_GenotypeGVCFs -->
<g id="edge4" class="edge">
<title>CALL_ImportGVCFs&#45;&gt;CALL_GenotypeGVCFs</title>
<path fill="none" stroke="black" d="M973.01,-400.05C980.51,-391.58 989.74,-381.17 998.02,-371.82"/>
<polygon fill="black" stroke="black" points="1000.69,-374.08 1004.7,-364.28 995.45,-369.44 1000.69,-374.08"/>
</g>
<!-- CALL_MergeVCFs -->
<g id="node9" class="node">
<title>CALL_MergeVCFs</title>
<ellipse fill="none" stroke="black" cx="1020" cy="-274" rx="84.49" ry="18"/>
<text text-anchor="middle" x="1020" y="-270.3" font-family="Times,serif" font-size="14.00">call MergeVCFs</text>
</g>
<!-- CALL_GenotypeGVCFs&#45;&gt;CALL_MergeVCFs -->
<g id="edge15" class="edge">
<title>CALL_GenotypeGVCFs&#45;&gt;CALL_MergeVCFs</title>
<path fill="none" stroke="black" d="M1020,-327.7C1020,-319.98 1020,-310.71 1020,-302.11"/>
<polygon fill="black" stroke="black" points="1023.5,-302.1 1020,-292.1 1016.5,-302.1 1023.5,-302.1"/>
</g>
<!-- CALL_MergeVCFs&#45;&gt;CALL_HardFilteringEmp -->
<g id="edge5" class="edge">
<title>CALL_MergeVCFs&#45;&gt;CALL_HardFilteringEmp</title>
<path fill="none" stroke="black" d="M1020,-255.84C1020,-248.16 1020,-238.88 1020,-230.05"/>
<polygon fill="black" stroke="black" points="1023.5,-230.03 1020,-220.03 1016.5,-230.03 1023.5,-230.03"/>
</g>
<!-- CALL_MergeVCFs&#45;&gt;CALL_Normalization -->
<g id="edge8" class="edge">
<title>CALL_MergeVCFs&#45;&gt;CALL_Normalization</title>
<path fill="none" stroke="black" d="M1084.39,-262.34C1113.13,-256.14 1142.44,-247.31 1151,-236 1171.38,-209.06 1171,-187.22 1151,-160 1141.97,-147.71 1129.27,-139.01 1115.3,-132.86"/>
<polygon fill="black" stroke="black" points="1116.55,-129.59 1105.96,-129.18 1113.98,-136.1 1116.55,-129.59"/>
</g>
<!-- CALL_HardFiltering -->
<g id="node12" class="node">
<title>CALL_HardFiltering</title>
<ellipse fill="none" stroke="black" cx="529" cy="-198" rx="93.68" ry="18"/>
<ellipse fill="none" stroke="black" cx="529" cy="-198" rx="97.68" ry="22"/>
<text text-anchor="middle" x="529" y="-194.3" font-family="Times,serif" font-size="14.00">call HardFiltering</text>
</g>
<!-- CALL_MergeVCFs&#45;&gt;CALL_HardFiltering -->
<g id="edge11" class="edge">
<title>CALL_MergeVCFs&#45;&gt;CALL_HardFiltering</title>
<path fill="none" stroke="black" d="M937.05,-270.38C859.3,-266.65 740.22,-257.64 639,-236 621.29,-232.21 602.46,-226.53 585.48,-220.74"/>
<polygon fill="black" stroke="black" points="586.31,-217.32 575.72,-217.33 584.01,-223.93 586.31,-217.32"/>
</g>
<!-- CALL_HardFiltering&#45;&gt;CALL_Normalization -->
<g id="edge12" class="edge">
<title>CALL_HardFiltering&#45;&gt;CALL_Normalization</title>
<path fill="none" stroke="black" d="M576.01,-178.68C595.27,-171.84 617.94,-164.62 639,-160 730.42,-139.96 836.42,-129.56 913.37,-124.26"/>
<polygon fill="black" stroke="black" points="913.82,-127.74 923.56,-123.58 913.35,-120.76 913.82,-127.74"/>
</g>
<!-- CONDITIONAL_2_EXPRESSION -->
<g id="node13" class="node">
<title>CONDITIONAL_2_EXPRESSION</title>
<polygon fill="none" stroke="black" stroke-dasharray="5,2" points="823.11,-38 780.06,-56 693.94,-56 650.89,-38 693.94,-20 780.06,-20 823.11,-38"/>
<text text-anchor="middle" x="737" y="-34.3" font-family="Times,serif" font-size="14.00">if (replaceAD)</text>
</g>
<!-- CONDITIONAL_4_EXPRESSION -->
<g id="node14" class="node">
<title>CONDITIONAL_4_EXPRESSION</title>
<polygon fill="none" stroke="black" stroke-dasharray="5,2" points="882.65,-198 824.83,-216 709.17,-216 651.35,-198 709.17,-180 824.83,-180 882.65,-198"/>
<text text-anchor="middle" x="767" y="-194.3" font-family="Times,serif" font-size="14.00">if (!(defined(seed)))</text>
</g>
<!-- CONDITIONAL_5_EXPRESSION -->
<g id="node15" class="node">
<title>CONDITIONAL_5_EXPRESSION</title>
<polygon fill="none" stroke="black" stroke-dasharray="5,2" points="413.63,-198 362.32,-216 259.68,-216 208.37,-198 259.68,-180 362.32,-180 413.63,-198"/>
<text text-anchor="middle" x="311" y="-194.3" font-family="Times,serif" font-size="14.00">if (defined(seed))</text>
</g>
<!-- CONDITIONAL_3_EXPRESSION -->
<g id="node16" class="node">
<title>CONDITIONAL_3_EXPRESSION</title>
<polygon fill="none" stroke="black" stroke-dasharray="5,2" points="190.11,-198 146.56,-216 59.44,-216 15.89,-198 59.44,-180 146.56,-180 190.11,-198"/>
<text text-anchor="middle" x="103" y="-194.3" font-family="Times,serif" font-size="14.00">if (hardfilters)</text>
</g>
<!-- CONDITIONAL_0_EXPRESSION -->
<g id="node17" class="node">
<title>CONDITIONAL_0_EXPRESSION</title>
<polygon fill="none" stroke="black" stroke-dasharray="5,2" points="1158.59,-38 1125.29,-56 1058.71,-56 1025.41,-38 1058.71,-20 1125.29,-20 1158.59,-38"/>
<text text-anchor="middle" x="1092" y="-34.3" font-family="Times,serif" font-size="14.00">if (mchap)</text>
</g>
</g>
</svg>
