<?xml version="1.0" encoding="UTF-8" standalone="no"?>
<!DOCTYPE svg PUBLIC "-//W3C//DTD SVG 1.1//EN"
 "http://www.w3.org/Graphics/SVG/1.1/DTD/svg11.dtd">
<!-- Generated by graphviz version 2.43.0 (0)
 -->
<!-- Title: onemapMaps Pages: 1 -->
<svg width="730pt" height="476pt"
 viewBox="0.00 0.00 730.00 476.00" xmlns="http://www.w3.org/2000/svg" xmlns:xlink="http://www.w3.org/1999/xlink">
<g id="graph0" class="graph" transform="scale(1 1) rotate(0) translate(4 472)">
<title>onemapMaps</title>
<polygon fill="white" stroke="transparent" points="-4,4 -4,-472 726,-472 726,4 -4,4"/>
<g id="clust1" class="cluster">
<title>cluster_0</title>
<polygon fill="white" stroke="black" points="8,-64 8,-260 450,-260 450,-64 8,-64"/>
</g>
<g id="clust2" class="cluster">
<title>cluster_1</title>
<polygon fill="white" stroke="black" stroke-dasharray="5,2" points="159,-352 159,-404 714,-404 714,-352 159,-352"/>
</g>
<!-- SCATTER_0_VARIABLE_item -->
<g id="node1" class="node">
<title>SCATTER_0_VARIABLE_item</title>
<polygon fill="none" stroke="black" points="442.28,-234 335.64,-252 122.36,-252 15.72,-234 122.36,-216 335.64,-216 442.28,-234"/>
<text text-anchor="middle" x="229" y="-230.3" font-family="Times,serif" font-size="14.00">scatter over Pair[String, File] as item</text>
</g>
<!-- CALL_FiltersReport -->
<g id="node2" class="node">
<title>CALL_FiltersReport</title>
<ellipse fill="none" stroke="black" cx="148" cy="-162" rx="92.08" ry="18"/>
<text text-anchor="middle" x="148" y="-158.3" font-family="Times,serif" font-size="14.00">call FiltersReport</text>
</g>
<!-- SCATTER_0_VARIABLE_item&#45;&gt;CALL_FiltersReport -->
<g id="edge1" class="edge">
<title>SCATTER_0_VARIABLE_item&#45;&gt;CALL_FiltersReport</title>
<path fill="none" stroke="black" d="M208.98,-215.7C198.72,-206.84 186.09,-195.92 174.99,-186.33"/>
<polygon fill="black" stroke="black" points="177.09,-183.51 167.23,-179.62 172.51,-188.81 177.09,-183.51"/>
</g>
<!-- CALL_ErrorsReport -->
<g id="node4" class="node">
<title>CALL_ErrorsReport</title>
<ellipse fill="none" stroke="black" cx="350" cy="-162" rx="91.78" ry="18"/>
<text text-anchor="middle" x="350" y="-158.3" font-family="Times,serif" font-size="14.00">call ErrorsReport</text>
</g>
<!-- SCATTER_0_VARIABLE_item&#45;&gt;CALL_ErrorsReport -->
<g id="edge12" class="edge">
<title>SCATTER_0_VARIABLE_item&#45;&gt;CALL_ErrorsReport</title>
<path fill="none" stroke="black" d="M258.6,-215.88C275.04,-206.36 295.65,-194.44 313.13,-184.33"/>
<polygon fill="black" stroke="black" points="315.05,-187.26 321.95,-179.23 311.54,-181.2 315.05,-187.26"/>
</g>
<!-- CALL_MapsReport -->
<g id="node8" class="node">
<title>CALL_MapsReport</title>
<ellipse fill="none" stroke="black" cx="125" cy="-90" rx="87.18" ry="18"/>
<text text-anchor="middle" x="125" y="-86.3" font-family="Times,serif" font-size="14.00">call MapsReport</text>
</g>
<!-- SCATTER_0_VARIABLE_item&#45;&gt;CALL_MapsReport -->
<g id="edge9" class="edge">
<title>SCATTER_0_VARIABLE_item&#45;&gt;CALL_MapsReport</title>
<path fill="none" stroke="black" d="M133.02,-215.9C95.25,-207.05 58.21,-194.94 47,-180 37.4,-167.2 39.51,-158.14 47,-144 54.16,-130.48 66.48,-119.77 79.25,-111.62"/>
<polygon fill="black" stroke="black" points="81.27,-114.49 88.1,-106.38 77.71,-108.46 81.27,-114.49"/>
</g>
<!-- CALL_Compress -->
<g id="node7" class="node">
<title>CALL_Compress</title>
<ellipse fill="none" stroke="black" cx="240" cy="-18" rx="76.09" ry="18"/>
<text text-anchor="middle" x="240" y="-14.3" font-family="Times,serif" font-size="14.00">call Compress</text>
</g>
<!-- CALL_FiltersReport&#45;&gt;CALL_Compress -->
<g id="edge4" class="edge">
<title>CALL_FiltersReport&#45;&gt;CALL_Compress</title>
<path fill="none" stroke="black" d="M179.99,-144.91C194.63,-135.96 210.93,-123.49 221,-108 232.95,-89.62 237.53,-65.02 239.22,-46.34"/>
<polygon fill="black" stroke="black" points="242.72,-46.33 239.91,-36.11 235.74,-45.85 242.72,-46.33"/>
</g>
<!-- CALL_FiltersReport&#45;&gt;CALL_MapsReport -->
<g id="edge8" class="edge">
<title>CALL_FiltersReport&#45;&gt;CALL_MapsReport</title>
<path fill="none" stroke="black" d="M142.31,-143.7C139.75,-135.9 136.67,-126.51 133.82,-117.83"/>
<polygon fill="black" stroke="black" points="137.07,-116.51 130.62,-108.1 130.42,-118.7 137.07,-116.51"/>
</g>
<!-- CALL_SetProbs -->
<g id="node3" class="node">
<title>CALL_SetProbs</title>
<ellipse fill="none" stroke="black" cx="347" cy="-306" rx="72.29" ry="18"/>
<text text-anchor="middle" x="347" y="-302.3" font-family="Times,serif" font-size="14.00">call SetProbs</text>
</g>
<!-- CALL_SetProbs&#45;&gt;SCATTER_0_VARIABLE_item -->
<g id="edge7" class="edge">
<title>CALL_SetProbs&#45;&gt;SCATTER_0_VARIABLE_item</title>
<path fill="none" stroke="black" d="M320.22,-289.12C304.36,-279.7 284.01,-267.63 266.56,-257.28"/>
<polygon fill="black" stroke="black" points="268.12,-254.14 257.73,-252.04 264.55,-260.16 268.12,-254.14"/>
</g>
<!-- CALL_SetProbs&#45;&gt;CALL_ErrorsReport -->
<g id="edge2" class="edge">
<title>CALL_SetProbs&#45;&gt;CALL_ErrorsReport</title>
<path fill="none" stroke="black" d="M401.85,-294.24C420.68,-287.63 439.82,-277.02 451,-260 461.74,-243.66 461.12,-232.73 451,-216 441.66,-200.56 426.18,-189.4 410.11,-181.42"/>
<polygon fill="black" stroke="black" points="411.17,-178.06 400.62,-177.09 408.26,-184.42 411.17,-178.06"/>
</g>
<!-- CALL_ErrorsReport&#45;&gt;CALL_Compress -->
<g id="edge6" class="edge">
<title>CALL_ErrorsReport&#45;&gt;CALL_Compress</title>
<path fill="none" stroke="black" d="M336.95,-144.15C317.68,-119.28 281.5,-72.57 259.2,-43.79"/>
<polygon fill="black" stroke="black" points="261.92,-41.59 253.03,-35.82 256.39,-45.87 261.92,-41.59"/>
</g>
<!-- CALL_ReGenotyping -->
<g id="node5" class="node">
<title>CALL_ReGenotyping</title>
<ellipse fill="none" stroke="black" cx="377" cy="-450" rx="95.58" ry="18"/>
<text text-anchor="middle" x="377" y="-446.3" font-family="Times,serif" font-size="14.00">call ReGenotyping</text>
</g>
<!-- CALL_ReGenotyping&#45;&gt;CALL_SetProbs -->
<g id="edge10" class="edge">
<title>CALL_ReGenotyping&#45;&gt;CALL_SetProbs</title>
<path fill="none" stroke="black" d="M289.93,-442.52C235.34,-436.44 172.18,-425.01 155,-404 140.37,-386.11 140.64,-370.11 155,-352 169.69,-333.46 224.46,-321.83 271.76,-315.04"/>
<polygon fill="black" stroke="black" points="272.29,-318.5 281.72,-313.67 271.34,-311.57 272.29,-318.5"/>
</g>
<!-- CALL_JointMarkers -->
<g id="node6" class="node">
<title>CALL_JointMarkers</title>
<ellipse fill="none" stroke="black" cx="616" cy="-378" rx="90.18" ry="18"/>
<text text-anchor="middle" x="616" y="-374.3" font-family="Times,serif" font-size="14.00">call JointMarkers</text>
</g>
<!-- CALL_ReGenotyping&#45;&gt;CALL_JointMarkers -->
<g id="edge3" class="edge">
<title>CALL_ReGenotyping&#45;&gt;CALL_JointMarkers</title>
<path fill="none" stroke="black" d="M426.52,-434.5C464.67,-423.32 517.5,-407.85 557.69,-396.08"/>
<polygon fill="black" stroke="black" points="558.75,-399.42 567.36,-393.25 556.78,-392.7 558.75,-399.42"/>
</g>
<!-- CALL_JointMarkers&#45;&gt;CALL_SetProbs -->
<g id="edge11" class="edge">
<title>CALL_JointMarkers&#45;&gt;CALL_SetProbs</title>
<path fill="none" stroke="black" d="M563.5,-363.34C517.96,-351.49 452.15,-334.36 405.06,-322.11"/>
<polygon fill="black" stroke="black" points="405.86,-318.7 395.3,-319.57 404.1,-325.48 405.86,-318.7"/>
</g>
<!-- CALL_MapsReport&#45;&gt;CALL_Compress -->
<g id="edge5" class="edge">
<title>CALL_MapsReport&#45;&gt;CALL_Compress</title>
<path fill="none" stroke="black" d="M151.67,-72.76C167.61,-63.07 188.02,-50.64 205.21,-40.17"/>
<polygon fill="black" stroke="black" points="207.15,-43.1 213.87,-34.91 203.51,-37.12 207.15,-43.1"/>
</g>
<!-- CONDITIONAL_1_EXPRESSION -->
<g id="node9" class="node">
<title>CONDITIONAL_1_EXPRESSION</title>
<polygon fill="none" stroke="black" stroke-dasharray="5,2" points="507.22,-378 422.11,-396 251.89,-396 166.78,-378 251.89,-360 422.11,-360 507.22,-378"/>
<text text-anchor="middle" x="337" y="-374.3" font-family="Times,serif" font-size="14.00">if ((multiallelics == &quot;TRUE&quot;))</text>
</g>
</g>
</svg>
