<?xml version="1.0" encoding="UTF-8" standalone="no"?>
<!DOCTYPE svg PUBLIC "-//W3C//DTD SVG 1.1//EN"
 "http://www.w3.org/Graphics/SVG/1.1/DTD/svg11.dtd">
<!-- Generated by graphviz version 2.43.0 (0)
 -->
<!-- Title: onemapMapsEmp Pages: 1 -->
<svg width="739pt" height="548pt"
 viewBox="0.00 0.00 739.00 548.00" xmlns="http://www.w3.org/2000/svg" xmlns:xlink="http://www.w3.org/1999/xlink">
<g id="graph0" class="graph" transform="scale(1 1) rotate(0) translate(4 544)">
<title>onemapMapsEmp</title>
<polygon fill="white" stroke="transparent" points="-4,4 -4,-544 735,-544 735,4 -4,4"/>
<g id="clust1" class="cluster">
<title>cluster_0</title>
<polygon fill="white" stroke="black" points="259,-64 259,-260 723,-260 723,-64 259,-64"/>
</g>
<g id="clust2" class="cluster">
<title>cluster_1</title>
<polygon fill="white" stroke="black" stroke-dasharray="5,2" points="8,-352 8,-476 396,-476 396,-352 8,-352"/>
</g>
<!-- CALL_FiltersReportEmp -->
<g id="node1" class="node">
<title>CALL_FiltersReportEmp</title>
<ellipse fill="none" stroke="black" cx="601" cy="-162" rx="113.98" ry="18"/>
<text text-anchor="middle" x="601" y="-158.3" font-family="Times,serif" font-size="14.00">call FiltersReportEmp</text>
</g>
<!-- CALL_Compress -->
<g id="node2" class="node">
<title>CALL_Compress</title>
<ellipse fill="none" stroke="black" cx="584" cy="-18" rx="76.09" ry="18"/>
<text text-anchor="middle" x="584" y="-14.3" font-family="Times,serif" font-size="14.00">call Compress</text>
</g>
<!-- CALL_FiltersReportEmp&#45;&gt;CALL_Compress -->
<g id="edge1" class="edge">
<title>CALL_FiltersReportEmp&#45;&gt;CALL_Compress</title>
<path fill="none" stroke="black" d="M601.86,-143.69C602.52,-124.18 602.63,-91.58 598,-64 597.02,-58.15 595.47,-52 593.75,-46.2"/>
<polygon fill="black" stroke="black" points="596.95,-44.71 590.57,-36.26 590.29,-46.85 596.95,-44.71"/>
</g>
<!-- CALL_MapsReportEmp -->
<g id="node3" class="node">
<title>CALL_MapsReportEmp</title>
<ellipse fill="none" stroke="black" cx="447" cy="-90" rx="108.58" ry="18"/>
<text text-anchor="middle" x="447" y="-86.3" font-family="Times,serif" font-size="14.00">call MapsReportEmp</text>
</g>
<!-- CALL_FiltersReportEmp&#45;&gt;CALL_MapsReportEmp -->
<g id="edge2" class="edge">
<title>CALL_FiltersReportEmp&#45;&gt;CALL_MapsReportEmp</title>
<path fill="none" stroke="black" d="M565.28,-144.76C543.34,-134.79 515.04,-121.93 491.63,-111.29"/>
<polygon fill="black" stroke="black" points="492.81,-107.98 482.26,-107.03 489.91,-114.35 492.81,-107.98"/>
</g>
<!-- CALL_MapsReportEmp&#45;&gt;CALL_Compress -->
<g id="edge7" class="edge">
<title>CALL_MapsReportEmp&#45;&gt;CALL_Compress</title>
<path fill="none" stroke="black" d="M478.77,-72.76C498.33,-62.77 523.55,-49.88 544.4,-39.23"/>
<polygon fill="black" stroke="black" points="546.03,-42.33 553.34,-34.67 542.84,-36.1 546.03,-42.33"/>
</g>
<!-- CALL_SetProbs -->
<g id="node4" class="node">
<title>CALL_SetProbs</title>
<ellipse fill="none" stroke="black" cx="370" cy="-306" rx="72.29" ry="18"/>
<text text-anchor="middle" x="370" y="-302.3" font-family="Times,serif" font-size="14.00">call SetProbs</text>
</g>
<!-- CALL_CheckDepths -->
<g id="node5" class="node">
<title>CALL_CheckDepths</title>
<ellipse fill="none" stroke="black" cx="358" cy="-162" rx="90.98" ry="18"/>
<text text-anchor="middle" x="358" y="-158.3" font-family="Times,serif" font-size="14.00">call CheckDepths</text>
</g>
<!-- CALL_SetProbs&#45;&gt;CALL_CheckDepths -->
<g id="edge3" class="edge">
<title>CALL_SetProbs&#45;&gt;CALL_CheckDepths</title>
<path fill="none" stroke="black" d="M316.7,-293.86C298.4,-287.21 279.82,-276.66 269,-260 258.35,-243.6 259.34,-233 269,-216 277.17,-201.63 290.95,-190.74 305.25,-182.7"/>
<polygon fill="black" stroke="black" points="306.93,-185.77 314.18,-178.05 303.69,-179.56 306.93,-185.77"/>
</g>
<!-- SCATTER_0_VARIABLE_item -->
<g id="node6" class="node">
<title>SCATTER_0_VARIABLE_item</title>
<polygon fill="none" stroke="black" points="704.28,-234 597.64,-252 384.36,-252 277.72,-234 384.36,-216 597.64,-216 704.28,-234"/>
<text text-anchor="middle" x="491" y="-230.3" font-family="Times,serif" font-size="14.00">scatter over Pair[String, File] as item</text>
</g>
<!-- CALL_SetProbs&#45;&gt;SCATTER_0_VARIABLE_item -->
<g id="edge6" class="edge">
<title>CALL_SetProbs&#45;&gt;SCATTER_0_VARIABLE_item</title>
<path fill="none" stroke="black" d="M397.15,-289.29C413.41,-279.89 434.34,-267.78 452.31,-257.38"/>
<polygon fill="black" stroke="black" points="454.49,-260.16 461.39,-252.13 450.99,-254.11 454.49,-260.16"/>
</g>
<!-- CALL_CheckDepths&#45;&gt;CALL_Compress -->
<g id="edge10" class="edge">
<title>CALL_CheckDepths&#45;&gt;CALL_Compress</title>
<path fill="none" stroke="black" d="M429.69,-150.83C481.77,-141.97 546.27,-127.5 565,-108 580.61,-91.75 584.72,-65.99 585.31,-46.36"/>
<polygon fill="black" stroke="black" points="588.81,-46.18 585.32,-36.18 581.81,-46.17 588.81,-46.18"/>
</g>
<!-- SCATTER_0_VARIABLE_item&#45;&gt;CALL_FiltersReportEmp -->
<g id="edge13" class="edge">
<title>SCATTER_0_VARIABLE_item&#45;&gt;CALL_FiltersReportEmp</title>
<path fill="none" stroke="black" d="M517.91,-215.88C532.37,-206.67 550.38,-195.22 565.92,-185.32"/>
<polygon fill="black" stroke="black" points="568.19,-188.03 574.75,-179.71 564.43,-182.12 568.19,-188.03"/>
</g>
<!-- SCATTER_0_VARIABLE_item&#45;&gt;CALL_MapsReportEmp -->
<g id="edge4" class="edge">
<title>SCATTER_0_VARIABLE_item&#45;&gt;CALL_MapsReportEmp</title>
<path fill="none" stroke="black" d="M485.69,-215.87C478.16,-191.56 464.3,-146.82 455.37,-118.01"/>
<polygon fill="black" stroke="black" points="458.63,-116.71 452.33,-108.19 451.94,-118.78 458.63,-116.71"/>
</g>
<!-- SCATTER_0_VARIABLE_item&#45;&gt;CALL_CheckDepths -->
<g id="edge5" class="edge">
<title>SCATTER_0_VARIABLE_item&#45;&gt;CALL_CheckDepths</title>
<path fill="none" stroke="black" d="M458.46,-215.88C440.01,-206.16 416.78,-193.94 397.31,-183.69"/>
<polygon fill="black" stroke="black" points="398.86,-180.55 388.38,-178.99 395.6,-186.74 398.86,-180.55"/>
</g>
<!-- CALL_FilterBi -->
<g id="node7" class="node">
<title>CALL_FilterBi</title>
<ellipse fill="none" stroke="black" cx="471" cy="-450" rx="65.79" ry="18"/>
<text text-anchor="middle" x="471" y="-446.3" font-family="Times,serif" font-size="14.00">call FilterBi</text>
</g>
<!-- CALL_FilterBi&#45;&gt;CALL_SetProbs -->
<g id="edge9" class="edge">
<title>CALL_FilterBi&#45;&gt;CALL_SetProbs</title>
<path fill="none" stroke="black" d="M459.02,-432.15C441.4,-407.39 408.39,-360.97 387.89,-332.16"/>
<polygon fill="black" stroke="black" points="390.62,-329.95 381.97,-323.82 384.91,-334 390.62,-329.95"/>
</g>
<!-- CALL_JointMarkers -->
<g id="node8" class="node">
<title>CALL_JointMarkers</title>
<ellipse fill="none" stroke="black" cx="298" cy="-378" rx="90.18" ry="18"/>
<text text-anchor="middle" x="298" y="-374.3" font-family="Times,serif" font-size="14.00">call JointMarkers</text>
</g>
<!-- CALL_FilterBi&#45;&gt;CALL_JointMarkers -->
<g id="edge8" class="edge">
<title>CALL_FilterBi&#45;&gt;CALL_JointMarkers</title>
<path fill="none" stroke="black" d="M435.57,-434.67C409.55,-424.14 373.92,-409.72 345.44,-398.2"/>
<polygon fill="black" stroke="black" points="346.66,-394.91 336.08,-394.41 344.04,-401.4 346.66,-394.91"/>
</g>
<!-- CALL_JointMarkers&#45;&gt;CALL_SetProbs -->
<g id="edge11" class="edge">
<title>CALL_JointMarkers&#45;&gt;CALL_SetProbs</title>
<path fill="none" stroke="black" d="M315.43,-360.05C324.45,-351.28 335.61,-340.43 345.49,-330.83"/>
<polygon fill="black" stroke="black" points="348,-333.27 352.73,-323.79 343.12,-328.25 348,-333.27"/>
</g>
<!-- CALL_ReGenotyping -->
<g id="node9" class="node">
<title>CALL_ReGenotyping</title>
<ellipse fill="none" stroke="black" cx="471" cy="-522" rx="95.58" ry="18"/>
<text text-anchor="middle" x="471" y="-518.3" font-family="Times,serif" font-size="14.00">call ReGenotyping</text>
</g>
<!-- CALL_ReGenotyping&#45;&gt;CALL_FilterBi -->
<g id="edge12" class="edge">
<title>CALL_ReGenotyping&#45;&gt;CALL_FilterBi</title>
<path fill="none" stroke="black" d="M471,-503.7C471,-495.98 471,-486.71 471,-478.11"/>
<polygon fill="black" stroke="black" points="474.5,-478.1 471,-468.1 467.5,-478.1 474.5,-478.1"/>
</g>
<!-- CALL_FilterMulti -->
<g id="node10" class="node">
<title>CALL_FilterMulti</title>
<ellipse fill="none" stroke="black" cx="307" cy="-450" rx="80.69" ry="18"/>
<text text-anchor="middle" x="307" y="-446.3" font-family="Times,serif" font-size="14.00">call FilterMulti</text>
</g>
<!-- CALL_FilterMulti&#45;&gt;CALL_JointMarkers -->
<g id="edge14" class="edge">
<title>CALL_FilterMulti&#45;&gt;CALL_JointMarkers</title>
<path fill="none" stroke="black" d="M304.78,-431.7C303.78,-423.98 302.59,-414.71 301.49,-406.11"/>
<polygon fill="black" stroke="black" points="304.95,-405.58 300.2,-396.1 298,-406.47 304.95,-405.58"/>
</g>
<!-- CONDITIONAL_1_EXPRESSION -->
<g id="node11" class="node">
<title>CONDITIONAL_1_EXPRESSION</title>
<polygon fill="none" stroke="black" stroke-dasharray="5,2" points="208.13,-450 160.06,-468 63.94,-468 15.87,-450 63.94,-432 160.06,-432 208.13,-450"/>
<text text-anchor="middle" x="112" y="-446.3" font-family="Times,serif" font-size="14.00">if (multiallelics)</text>
</g>
</g>
</svg>
