<?xml version="1.0" encoding="UTF-8" standalone="no"?>
<!DOCTYPE svg PUBLIC "-//W3C//DTD SVG 1.1//EN"
 "http://www.w3.org/Graphics/SVG/1.1/DTD/svg11.dtd">
<!-- Generated by graphviz version 2.43.0 (0)
 -->
<!-- Title: onemapMapsEmp Pages: 1 -->
<svg width="736pt" height="476pt"
 viewBox="0.00 0.00 736.00 476.00" xmlns="http://www.w3.org/2000/svg" xmlns:xlink="http://www.w3.org/1999/xlink">
<g id="graph0" class="graph" transform="scale(1 1) rotate(0) translate(4 472)">
<title>onemapMapsEmp</title>
<polygon fill="white" stroke="transparent" points="-4,4 -4,-472 732,-472 732,4 -4,4"/>
<g id="clust1" class="cluster">
<title>cluster_0</title>
<polygon fill="white" stroke="black" stroke-dasharray="5,2" points="165,-352 165,-404 720,-404 720,-352 165,-352"/>
</g>
<g id="clust2" class="cluster">
<title>cluster_1</title>
<polygon fill="white" stroke="black" points="8,-64 8,-260 472,-260 472,-64 8,-64"/>
</g>
<!-- SCATTER_1_VARIABLE_item -->
<g id="node1" class="node">
<title>SCATTER_1_VARIABLE_item</title>
<polygon fill="none" stroke="black" points="442.28,-234 335.64,-252 122.36,-252 15.72,-234 122.36,-216 335.64,-216 442.28,-234"/>
<text text-anchor="middle" x="229" y="-230.3" font-family="Times,serif" font-size="14.00">scatter over Pair[String, File] as item</text>
</g>
<!-- CALL_MapsReportEmp -->
<g id="node2" class="node">
<title>CALL_MapsReportEmp</title>
<ellipse fill="none" stroke="black" cx="137" cy="-90" rx="108.58" ry="18"/>
<text text-anchor="middle" x="137" y="-86.3" font-family="Times,serif" font-size="14.00">call MapsReportEmp</text>
</g>
<!-- SCATTER_1_VARIABLE_item&#45;&gt;CALL_MapsReportEmp -->
<g id="edge1" class="edge">
<title>SCATTER_1_VARIABLE_item&#45;&gt;CALL_MapsReportEmp</title>
<path fill="none" stroke="black" d="M119.27,-216.47C78.54,-207.9 39.24,-195.86 27,-180 17.23,-167.33 18.49,-157.55 27,-144 36.85,-128.32 52.78,-117.18 69.49,-109.29"/>
<polygon fill="black" stroke="black" points="71.05,-112.43 78.83,-105.24 68.26,-106.01 71.05,-112.43"/>
</g>
<!-- CALL_FiltersReportEmp -->
<g id="node3" class="node">
<title>CALL_FiltersReportEmp</title>
<ellipse fill="none" stroke="black" cx="150" cy="-162" rx="113.98" ry="18"/>
<text text-anchor="middle" x="150" y="-158.3" font-family="Times,serif" font-size="14.00">call FiltersReportEmp</text>
</g>
<!-- SCATTER_1_VARIABLE_item&#45;&gt;CALL_FiltersReportEmp -->
<g id="edge7" class="edge">
<title>SCATTER_1_VARIABLE_item&#45;&gt;CALL_FiltersReportEmp</title>
<path fill="none" stroke="black" d="M209.47,-215.7C199.54,-206.9 187.33,-196.08 176.56,-186.54"/>
<polygon fill="black" stroke="black" points="178.84,-183.88 169.03,-179.86 174.19,-189.11 178.84,-183.88"/>
</g>
<!-- CALL_CheckDepths -->
<g id="node8" class="node">
<title>CALL_CheckDepths</title>
<ellipse fill="none" stroke="black" cx="373" cy="-162" rx="90.98" ry="18"/>
<text text-anchor="middle" x="373" y="-158.3" font-family="Times,serif" font-size="14.00">call CheckDepths</text>
</g>
<!-- SCATTER_1_VARIABLE_item&#45;&gt;CALL_CheckDepths -->
<g id="edge12" class="edge">
<title>SCATTER_1_VARIABLE_item&#45;&gt;CALL_CheckDepths</title>
<path fill="none" stroke="black" d="M264.23,-215.88C284.39,-206.07 309.81,-193.72 331.01,-183.41"/>
<polygon fill="black" stroke="black" points="332.65,-186.51 340.11,-178.99 329.59,-180.21 332.65,-186.51"/>
</g>
<!-- CALL_Compress -->
<g id="node4" class="node">
<title>CALL_Compress</title>
<ellipse fill="none" stroke="black" cx="274" cy="-18" rx="76.09" ry="18"/>
<text text-anchor="middle" x="274" y="-14.3" font-family="Times,serif" font-size="14.00">call Compress</text>
</g>
<!-- CALL_MapsReportEmp&#45;&gt;CALL_Compress -->
<g id="edge6" class="edge">
<title>CALL_MapsReportEmp&#45;&gt;CALL_Compress</title>
<path fill="none" stroke="black" d="M168.77,-72.76C188.33,-62.77 213.55,-49.88 234.4,-39.23"/>
<polygon fill="black" stroke="black" points="236.03,-42.33 243.34,-34.67 232.84,-36.1 236.03,-42.33"/>
</g>
<!-- CALL_FiltersReportEmp&#45;&gt;CALL_MapsReportEmp -->
<g id="edge3" class="edge">
<title>CALL_FiltersReportEmp&#45;&gt;CALL_MapsReportEmp</title>
<path fill="none" stroke="black" d="M146.79,-143.7C145.35,-135.98 143.63,-126.71 142.04,-118.11"/>
<polygon fill="black" stroke="black" points="145.44,-117.3 140.18,-108.1 138.56,-118.58 145.44,-117.3"/>
</g>
<!-- CALL_FiltersReportEmp&#45;&gt;CALL_Compress -->
<g id="edge2" class="edge">
<title>CALL_FiltersReportEmp&#45;&gt;CALL_Compress</title>
<path fill="none" stroke="black" d="M201.2,-145.85C220.74,-137.63 241.53,-125.46 255,-108 268.53,-90.45 272.94,-65.42 274.16,-46.37"/>
<polygon fill="black" stroke="black" points="277.66,-46.34 274.55,-36.21 270.67,-46.07 277.66,-46.34"/>
</g>
<!-- CALL_SetProbs -->
<g id="node5" class="node">
<title>CALL_SetProbs</title>
<ellipse fill="none" stroke="black" cx="347" cy="-306" rx="72.29" ry="18"/>
<text text-anchor="middle" x="347" y="-302.3" font-family="Times,serif" font-size="14.00">call SetProbs</text>
</g>
<!-- CALL_SetProbs&#45;&gt;SCATTER_1_VARIABLE_item -->
<g id="edge4" class="edge">
<title>CALL_SetProbs&#45;&gt;SCATTER_1_VARIABLE_item</title>
<path fill="none" stroke="black" d="M320.22,-289.12C304.36,-279.7 284.01,-267.63 266.56,-257.28"/>
<polygon fill="black" stroke="black" points="268.12,-254.14 257.73,-252.04 264.55,-260.16 268.12,-254.14"/>
</g>
<!-- CALL_SetProbs&#45;&gt;CALL_CheckDepths -->
<g id="edge11" class="edge">
<title>CALL_SetProbs&#45;&gt;CALL_CheckDepths</title>
<path fill="none" stroke="black" d="M401.85,-294.24C420.68,-287.63 439.82,-277.02 451,-260 461.74,-243.66 460.15,-233.28 451,-216 443.9,-202.6 431.73,-191.96 419.09,-183.83"/>
<polygon fill="black" stroke="black" points="420.69,-180.72 410.31,-178.61 417.11,-186.73 420.69,-180.72"/>
</g>
<!-- CALL_ReGenotyping -->
<g id="node6" class="node">
<title>CALL_ReGenotyping</title>
<ellipse fill="none" stroke="black" cx="383" cy="-450" rx="95.58" ry="18"/>
<text text-anchor="middle" x="383" y="-446.3" font-family="Times,serif" font-size="14.00">call ReGenotyping</text>
</g>
<!-- CALL_ReGenotyping&#45;&gt;CALL_SetProbs -->
<g id="edge9" class="edge">
<title>CALL_ReGenotyping&#45;&gt;CALL_SetProbs</title>
<path fill="none" stroke="black" d="M295.93,-442.52C241.34,-436.44 178.18,-425.01 161,-404 146.37,-386.11 146.71,-370.16 161,-352 174.99,-334.22 226.74,-322.62 272.12,-315.66"/>
<polygon fill="black" stroke="black" points="272.9,-319.08 282.28,-314.16 271.88,-312.16 272.9,-319.08"/>
</g>
<!-- CALL_JointMarkers -->
<g id="node7" class="node">
<title>CALL_JointMarkers</title>
<ellipse fill="none" stroke="black" cx="622" cy="-378" rx="90.18" ry="18"/>
<text text-anchor="middle" x="622" y="-374.3" font-family="Times,serif" font-size="14.00">call JointMarkers</text>
</g>
<!-- CALL_ReGenotyping&#45;&gt;CALL_JointMarkers -->
<g id="edge5" class="edge">
<title>CALL_ReGenotyping&#45;&gt;CALL_JointMarkers</title>
<path fill="none" stroke="black" d="M432.52,-434.5C470.67,-423.32 523.5,-407.85 563.69,-396.08"/>
<polygon fill="black" stroke="black" points="564.75,-399.42 573.36,-393.25 562.78,-392.7 564.75,-399.42"/>
</g>
<!-- CALL_JointMarkers&#45;&gt;CALL_SetProbs -->
<g id="edge10" class="edge">
<title>CALL_JointMarkers&#45;&gt;CALL_SetProbs</title>
<path fill="none" stroke="black" d="M568.65,-363.42C521.74,-351.48 453.61,-334.14 405.28,-321.84"/>
<polygon fill="black" stroke="black" points="406.15,-318.44 395.59,-319.37 404.42,-325.23 406.15,-318.44"/>
</g>
<!-- CALL_CheckDepths&#45;&gt;CALL_Compress -->
<g id="edge8" class="edge">
<title>CALL_CheckDepths&#45;&gt;CALL_Compress</title>
<path fill="none" stroke="black" d="M361.06,-143.87C343.81,-119.14 311.82,-73.24 291.79,-44.51"/>
<polygon fill="black" stroke="black" points="294.57,-42.39 285.98,-36.19 288.83,-46.39 294.57,-42.39"/>
</g>
<!-- CONDITIONAL_0_EXPRESSION -->
<g id="node9" class="node">
<title>CONDITIONAL_0_EXPRESSION</title>
<polygon fill="none" stroke="black" stroke-dasharray="5,2" points="513.22,-378 428.11,-396 257.89,-396 172.78,-378 257.89,-360 428.11,-360 513.22,-378"/>
<text text-anchor="middle" x="343" y="-374.3" font-family="Times,serif" font-size="14.00">if ((multiallelics == &quot;TRUE&quot;))</text>
</g>
</g>
</svg>
