<?xml version="1.0" encoding="UTF-8" standalone="no"?>
<!DOCTYPE svg PUBLIC "-//W3C//DTD SVG 1.1//EN"
 "http://www.w3.org/Graphics/SVG/1.1/DTD/svg11.dtd">
<!-- Generated by graphviz version 2.43.0 (0)
 -->
<!-- Title: gusmapMaps Pages: 1 -->
<svg width="450pt" height="204pt"
 viewBox="0.00 0.00 450.00 204.00" xmlns="http://www.w3.org/2000/svg" xmlns:xlink="http://www.w3.org/1999/xlink">
<g id="graph0" class="graph" transform="scale(1 1) rotate(0) translate(4 200)">
<title>gusmapMaps</title>
<polygon fill="white" stroke="transparent" points="-4,4 -4,-200 446,-200 446,4 -4,4"/>
<g id="clust1" class="cluster">
<title>cluster_0</title>
<polygon fill="white" stroke="black" points="8,-64 8,-188 434,-188 434,-64 8,-64"/>
</g>
<!-- SCATTER_0_VARIABLE_vcf -->
<g id="node1" class="node">
<title>SCATTER_0_VARIABLE_vcf</title>
<polygon fill="none" stroke="black" points="425.77,-162 323.38,-180 118.62,-180 16.23,-162 118.62,-144 323.38,-144 425.77,-162"/>
<text text-anchor="middle" x="221" y="-158.3" font-family="Times,serif" font-size="14.00">scatter over Pair[String, File] as vcf</text>
</g>
<!-- CALL_GusmapReport -->
<g id="node2" class="node">
<title>CALL_GusmapReport</title>
<ellipse fill="none" stroke="black" cx="221" cy="-90" rx="99.38" ry="18"/>
<text text-anchor="middle" x="221" y="-86.3" font-family="Times,serif" font-size="14.00">call GusmapReport</text>
</g>
<!-- SCATTER_0_VARIABLE_vcf&#45;&gt;CALL_GusmapReport -->
<g id="edge1" class="edge">
<title>SCATTER_0_VARIABLE_vcf&#45;&gt;CALL_GusmapReport</title>
<path fill="none" stroke="black" d="M221,-143.7C221,-135.98 221,-126.71 221,-118.11"/>
<polygon fill="black" stroke="black" points="224.5,-118.1 221,-108.1 217.5,-118.1 224.5,-118.1"/>
</g>
<!-- CALL_CompressGusmap -->
<g id="node3" class="node">
<title>CALL_CompressGusmap</title>
<ellipse fill="none" stroke="black" cx="221" cy="-18" rx="114.28" ry="18"/>
<text text-anchor="middle" x="221" y="-14.3" font-family="Times,serif" font-size="14.00">call CompressGusmap</text>
</g>
<!-- CALL_GusmapReport&#45;&gt;CALL_CompressGusmap -->
<g id="edge2" class="edge">
<title>CALL_GusmapReport&#45;&gt;CALL_CompressGusmap</title>
<path fill="none" stroke="black" d="M221,-71.7C221,-63.98 221,-54.71 221,-46.11"/>
<polygon fill="black" stroke="black" points="224.5,-46.1 221,-36.1 217.5,-46.1 224.5,-46.1"/>
</g>
</g>
</svg>
