<?xml version="1.0" encoding="UTF-8" standalone="no"?>
<!DOCTYPE svg PUBLIC "-//W3C//DTD SVG 1.1//EN"
 "http://www.w3.org/Graphics/SVG/1.1/DTD/svg11.dtd">
<!-- Generated by graphviz version 2.38.0 (20140413.2041)
 -->
<!-- Title: Maps Pages: 1 -->
<svg width="749pt" height="340pt"
 viewBox="0.00 0.00 749.00 340.00" xmlns="http://www.w3.org/2000/svg" xmlns:xlink="http://www.w3.org/1999/xlink">
<g id="graph0" class="graph" transform="scale(1 1) rotate(0) translate(4 336)">
<title>Maps</title>
<polygon fill="white" stroke="none" points="-4,4 -4,-336 745,-336 745,4 -4,4"/>
<g id="clust1" class="cluster"><title>cluster_0</title>
<polygon fill="white" stroke="black" points="8,-64 8,-268 733,-268 733,-64 8,-64"/>
</g>
<!-- CALL_ApplyRandomFilters -->
<g id="node1" class="node"><title>CALL_ApplyRandomFilters</title>
<ellipse fill="none" stroke="black" cx="466" cy="-314" rx="100.983" ry="18"/>
<text text-anchor="middle" x="466" y="-310.3" font-family="Times,serif" font-size="14.00">call ApplyRandomFilters</text>
</g>
<!-- SCATTER_0_VARIABLE_vcf -->
<g id="node2" class="node"><title>SCATTER_0_VARIABLE_vcf</title>
<polygon fill="none" stroke="black" points="532.207,-242 452.604,-260 293.396,-260 213.793,-242 293.396,-224 452.604,-224 532.207,-242"/>
<text text-anchor="middle" x="373" y="-238.3" font-family="Times,serif" font-size="14.00">scatter over Pair[String, File] as vcf</text>
</g>
<!-- CALL_ApplyRandomFilters&#45;&gt;SCATTER_0_VARIABLE_vcf -->
<g id="edge1" class="edge"><title>CALL_ApplyRandomFilters&#45;&gt;SCATTER_0_VARIABLE_vcf</title>
<path fill="none" stroke="black" d="M443.96,-296.411C432.064,-287.456 417.181,-276.254 404.121,-266.425"/>
<polygon fill="black" stroke="black" points="405.947,-263.418 395.853,-260.201 401.738,-269.011 405.947,-263.418"/>
</g>
<!-- CALL_Gambis -->
<g id="node8" class="node"><title>CALL_Gambis</title>
<ellipse fill="none" stroke="black" cx="550" cy="-170" rx="53.8905" ry="18"/>
<text text-anchor="middle" x="550" y="-166.3" font-family="Times,serif" font-size="14.00">call Gambis</text>
</g>
<!-- CALL_ApplyRandomFilters&#45;&gt;CALL_Gambis -->
<g id="edge6" class="edge"><title>CALL_ApplyRandomFilters&#45;&gt;CALL_Gambis</title>
<path fill="none" stroke="black" d="M506.995,-297.343C519.967,-290.338 532.996,-280.725 541,-268 554.035,-247.275 555.206,-218.971 553.762,-198.287"/>
<polygon fill="black" stroke="black" points="557.239,-197.874 552.818,-188.246 550.27,-198.53 557.239,-197.874"/>
</g>
<!-- CALL_DefaultMaps -->
<g id="node3" class="node"><title>CALL_DefaultMaps</title>
<ellipse fill="none" stroke="black" cx="284" cy="-94" rx="72.2799" ry="18"/>
<ellipse fill="none" stroke="black" cx="284" cy="-94" rx="76.2875" ry="22"/>
<text text-anchor="middle" x="284" y="-90.3" font-family="Times,serif" font-size="14.00">call DefaultMaps</text>
</g>
<!-- SCATTER_0_VARIABLE_vcf&#45;&gt;CALL_DefaultMaps -->
<g id="edge9" class="edge"><title>SCATTER_0_VARIABLE_vcf&#45;&gt;CALL_DefaultMaps</title>
<path fill="none" stroke="black" d="M374.99,-223.997C376.361,-205.091 376.022,-174.285 363,-152 355.235,-138.712 343.008,-127.668 330.473,-118.953"/>
<polygon fill="black" stroke="black" points="332.084,-115.825 321.796,-113.292 328.259,-121.687 332.084,-115.825"/>
</g>
<!-- CALL_GusmapMaps -->
<g id="node5" class="node"><title>CALL_GusmapMaps</title>
<ellipse fill="none" stroke="black" cx="646" cy="-94" rx="75.2921" ry="18"/>
<ellipse fill="none" stroke="black" cx="646" cy="-94" rx="79.2868" ry="22"/>
<text text-anchor="middle" x="646" y="-90.3" font-family="Times,serif" font-size="14.00">call GusmapMaps</text>
</g>
<!-- SCATTER_0_VARIABLE_vcf&#45;&gt;CALL_GusmapMaps -->
<g id="edge3" class="edge"><title>SCATTER_0_VARIABLE_vcf&#45;&gt;CALL_GusmapMaps</title>
<path fill="none" stroke="black" d="M391.054,-223.896C412.503,-204.323 450.053,-172.355 487,-152 516.537,-135.728 551.623,-122.573 581.312,-113.018"/>
<polygon fill="black" stroke="black" points="582.671,-116.259 591.157,-109.916 580.568,-109.583 582.671,-116.259"/>
</g>
<!-- CALL_vcf2onemap -->
<g id="node6" class="node"><title>CALL_vcf2onemap</title>
<ellipse fill="none" stroke="black" cx="284" cy="-170" rx="69.5877" ry="18"/>
<text text-anchor="middle" x="284" y="-166.3" font-family="Times,serif" font-size="14.00">call vcf2onemap</text>
</g>
<!-- SCATTER_0_VARIABLE_vcf&#45;&gt;CALL_vcf2onemap -->
<g id="edge5" class="edge"><title>SCATTER_0_VARIABLE_vcf&#45;&gt;CALL_vcf2onemap</title>
<path fill="none" stroke="black" d="M351,-223.697C339.54,-214.683 325.379,-203.545 313.032,-193.834"/>
<polygon fill="black" stroke="black" points="314.854,-190.814 304.83,-187.383 310.526,-196.316 314.854,-190.814"/>
</g>
<!-- CALL_SNPCallerMaps -->
<g id="node7" class="node"><title>CALL_SNPCallerMaps</title>
<ellipse fill="none" stroke="black" cx="103" cy="-94" rx="83.3768" ry="18"/>
<ellipse fill="none" stroke="black" cx="103" cy="-94" rx="87.3857" ry="22"/>
<text text-anchor="middle" x="103" y="-90.3" font-family="Times,serif" font-size="14.00">call SNPCallerMaps</text>
</g>
<!-- SCATTER_0_VARIABLE_vcf&#45;&gt;CALL_SNPCallerMaps -->
<g id="edge16" class="edge"><title>SCATTER_0_VARIABLE_vcf&#45;&gt;CALL_SNPCallerMaps</title>
<path fill="none" stroke="black" d="M294.804,-223.92C265.459,-215.594 232.564,-203.871 205,-188 175.168,-170.823 146.699,-143.64 127.456,-123.09"/>
<polygon fill="black" stroke="black" points="129.893,-120.568 120.55,-115.573 124.738,-125.305 129.893,-120.568"/>
</g>
<!-- SCATTER_0_VARIABLE_vcf&#45;&gt;CALL_Gambis -->
<g id="edge12" class="edge"><title>SCATTER_0_VARIABLE_vcf&#45;&gt;CALL_Gambis</title>
<path fill="none" stroke="black" d="M416.299,-223.876C443.947,-212.942 479.641,-198.825 507.193,-187.929"/>
<polygon fill="black" stroke="black" points="508.561,-191.152 516.573,-184.22 505.986,-184.643 508.561,-191.152"/>
</g>
<!-- CALL_ScatterAt89_13 -->
<g id="node9" class="node"><title>CALL_ScatterAt89_13</title>
<ellipse fill="none" stroke="black" cx="463" cy="-94" rx="81.4749" ry="18"/>
<ellipse fill="none" stroke="black" cx="463" cy="-94" rx="85.4863" ry="22"/>
<text text-anchor="middle" x="463" y="-90.3" font-family="Times,serif" font-size="14.00">call ScatterAt89_13</text>
</g>
<!-- SCATTER_0_VARIABLE_vcf&#45;&gt;CALL_ScatterAt89_13 -->
<g id="edge14" class="edge"><title>SCATTER_0_VARIABLE_vcf&#45;&gt;CALL_ScatterAt89_13</title>
<path fill="none" stroke="black" d="M383.5,-223.966C398.46,-199.698 426.133,-154.807 444.557,-124.918"/>
<polygon fill="black" stroke="black" points="447.686,-126.513 449.954,-116.164 441.727,-122.84 447.686,-126.513"/>
</g>
<!-- CALL_JointReports -->
<g id="node4" class="node"><title>CALL_JointReports</title>
<ellipse fill="none" stroke="black" cx="373" cy="-18" rx="70.3881" ry="18"/>
<text text-anchor="middle" x="373" y="-14.3" font-family="Times,serif" font-size="14.00">call JointReports</text>
</g>
<!-- CALL_DefaultMaps&#45;&gt;CALL_JointReports -->
<g id="edge2" class="edge"><title>CALL_DefaultMaps&#45;&gt;CALL_JointReports</title>
<path fill="none" stroke="black" d="M308.32,-72.7792C319.778,-63.2524 333.5,-51.8427 345.351,-41.9887"/>
<polygon fill="black" stroke="black" points="347.755,-44.5421 353.207,-35.4575 343.28,-39.1596 347.755,-44.5421"/>
</g>
<!-- CALL_GusmapMaps&#45;&gt;CALL_JointReports -->
<g id="edge7" class="edge"><title>CALL_GusmapMaps&#45;&gt;CALL_JointReports</title>
<path fill="none" stroke="black" d="M597.703,-76.5322C584.56,-72.2512 570.285,-67.7832 557,-64 516.236,-52.3918 469.881,-41.0661 433.896,-32.6807"/>
<polygon fill="black" stroke="black" points="434.566,-29.2435 424.034,-30.3958 432.986,-36.0628 434.566,-29.2435"/>
</g>
<!-- CALL_vcf2onemap&#45;&gt;CALL_DefaultMaps -->
<g id="edge13" class="edge"><title>CALL_vcf2onemap&#45;&gt;CALL_DefaultMaps</title>
<path fill="none" stroke="black" d="M284,-151.837C284,-144.165 284,-134.878 284,-126.053"/>
<polygon fill="black" stroke="black" points="287.5,-126.032 284,-116.032 280.5,-126.032 287.5,-126.032"/>
</g>
<!-- CALL_vcf2onemap&#45;&gt;CALL_SNPCallerMaps -->
<g id="edge4" class="edge"><title>CALL_vcf2onemap&#45;&gt;CALL_SNPCallerMaps</title>
<path fill="none" stroke="black" d="M248.24,-154.38C222.117,-143.7 186.247,-129.035 156.691,-116.951"/>
<polygon fill="black" stroke="black" points="157.918,-113.672 147.337,-113.127 155.269,-120.151 157.918,-113.672"/>
</g>
<!-- CALL_vcf2onemap&#45;&gt;CALL_ScatterAt89_13 -->
<g id="edge11" class="edge"><title>CALL_vcf2onemap&#45;&gt;CALL_ScatterAt89_13</title>
<path fill="none" stroke="black" d="M319.365,-154.38C345.291,-143.662 380.925,-128.93 410.214,-116.822"/>
<polygon fill="black" stroke="black" points="411.576,-120.047 419.48,-112.992 408.901,-113.578 411.576,-120.047"/>
</g>
<!-- CALL_SNPCallerMaps&#45;&gt;CALL_JointReports -->
<g id="edge17" class="edge"><title>CALL_SNPCallerMaps&#45;&gt;CALL_JointReports</title>
<path fill="none" stroke="black" d="M156.206,-76.5108C170.102,-72.3186 185.085,-67.8993 199,-64 237.284,-53.2718 280.565,-42.0747 314.383,-33.5334"/>
<polygon fill="black" stroke="black" points="315.265,-36.9207 324.108,-31.0847 313.556,-30.1326 315.265,-36.9207"/>
</g>
<!-- CALL_Gambis&#45;&gt;CALL_GusmapMaps -->
<g id="edge8" class="edge"><title>CALL_Gambis&#45;&gt;CALL_GusmapMaps</title>
<path fill="none" stroke="black" d="M570.359,-153.307C582.506,-143.944 598.234,-131.82 612.2,-121.054"/>
<polygon fill="black" stroke="black" points="614.396,-123.781 620.179,-114.904 610.122,-118.237 614.396,-123.781"/>
</g>
<!-- CALL_Gambis&#45;&gt;CALL_ScatterAt89_13 -->
<g id="edge15" class="edge"><title>CALL_Gambis&#45;&gt;CALL_ScatterAt89_13</title>
<path fill="none" stroke="black" d="M531.122,-152.943C520.463,-143.877 506.864,-132.309 494.623,-121.898"/>
<polygon fill="black" stroke="black" points="496.705,-119.074 486.82,-115.261 492.169,-124.406 496.705,-119.074"/>
</g>
<!-- CALL_ScatterAt89_13&#45;&gt;CALL_JointReports -->
<g id="edge10" class="edge"><title>CALL_ScatterAt89_13&#45;&gt;CALL_JointReports</title>
<path fill="none" stroke="black" d="M438.407,-72.7792C426.82,-63.2524 412.944,-51.8427 400.959,-41.9887"/>
<polygon fill="black" stroke="black" points="402.963,-39.105 393.016,-35.4575 398.517,-44.512 402.963,-39.105"/>
</g>
</g>
</svg>
