<?xml version="1.0" encoding="UTF-8" standalone="no"?>
<!DOCTYPE svg PUBLIC "-//W3C//DTD SVG 1.1//EN"
 "http://www.w3.org/Graphics/SVG/1.1/DTD/svg11.dtd">
<!-- Generated by graphviz version 2.43.0 (0)
 -->
<!-- Title: MCHap Pages: 1 -->
<svg width="499pt" height="492pt"
 viewBox="0.00 0.00 499.00 492.00" xmlns="http://www.w3.org/2000/svg" xmlns:xlink="http://www.w3.org/1999/xlink">
<g id="graph0" class="graph" transform="scale(1 1) rotate(0) translate(4 488)">
<title>MCHap</title>
<polygon fill="white" stroke="transparent" points="-4,4 -4,-488 495,-488 495,4 -4,4"/>
<g id="clust1" class="cluster">
<title>cluster_0</title>
<polygon fill="white" stroke="black" points="115,-152 115,-348 483,-348 483,-152 115,-152"/>
</g>
<g id="clust2" class="cluster">
<title>cluster_1</title>
<polygon fill="white" stroke="black" stroke-dasharray="5,2" points="8,-8 8,-60 388,-60 388,-8 8,-8"/>
</g>
<!-- SCATTER_0_VARIABLE_bed_chunk -->
<g id="node1" class="node">
<title>SCATTER_0_VARIABLE_bed_chunk</title>
<polygon fill="none" stroke="black" points="475.23,-322 387.11,-340 210.89,-340 122.77,-322 210.89,-304 387.11,-304 475.23,-322"/>
<text text-anchor="middle" x="299" y="-318.3" font-family="Times,serif" font-size="14.00">scatter over File as bed_chunk</text>
</g>
<!-- CALL_OneMCHap -->
<g id="node2" class="node">
<title>CALL_OneMCHap</title>
<ellipse fill="none" stroke="black" cx="299" cy="-250" rx="83.39" ry="18"/>
<text text-anchor="middle" x="299" y="-246.3" font-family="Times,serif" font-size="14.00">call OneMCHap</text>
</g>
<!-- SCATTER_0_VARIABLE_bed_chunk&#45;&gt;CALL_OneMCHap -->
<g id="edge1" class="edge">
<title>SCATTER_0_VARIABLE_bed_chunk&#45;&gt;CALL_OneMCHap</title>
<path fill="none" stroke="black" d="M299,-303.7C299,-295.98 299,-286.71 299,-278.11"/>
<polygon fill="black" stroke="black" points="302.5,-278.1 299,-268.1 295.5,-278.1 302.5,-278.1"/>
</g>
<!-- CALL_OneMCHap_recall -->
<g id="node5" class="node">
<title>CALL_OneMCHap_recall</title>
<ellipse fill="none" stroke="black" cx="299" cy="-178" rx="113.98" ry="18"/>
<text text-anchor="middle" x="299" y="-174.3" font-family="Times,serif" font-size="14.00">call OneMCHap_recall</text>
</g>
<!-- CALL_OneMCHap&#45;&gt;CALL_OneMCHap_recall -->
<g id="edge3" class="edge">
<title>CALL_OneMCHap&#45;&gt;CALL_OneMCHap_recall</title>
<path fill="none" stroke="black" d="M299,-231.7C299,-223.98 299,-214.71 299,-206.11"/>
<polygon fill="black" stroke="black" points="302.5,-206.1 299,-196.1 295.5,-206.1 302.5,-206.1"/>
</g>
<!-- CALL_mergeVCFs -->
<g id="node3" class="node">
<title>CALL_mergeVCFs</title>
<ellipse fill="none" stroke="black" cx="299" cy="-106" rx="83.69" ry="18"/>
<text text-anchor="middle" x="299" y="-102.3" font-family="Times,serif" font-size="14.00">call mergeVCFs</text>
</g>
<!-- CALL_FilterMulti -->
<g id="node4" class="node">
<title>CALL_FilterMulti</title>
<ellipse fill="none" stroke="black" cx="299" cy="-34" rx="80.69" ry="18"/>
<text text-anchor="middle" x="299" y="-30.3" font-family="Times,serif" font-size="14.00">call FilterMulti</text>
</g>
<!-- CALL_mergeVCFs&#45;&gt;CALL_FilterMulti -->
<g id="edge2" class="edge">
<title>CALL_mergeVCFs&#45;&gt;CALL_FilterMulti</title>
<path fill="none" stroke="black" d="M299,-87.7C299,-79.98 299,-70.71 299,-62.11"/>
<polygon fill="black" stroke="black" points="302.5,-62.1 299,-52.1 295.5,-62.1 302.5,-62.1"/>
</g>
<!-- CALL_OneMCHap_recall&#45;&gt;CALL_mergeVCFs -->
<g id="edge6" class="edge">
<title>CALL_OneMCHap_recall&#45;&gt;CALL_mergeVCFs</title>
<path fill="none" stroke="black" d="M299,-159.7C299,-151.98 299,-142.71 299,-134.11"/>
<polygon fill="black" stroke="black" points="302.5,-134.1 299,-124.1 295.5,-134.1 302.5,-134.1"/>
</g>
<!-- CALL_SepareChunksBed -->
<g id="node6" class="node">
<title>CALL_SepareChunksBed</title>
<ellipse fill="none" stroke="black" cx="299" cy="-394" rx="115.08" ry="18"/>
<text text-anchor="middle" x="299" y="-390.3" font-family="Times,serif" font-size="14.00">call SepareChunksBed</text>
</g>
<!-- CALL_SepareChunksBed&#45;&gt;SCATTER_0_VARIABLE_bed_chunk -->
<g id="edge4" class="edge">
<title>CALL_SepareChunksBed&#45;&gt;SCATTER_0_VARIABLE_bed_chunk</title>
<path fill="none" stroke="black" d="M299,-375.7C299,-367.98 299,-358.71 299,-350.11"/>
<polygon fill="black" stroke="black" points="302.5,-350.1 299,-340.1 295.5,-350.1 302.5,-350.1"/>
</g>
<!-- CALL_BamToBed -->
<g id="node7" class="node">
<title>CALL_BamToBed</title>
<ellipse fill="none" stroke="black" cx="299" cy="-466" rx="79.09" ry="18"/>
<text text-anchor="middle" x="299" y="-462.3" font-family="Times,serif" font-size="14.00">call BamToBed</text>
</g>
<!-- CALL_BamToBed&#45;&gt;CALL_SepareChunksBed -->
<g id="edge5" class="edge">
<title>CALL_BamToBed&#45;&gt;CALL_SepareChunksBed</title>
<path fill="none" stroke="black" d="M299,-447.7C299,-439.98 299,-430.71 299,-422.11"/>
<polygon fill="black" stroke="black" points="302.5,-422.1 299,-412.1 295.5,-422.1 302.5,-422.1"/>
</g>
<!-- CONDITIONAL_1_EXPRESSION -->
<g id="node8" class="node">
<title>CONDITIONAL_1_EXPRESSION</title>
<polygon fill="none" stroke="black" stroke-dasharray="5,2" points="200.12,-34 154.06,-52 61.94,-52 15.88,-34 61.94,-16 154.06,-16 200.12,-34"/>
<text text-anchor="middle" x="108" y="-30.3" font-family="Times,serif" font-size="14.00">if (defined(P1))</text>
</g>
</g>
</svg>
