<?xml version="1.0" encoding="UTF-8" standalone="no"?>
<!DOCTYPE svg PUBLIC "-//W3C//DTD SVG 1.1//EN"
 "http://www.w3.org/Graphics/SVG/1.1/DTD/svg11.dtd">
<!-- Generated by graphviz version 2.43.0 (0)
 -->
<!-- Title: PreprocessingReads Pages: 1 -->
<svg width="380pt" height="260pt"
 viewBox="0.00 0.00 380.00 260.00" xmlns="http://www.w3.org/2000/svg" xmlns:xlink="http://www.w3.org/1999/xlink">
<g id="graph0" class="graph" transform="scale(1 1) rotate(0) translate(4 256)">
<title>PreprocessingReads</title>
<polygon fill="white" stroke="transparent" points="-4,4 -4,-256 376,-256 376,4 -4,4"/>
<g id="clust1" class="cluster">
<title>cluster_0</title>
<polygon fill="white" stroke="black" points="8,-64 8,-188 364,-188 364,-64 8,-64"/>
</g>
<!-- CALL_RemoveAdapt -->
<g id="node1" class="node">
<title>CALL_RemoveAdapt</title>
<ellipse fill="none" stroke="black" cx="186" cy="-90" rx="94.48" ry="18"/>
<text text-anchor="middle" x="186" y="-86.3" font-family="Times,serif" font-size="14.00">call RemoveAdapt</text>
</g>
<!-- CALL_TarFiles -->
<g id="node2" class="node">
<title>CALL_TarFiles</title>
<ellipse fill="none" stroke="black" cx="186" cy="-18" rx="67.69" ry="18"/>
<text text-anchor="middle" x="186" y="-14.3" font-family="Times,serif" font-size="14.00">call TarFiles</text>
</g>
<!-- CALL_RemoveAdapt&#45;&gt;CALL_TarFiles -->
<g id="edge1" class="edge">
<title>CALL_RemoveAdapt&#45;&gt;CALL_TarFiles</title>
<path fill="none" stroke="black" d="M186,-71.7C186,-63.98 186,-54.71 186,-46.11"/>
<polygon fill="black" stroke="black" points="189.5,-46.1 186,-36.1 182.5,-46.1 189.5,-46.1"/>
</g>
<!-- CALL_ProcessRadTags -->
<g id="node3" class="node">
<title>CALL_ProcessRadTags</title>
<ellipse fill="none" stroke="black" cx="186" cy="-234" rx="105.08" ry="18"/>
<text text-anchor="middle" x="186" y="-230.3" font-family="Times,serif" font-size="14.00">call ProcessRadTags</text>
</g>
<!-- SCATTER_0_VARIABLE_sequence -->
<g id="node4" class="node">
<title>SCATTER_0_VARIABLE_sequence</title>
<polygon fill="none" stroke="black" points="355.72,-162 270.86,-180 101.14,-180 16.28,-162 101.14,-144 270.86,-144 355.72,-162"/>
<text text-anchor="middle" x="186" y="-158.3" font-family="Times,serif" font-size="14.00">scatter over File as sequence</text>
</g>
<!-- CALL_ProcessRadTags&#45;&gt;SCATTER_0_VARIABLE_sequence -->
<g id="edge2" class="edge">
<title>CALL_ProcessRadTags&#45;&gt;SCATTER_0_VARIABLE_sequence</title>
<path fill="none" stroke="black" d="M186,-215.7C186,-207.98 186,-198.71 186,-190.11"/>
<polygon fill="black" stroke="black" points="189.5,-190.1 186,-180.1 182.5,-190.1 189.5,-190.1"/>
</g>
<!-- SCATTER_0_VARIABLE_sequence&#45;&gt;CALL_RemoveAdapt -->
<g id="edge3" class="edge">
<title>SCATTER_0_VARIABLE_sequence&#45;&gt;CALL_RemoveAdapt</title>
<path fill="none" stroke="black" d="M186,-143.7C186,-135.98 186,-126.71 186,-118.11"/>
<polygon fill="black" stroke="black" points="189.5,-118.1 186,-108.1 182.5,-118.1 189.5,-118.1"/>
</g>
</g>
</svg>
