<?xml version="1.0" encoding="UTF-8" standalone="no"?>
<!DOCTYPE svg PUBLIC "-//W3C//DTD SVG 1.1//EN"
 "http://www.w3.org/Graphics/SVG/1.1/DTD/svg11.dtd">
<!-- Generated by graphviz version 2.43.0 (0)
 -->
<!-- Title: SimulatedReads Pages: 1 -->
<svg width="620pt" height="196pt"
 viewBox="0.00 0.00 620.00 196.00" xmlns="http://www.w3.org/2000/svg" xmlns:xlink="http://www.w3.org/1999/xlink">
<g id="graph0" class="graph" transform="scale(1 1) rotate(0) translate(4 192)">
<title>SimulatedReads</title>
<polygon fill="white" stroke="transparent" points="-4,4 -4,-192 616,-192 616,4 -4,4"/>
<g id="clust1" class="cluster">
<title>cluster_0</title>
<polygon fill="white" stroke="black" points="8,-64 8,-124 604,-124 604,-64 8,-64"/>
</g>
<!-- CALL_ProduceFamiliesSeeds -->
<g id="node1" class="node">
<title>CALL_ProduceFamiliesSeeds</title>
<ellipse fill="none" stroke="black" cx="457" cy="-170" rx="134.58" ry="18"/>
<text text-anchor="middle" x="457" y="-166.3" font-family="Times,serif" font-size="14.00">call ProduceFamiliesSeeds</text>
</g>
<!-- SCATTER_0_VARIABLE_seed -->
<g id="node2" class="node">
<title>SCATTER_0_VARIABLE_seed</title>
<polygon fill="none" stroke="black" points="595.68,-94 526.34,-112 387.66,-112 318.32,-94 387.66,-76 526.34,-76 595.68,-94"/>
<text text-anchor="middle" x="457" y="-90.3" font-family="Times,serif" font-size="14.00">scatter over Int as seed</text>
</g>
<!-- CALL_ProduceFamiliesSeeds&#45;&gt;SCATTER_0_VARIABLE_seed -->
<g id="edge1" class="edge">
<title>CALL_ProduceFamiliesSeeds&#45;&gt;SCATTER_0_VARIABLE_seed</title>
<path fill="none" stroke="black" d="M457,-151.84C457,-143.06 457,-132.16 457,-122.27"/>
<polygon fill="black" stroke="black" points="460.5,-122.07 457,-112.07 453.5,-122.07 460.5,-122.07"/>
</g>
<!-- CALL_SimulatedSingleFamily -->
<g id="node3" class="node">
<title>CALL_SimulatedSingleFamily</title>
<ellipse fill="none" stroke="black" cx="158" cy="-94" rx="137.58" ry="18"/>
<ellipse fill="none" stroke="black" cx="158" cy="-94" rx="141.58" ry="22"/>
<text text-anchor="middle" x="158" y="-90.3" font-family="Times,serif" font-size="14.00">call SimulatedSingleFamily</text>
</g>
<!-- CALL_JointTablesSimu -->
<g id="node4" class="node">
<title>CALL_JointTablesSimu</title>
<ellipse fill="none" stroke="black" cx="158" cy="-18" rx="104.78" ry="18"/>
<text text-anchor="middle" x="158" y="-14.3" font-family="Times,serif" font-size="14.00">call JointTablesSimu</text>
</g>
<!-- CALL_SimulatedSingleFamily&#45;&gt;CALL_JointTablesSimu -->
<g id="edge2" class="edge">
<title>CALL_SimulatedSingleFamily&#45;&gt;CALL_JointTablesSimu</title>
<path fill="none" stroke="black" d="M158,-71.99C158,-64.06 158,-54.91 158,-46.48"/>
<polygon fill="black" stroke="black" points="161.5,-46.31 158,-36.31 154.5,-46.31 161.5,-46.31"/>
</g>
</g>
</svg>
