<?xml version="1.0" encoding="UTF-8" standalone="no"?>
<!DOCTYPE svg PUBLIC "-//W3C//DTD SVG 1.1//EN"
 "http://www.w3.org/Graphics/SVG/1.1/DTD/svg11.dtd">
<!-- Generated by graphviz version 2.43.0 (0)
 -->
<!-- Title: SimulatedSingleFamily Pages: 1 -->
<svg width="1189pt" height="508pt"
 viewBox="0.00 0.00 1189.00 508.00" xmlns="http://www.w3.org/2000/svg" xmlns:xlink="http://www.w3.org/1999/xlink">
<g id="graph0" class="graph" transform="scale(1 1) rotate(0) translate(4 504)">
<title>SimulatedSingleFamily</title>
<polygon fill="white" stroke="transparent" points="-4,4 -4,-504 1185,-504 1185,4 -4,4"/>
<g id="clust1" class="cluster">
<title>cluster_0</title>
<polygon fill="white" stroke="black" stroke-dasharray="5,2" points="58,-296 58,-348 561,-348 561,-296 58,-296"/>
</g>
<g id="clust2" class="cluster">
<title>cluster_1</title>
<polygon fill="white" stroke="black" points="343,-64 343,-276 927,-276 927,-64 343,-64"/>
</g>
<!-- CALL_CreateAlignmentFromSimulation -->
<g id="node1" class="node">
<title>CALL_CreateAlignmentFromSimulation</title>
<ellipse fill="none" stroke="black" cx="907" cy="-478" rx="183.87" ry="18"/>
<ellipse fill="none" stroke="black" cx="907" cy="-478" rx="187.87" ry="22"/>
<text text-anchor="middle" x="907" y="-474.3" font-family="Times,serif" font-size="14.00">call CreateAlignmentFromSimulation</text>
</g>
<!-- CALL_truth_vcf -->
<g id="node2" class="node">
<title>CALL_truth_vcf</title>
<ellipse fill="none" stroke="black" cx="1006" cy="-250" rx="71.49" ry="18"/>
<text text-anchor="middle" x="1006" y="-246.3" font-family="Times,serif" font-size="14.00">call truth_vcf</text>
</g>
<!-- CALL_CreateAlignmentFromSimulation&#45;&gt;CALL_truth_vcf -->
<g id="edge1" class="edge">
<title>CALL_CreateAlignmentFromSimulation&#45;&gt;CALL_truth_vcf</title>
<path fill="none" stroke="black" d="M916.31,-455.74C934.48,-414.26 974.61,-322.67 994.44,-277.39"/>
<polygon fill="black" stroke="black" points="997.77,-278.52 998.57,-267.96 991.35,-275.71 997.77,-278.52"/>
</g>
<!-- CALL_SNPCallerMaps -->
<g id="node4" class="node">
<title>CALL_SNPCallerMaps</title>
<ellipse fill="none" stroke="black" cx="812" cy="-94" rx="103.19" ry="18"/>
<ellipse fill="none" stroke="black" cx="812" cy="-94" rx="107.18" ry="22"/>
<text text-anchor="middle" x="812" y="-90.3" font-family="Times,serif" font-size="14.00">call SNPCallerMaps</text>
</g>
<!-- CALL_CreateAlignmentFromSimulation&#45;&gt;CALL_SNPCallerMaps -->
<g id="edge25" class="edge">
<title>CALL_CreateAlignmentFromSimulation&#45;&gt;CALL_SNPCallerMaps</title>
<path fill="none" stroke="black" d="M1026.94,-460.97C1059.01,-452.53 1092.18,-439.65 1119,-420 1160.27,-389.76 1181,-374.17 1181,-323 1181,-323 1181,-323 1181,-249 1181,-179.03 1120.12,-182.2 1057,-152 1011.58,-130.27 957.38,-116.55 911.52,-108.04"/>
<polygon fill="black" stroke="black" points="912.03,-104.57 901.57,-106.25 910.79,-111.46 912.03,-104.57"/>
</g>
<!-- CALL_gusmapMaps -->
<g id="node7" class="node">
<title>CALL_gusmapMaps</title>
<ellipse fill="none" stroke="black" cx="591" cy="-94" rx="91.78" ry="18"/>
<ellipse fill="none" stroke="black" cx="591" cy="-94" rx="95.78" ry="22"/>
<text text-anchor="middle" x="591" y="-90.3" font-family="Times,serif" font-size="14.00">call gusmapMaps</text>
</g>
<!-- CALL_CreateAlignmentFromSimulation&#45;&gt;CALL_gusmapMaps -->
<g id="edge7" class="edge">
<title>CALL_CreateAlignmentFromSimulation&#45;&gt;CALL_gusmapMaps</title>
<path fill="none" stroke="black" d="M942.43,-456.37C1007.3,-415.81 1134.27,-321.78 1086,-232 1000.37,-72.72 874.38,-145.74 696,-116 687.41,-114.57 678.44,-112.96 669.53,-111.28"/>
<polygon fill="black" stroke="black" points="669.99,-107.8 659.51,-109.36 668.67,-114.68 669.99,-107.8"/>
</g>
<!-- CALL_GatkGenotyping -->
<g id="node8" class="node">
<title>CALL_GatkGenotyping</title>
<ellipse fill="none" stroke="black" cx="693" cy="-398" rx="105.09" ry="18"/>
<ellipse fill="none" stroke="black" cx="693" cy="-398" rx="109.08" ry="22"/>
<text text-anchor="middle" x="693" y="-394.3" font-family="Times,serif" font-size="14.00">call GatkGenotyping</text>
</g>
<!-- CALL_CreateAlignmentFromSimulation&#45;&gt;CALL_GatkGenotyping -->
<g id="edge32" class="edge">
<title>CALL_CreateAlignmentFromSimulation&#45;&gt;CALL_GatkGenotyping</title>
<path fill="none" stroke="black" d="M851.89,-456.91C821.83,-445.96 784.56,-432.37 753.67,-421.11"/>
<polygon fill="black" stroke="black" points="754.48,-417.68 743.89,-417.55 752.08,-424.26 754.48,-417.68"/>
</g>
<!-- CALL_GetMarkersPos -->
<g id="node10" class="node">
<title>CALL_GetMarkersPos</title>
<ellipse fill="none" stroke="black" cx="151" cy="-250" rx="101.28" ry="18"/>
<text text-anchor="middle" x="151" y="-246.3" font-family="Times,serif" font-size="14.00">call GetMarkersPos</text>
</g>
<!-- CALL_CreateAlignmentFromSimulation&#45;&gt;CALL_GetMarkersPos -->
<g id="edge11" class="edge">
<title>CALL_CreateAlignmentFromSimulation&#45;&gt;CALL_GetMarkersPos</title>
<path fill="none" stroke="black" d="M731.21,-470.19C605.48,-463.08 432.7,-448.72 283,-420 172.38,-398.77 107.39,-438.26 40,-348 26.17,-329.48 27.09,-315.17 40,-296 48.58,-283.27 61.44,-274.14 75.4,-267.59"/>
<polygon fill="black" stroke="black" points="76.86,-270.77 84.7,-263.65 74.13,-264.33 76.86,-270.77"/>
</g>
<!-- CALL_FreebayesGenotyping -->
<g id="node12" class="node">
<title>CALL_FreebayesGenotyping</title>
<ellipse fill="none" stroke="black" cx="428" cy="-398" rx="131.88" ry="18"/>
<ellipse fill="none" stroke="black" cx="428" cy="-398" rx="135.88" ry="22"/>
<text text-anchor="middle" x="428" y="-394.3" font-family="Times,serif" font-size="14.00">call FreebayesGenotyping</text>
</g>
<!-- CALL_CreateAlignmentFromSimulation&#45;&gt;CALL_FreebayesGenotyping -->
<g id="edge24" class="edge">
<title>CALL_CreateAlignmentFromSimulation&#45;&gt;CALL_FreebayesGenotyping</title>
<path fill="none" stroke="black" d="M801.29,-459.79C720.84,-446.69 610.73,-428.76 530.96,-415.77"/>
<polygon fill="black" stroke="black" points="531.33,-412.28 520.9,-414.13 530.21,-419.19 531.33,-412.28"/>
</g>
<!-- CALL_ScatterAt117_14 -->
<g id="node13" class="node">
<title>CALL_ScatterAt117_14</title>
<ellipse fill="none" stroke="black" cx="807" cy="-174" rx="107.78" ry="18"/>
<ellipse fill="none" stroke="black" cx="807" cy="-174" rx="111.78" ry="22"/>
<text text-anchor="middle" x="807" y="-170.3" font-family="Times,serif" font-size="14.00">call ScatterAt117_14</text>
</g>
<!-- CALL_CreateAlignmentFromSimulation&#45;&gt;CALL_ScatterAt117_14 -->
<g id="edge15" class="edge">
<title>CALL_CreateAlignmentFromSimulation&#45;&gt;CALL_ScatterAt117_14</title>
<path fill="none" stroke="black" d="M911.01,-455.94C918.36,-411.29 929.68,-305.23 888,-232 880.67,-219.13 869.11,-208.47 856.99,-199.98"/>
<polygon fill="black" stroke="black" points="858.83,-197.01 848.55,-194.46 855,-202.87 858.83,-197.01"/>
</g>
<!-- CALL_truth_vcf&#45;&gt;CALL_SNPCallerMaps -->
<g id="edge5" class="edge">
<title>CALL_truth_vcf&#45;&gt;CALL_SNPCallerMaps</title>
<path fill="none" stroke="black" d="M1008.37,-231.71C1010.28,-210.4 1010.06,-174.27 991,-152 971.84,-129.62 943.91,-115.93 915.78,-107.59"/>
<polygon fill="black" stroke="black" points="916.41,-104.14 905.84,-104.86 914.56,-110.89 916.41,-104.14"/>
</g>
<!-- CALL_truth_vcf&#45;&gt;CALL_gusmapMaps -->
<g id="edge4" class="edge">
<title>CALL_truth_vcf&#45;&gt;CALL_gusmapMaps</title>
<path fill="none" stroke="black" d="M997.56,-232.08C985.45,-209.74 960.93,-171.02 928,-152 837.64,-99.81 798.74,-134.24 696,-116 687.56,-114.5 678.74,-112.86 669.97,-111.18"/>
<polygon fill="black" stroke="black" points="670.59,-107.73 660.11,-109.27 669.26,-114.6 670.59,-107.73"/>
</g>
<!-- CALL_truth_vcf&#45;&gt;CALL_ScatterAt117_14 -->
<g id="edge30" class="edge">
<title>CALL_truth_vcf&#45;&gt;CALL_ScatterAt117_14</title>
<path fill="none" stroke="black" d="M967.63,-234.73C939.05,-224.11 899.49,-209.39 866.78,-197.23"/>
<polygon fill="black" stroke="black" points="867.91,-193.91 857.31,-193.71 865.47,-200.48 867.91,-193.91"/>
</g>
<!-- CALL_splitvcf -->
<g id="node3" class="node">
<title>CALL_splitvcf</title>
<ellipse fill="none" stroke="black" cx="573" cy="-174" rx="63.89" ry="18"/>
<text text-anchor="middle" x="573" y="-170.3" font-family="Times,serif" font-size="14.00">call splitvcf</text>
</g>
<!-- CALL_splitvcf&#45;&gt;CALL_SNPCallerMaps -->
<g id="edge2" class="edge">
<title>CALL_splitvcf&#45;&gt;CALL_SNPCallerMaps</title>
<path fill="none" stroke="black" d="M613,-159.94C649.7,-147.97 704.69,-130.02 747.57,-116.03"/>
<polygon fill="black" stroke="black" points="748.66,-119.35 757.08,-112.92 746.49,-112.7 748.66,-119.35"/>
</g>
<!-- CALL_splitvcf&#45;&gt;CALL_gusmapMaps -->
<g id="edge27" class="edge">
<title>CALL_splitvcf&#45;&gt;CALL_gusmapMaps</title>
<path fill="none" stroke="black" d="M576.99,-155.69C579.01,-146.94 581.53,-136.05 583.86,-125.92"/>
<polygon fill="black" stroke="black" points="587.28,-126.68 586.12,-116.15 580.46,-125.11 587.28,-126.68"/>
</g>
<!-- CALL_JointReportsSimu -->
<g id="node11" class="node">
<title>CALL_JointReportsSimu</title>
<ellipse fill="none" stroke="black" cx="448" cy="-18" rx="111.58" ry="18"/>
<text text-anchor="middle" x="448" y="-14.3" font-family="Times,serif" font-size="14.00">call JointReportsSimu</text>
</g>
<!-- CALL_splitvcf&#45;&gt;CALL_JointReportsSimu -->
<g id="edge12" class="edge">
<title>CALL_splitvcf&#45;&gt;CALL_JointReportsSimu</title>
<path fill="none" stroke="black" d="M534.5,-159.64C503.22,-147.93 462.74,-130.57 453,-116 439.35,-95.59 439.61,-67.01 442.37,-46.17"/>
<polygon fill="black" stroke="black" points="445.87,-46.48 443.99,-36.05 438.96,-45.38 445.87,-46.48"/>
</g>
<!-- CALL_SNPCallerMaps&#45;&gt;CALL_JointReportsSimu -->
<g id="edge20" class="edge">
<title>CALL_SNPCallerMaps&#45;&gt;CALL_JointReportsSimu</title>
<path fill="none" stroke="black" d="M748.05,-76.22C731.18,-72.01 712.94,-67.65 696,-64 642.19,-52.4 581.37,-41.34 533.44,-33.08"/>
<polygon fill="black" stroke="black" points="533.86,-29.6 523.41,-31.36 532.67,-36.5 533.86,-29.6"/>
</g>
<!-- SCATTER_1_VARIABLE_analysis -->
<g id="node5" class="node">
<title>SCATTER_1_VARIABLE_analysis</title>
<polygon fill="none" stroke="black" points="878.82,-250 756.91,-268 513.09,-268 391.18,-250 513.09,-232 756.91,-232 878.82,-250"/>
<text text-anchor="middle" x="635" y="-246.3" font-family="Times,serif" font-size="14.00">scatter over PopulationAnalysis as analysis</text>
</g>
<!-- SCATTER_1_VARIABLE_analysis&#45;&gt;CALL_splitvcf -->
<g id="edge18" class="edge">
<title>SCATTER_1_VARIABLE_analysis&#45;&gt;CALL_splitvcf</title>
<path fill="none" stroke="black" d="M620.62,-231.84C612.58,-222.24 602.43,-210.12 593.56,-199.54"/>
<polygon fill="black" stroke="black" points="596.19,-197.23 587.09,-191.81 590.83,-201.73 596.19,-197.23"/>
</g>
<!-- SCATTER_1_VARIABLE_analysis&#45;&gt;CALL_SNPCallerMaps -->
<g id="edge23" class="edge">
<title>SCATTER_1_VARIABLE_analysis&#45;&gt;CALL_SNPCallerMaps</title>
<path fill="none" stroke="black" d="M640.18,-231.77C647.35,-210.52 662.19,-174.44 686,-152 702.21,-136.72 723.23,-125.03 743.44,-116.33"/>
<polygon fill="black" stroke="black" points="745.04,-119.46 752.96,-112.42 742.38,-112.98 745.04,-119.46"/>
</g>
<!-- CALL_splitbam -->
<g id="node6" class="node">
<title>CALL_splitbam</title>
<ellipse fill="none" stroke="black" cx="421" cy="-174" rx="70.39" ry="18"/>
<text text-anchor="middle" x="421" y="-170.3" font-family="Times,serif" font-size="14.00">call splitbam</text>
</g>
<!-- SCATTER_1_VARIABLE_analysis&#45;&gt;CALL_splitbam -->
<g id="edge3" class="edge">
<title>SCATTER_1_VARIABLE_analysis&#45;&gt;CALL_splitbam</title>
<path fill="none" stroke="black" d="M585.64,-231.93C551.26,-220.04 505.57,-204.24 471.04,-192.3"/>
<polygon fill="black" stroke="black" points="471.76,-188.85 461.16,-188.89 469.47,-195.46 471.76,-188.85"/>
</g>
<!-- SCATTER_1_VARIABLE_analysis&#45;&gt;CALL_gusmapMaps -->
<g id="edge8" class="edge">
<title>SCATTER_1_VARIABLE_analysis&#45;&gt;CALL_gusmapMaps</title>
<path fill="none" stroke="black" d="M641.78,-231.85C648.59,-211.93 656.66,-178.4 646,-152 641.54,-140.95 633.8,-130.86 625.51,-122.33"/>
<polygon fill="black" stroke="black" points="627.79,-119.67 618.16,-115.26 622.94,-124.71 627.79,-119.67"/>
</g>
<!-- SCATTER_1_VARIABLE_analysis&#45;&gt;CALL_ScatterAt117_14 -->
<g id="edge31" class="edge">
<title>SCATTER_1_VARIABLE_analysis&#45;&gt;CALL_ScatterAt117_14</title>
<path fill="none" stroke="black" d="M674.89,-231.84C698.04,-221.88 727.5,-209.2 752.73,-198.35"/>
<polygon fill="black" stroke="black" points="754.37,-201.45 762.17,-194.29 751.6,-195.02 754.37,-201.45"/>
</g>
<!-- CALL_splitbam&#45;&gt;CALL_gusmapMaps -->
<g id="edge17" class="edge">
<title>CALL_splitbam&#45;&gt;CALL_gusmapMaps</title>
<path fill="none" stroke="black" d="M453.78,-157.96C478.31,-146.7 512.32,-131.1 540.34,-118.24"/>
<polygon fill="black" stroke="black" points="541.96,-121.35 549.59,-114 539.04,-114.99 541.96,-121.35"/>
</g>
<!-- CALL_gusmapMaps&#45;&gt;CALL_JointReportsSimu -->
<g id="edge10" class="edge">
<title>CALL_gusmapMaps&#45;&gt;CALL_JointReportsSimu</title>
<path fill="none" stroke="black" d="M553.43,-73.56C533.48,-63.23 508.94,-50.54 488.56,-39.99"/>
<polygon fill="black" stroke="black" points="490.01,-36.8 479.52,-35.31 486.79,-43.02 490.01,-36.8"/>
</g>
<!-- CALL_GatkGenotyping&#45;&gt;CALL_SNPCallerMaps -->
<g id="edge33" class="edge">
<title>CALL_GatkGenotyping&#45;&gt;CALL_SNPCallerMaps</title>
<path fill="none" stroke="black" d="M774.99,-383.42C878.87,-364.34 1048.89,-326.25 1086,-276 1123.99,-224.55 1067.4,-185.63 1013,-152 980.57,-131.95 940.88,-118.76 905.37,-110.17"/>
<polygon fill="black" stroke="black" points="906,-106.72 895.47,-107.86 904.42,-113.54 906,-106.72"/>
</g>
<!-- CALL_GatkGenotyping&#45;&gt;SCATTER_1_VARIABLE_analysis -->
<g id="edge29" class="edge">
<title>CALL_GatkGenotyping&#45;&gt;SCATTER_1_VARIABLE_analysis</title>
<path fill="none" stroke="black" d="M691.25,-375.98C688.86,-354.89 683.35,-321.92 671,-296 667.69,-289.05 663.11,-282.2 658.33,-276.03"/>
<polygon fill="black" stroke="black" points="660.84,-273.58 651.78,-268.09 655.44,-278.04 660.84,-273.58"/>
</g>
<!-- CALL_ApplyRandomFilters -->
<g id="node9" class="node">
<title>CALL_ApplyRandomFilters</title>
<ellipse fill="none" stroke="black" cx="428" cy="-322" rx="124.58" ry="18"/>
<text text-anchor="middle" x="428" y="-318.3" font-family="Times,serif" font-size="14.00">call ApplyRandomFilters</text>
</g>
<!-- CALL_GatkGenotyping&#45;&gt;CALL_ApplyRandomFilters -->
<g id="edge6" class="edge">
<title>CALL_GatkGenotyping&#45;&gt;CALL_ApplyRandomFilters</title>
<path fill="none" stroke="black" d="M631.2,-379.74C589.58,-368.12 534.78,-352.82 492.58,-341.03"/>
<polygon fill="black" stroke="black" points="493.26,-337.59 482.69,-338.27 491.38,-344.33 493.26,-337.59"/>
</g>
<!-- CALL_GatkGenotyping&#45;&gt;CALL_GetMarkersPos -->
<g id="edge9" class="edge">
<title>CALL_GatkGenotyping&#45;&gt;CALL_GetMarkersPos</title>
<path fill="none" stroke="black" d="M649.99,-377.55C634.89,-369.59 618.38,-359.53 605,-348 582.92,-328.96 590.63,-309.89 565,-296 515.03,-268.91 366.45,-282.64 310,-276 284.03,-272.94 255.8,-268.78 230.43,-264.73"/>
<polygon fill="black" stroke="black" points="230.93,-261.27 220.5,-263.13 229.81,-268.18 230.93,-261.27"/>
</g>
<!-- CALL_GatkGenotyping&#45;&gt;CALL_JointReportsSimu -->
<g id="edge19" class="edge">
<title>CALL_GatkGenotyping&#45;&gt;CALL_JointReportsSimu</title>
<path fill="none" stroke="black" d="M680.45,-376.02C664.75,-351.96 635.47,-313.57 599,-296 546.8,-270.85 378.37,-318.52 339,-276 274.98,-206.87 286.61,-142.31 339,-64 347.09,-51.9 359.1,-43.05 372.22,-36.58"/>
<polygon fill="black" stroke="black" points="373.73,-39.74 381.44,-32.47 370.88,-33.34 373.73,-39.74"/>
</g>
<!-- CALL_ApplyRandomFilters&#45;&gt;SCATTER_1_VARIABLE_analysis -->
<g id="edge16" class="edge">
<title>CALL_ApplyRandomFilters&#45;&gt;SCATTER_1_VARIABLE_analysis</title>
<path fill="none" stroke="black" d="M474.45,-305.29C504.16,-295.24 542.99,-282.12 575.01,-271.28"/>
<polygon fill="black" stroke="black" points="576.37,-274.52 584.72,-268 574.12,-267.89 576.37,-274.52"/>
</g>
<!-- CALL_ApplyRandomFilters&#45;&gt;CALL_GetMarkersPos -->
<g id="edge28" class="edge">
<title>CALL_ApplyRandomFilters&#45;&gt;CALL_GetMarkersPos</title>
<path fill="none" stroke="black" d="M368.92,-306.07C324.21,-294.77 262.83,-279.26 216.61,-267.58"/>
<polygon fill="black" stroke="black" points="217.24,-264.13 206.69,-265.07 215.53,-270.92 217.24,-264.13"/>
</g>
<!-- CALL_FreebayesGenotyping&#45;&gt;SCATTER_1_VARIABLE_analysis -->
<g id="edge26" class="edge">
<title>CALL_FreebayesGenotyping&#45;&gt;SCATTER_1_VARIABLE_analysis</title>
<path fill="none" stroke="black" d="M502.12,-379.51C523.75,-372.11 546.52,-361.89 565,-348 590.02,-329.2 609.84,-298.92 621.91,-277.19"/>
<polygon fill="black" stroke="black" points="625.11,-278.64 626.75,-268.17 618.94,-275.32 625.11,-278.64"/>
</g>
<!-- CALL_FreebayesGenotyping&#45;&gt;CALL_ApplyRandomFilters -->
<g id="edge14" class="edge">
<title>CALL_FreebayesGenotyping&#45;&gt;CALL_ApplyRandomFilters</title>
<path fill="none" stroke="black" d="M428,-375.99C428,-368.06 428,-358.91 428,-350.48"/>
<polygon fill="black" stroke="black" points="431.5,-350.31 428,-340.31 424.5,-350.31 431.5,-350.31"/>
</g>
<!-- CALL_FreebayesGenotyping&#45;&gt;CALL_GetMarkersPos -->
<g id="edge13" class="edge">
<title>CALL_FreebayesGenotyping&#45;&gt;CALL_GetMarkersPos</title>
<path fill="none" stroke="black" d="M304.11,-388.81C201.74,-380.74 70.58,-366.89 54,-348 38.76,-330.63 41.56,-315.48 54,-296 61.44,-284.35 72.75,-275.68 85.05,-269.22"/>
<polygon fill="black" stroke="black" points="86.61,-272.36 94.15,-264.91 83.61,-266.03 86.61,-272.36"/>
</g>
<!-- CALL_FreebayesGenotyping&#45;&gt;CALL_JointReportsSimu -->
<g id="edge22" class="edge">
<title>CALL_FreebayesGenotyping&#45;&gt;CALL_JointReportsSimu</title>
<path fill="none" stroke="black" d="M293.98,-394.19C197.98,-389.6 79.04,-377.84 40,-348 2.95,-319.68 0,-297.63 0,-251 0,-251 0,-251 0,-173 0,-98.55 224.04,-52.39 355.25,-31.73"/>
<polygon fill="black" stroke="black" points="355.96,-35.16 365.31,-30.17 354.89,-28.25 355.96,-35.16"/>
</g>
<!-- CALL_ScatterAt117_14&#45;&gt;CALL_JointReportsSimu -->
<g id="edge21" class="edge">
<title>CALL_ScatterAt117_14&#45;&gt;CALL_JointReportsSimu</title>
<path fill="none" stroke="black" d="M715.3,-161.35C626.8,-149.38 503.67,-130.49 486,-116 465.08,-98.86 455.64,-68.65 451.4,-46.48"/>
<polygon fill="black" stroke="black" points="454.8,-45.63 449.71,-36.34 447.9,-46.78 454.8,-45.63"/>
</g>
<!-- CONDITIONAL_0_EXPRESSION -->
<g id="node14" class="node">
<title>CONDITIONAL_0_EXPRESSION</title>
<polygon fill="none" stroke="black" stroke-dasharray="5,2" points="285.64,-322 230.82,-340 121.18,-340 66.36,-322 121.18,-304 230.82,-304 285.64,-322"/>
<text text-anchor="middle" x="176" y="-318.3" font-family="Times,serif" font-size="14.00">if (defined(filters))</text>
</g>
</g>
</svg>
