<?xml version="1.0" encoding="UTF-8" standalone="no"?>
<!DOCTYPE svg PUBLIC "-//W3C//DTD SVG 1.1//EN"
 "http://www.w3.org/Graphics/SVG/1.1/DTD/svg11.dtd">
<!-- Generated by graphviz version 2.43.0 (0)
 -->
<!-- Title: SNPCallerMapsEmp Pages: 1 -->
<svg width="652pt" height="420pt"
 viewBox="0.00 0.00 652.00 420.00" xmlns="http://www.w3.org/2000/svg" xmlns:xlink="http://www.w3.org/1999/xlink">
<g id="graph0" class="graph" transform="scale(1 1) rotate(0) translate(4 416)">
<title>SNPCallerMapsEmp</title>
<polygon fill="white" stroke="transparent" points="-4,4 -4,-416 648,-416 648,4 -4,4"/>
<g id="clust1" class="cluster">
<title>cluster_0</title>
<polygon fill="white" stroke="black" stroke-dasharray="5,2" points="8,-352 8,-404 563,-404 563,-352 8,-352"/>
</g>
<g id="clust2" class="cluster">
<title>cluster_1</title>
<polygon fill="white" stroke="black" points="172,-64 172,-260 636,-260 636,-64 172,-64"/>
</g>
<!-- SCATTER_1_VARIABLE_item -->
<g id="node1" class="node">
<title>SCATTER_1_VARIABLE_item</title>
<polygon fill="none" stroke="black" points="606.28,-234 499.64,-252 286.36,-252 179.72,-234 286.36,-216 499.64,-216 606.28,-234"/>
<text text-anchor="middle" x="393" y="-230.3" font-family="Times,serif" font-size="14.00">scatter over Pair[String, File] as item</text>
</g>
<!-- CALL_MapsReportEmp -->
<g id="node2" class="node">
<title>CALL_MapsReportEmp</title>
<ellipse fill="none" stroke="black" cx="301" cy="-90" rx="108.58" ry="18"/>
<text text-anchor="middle" x="301" y="-86.3" font-family="Times,serif" font-size="14.00">call MapsReportEmp</text>
</g>
<!-- SCATTER_1_VARIABLE_item&#45;&gt;CALL_MapsReportEmp -->
<g id="edge1" class="edge">
<title>SCATTER_1_VARIABLE_item&#45;&gt;CALL_MapsReportEmp</title>
<path fill="none" stroke="black" d="M283.27,-216.47C242.54,-207.9 203.24,-195.86 191,-180 181.23,-167.33 182.49,-157.55 191,-144 200.85,-128.32 216.78,-117.18 233.49,-109.29"/>
<polygon fill="black" stroke="black" points="235.05,-112.43 242.83,-105.24 232.26,-106.01 235.05,-112.43"/>
</g>
<!-- CALL_FiltersReportEmp -->
<g id="node3" class="node">
<title>CALL_FiltersReportEmp</title>
<ellipse fill="none" stroke="black" cx="314" cy="-162" rx="113.98" ry="18"/>
<text text-anchor="middle" x="314" y="-158.3" font-family="Times,serif" font-size="14.00">call FiltersReportEmp</text>
</g>
<!-- SCATTER_1_VARIABLE_item&#45;&gt;CALL_FiltersReportEmp -->
<g id="edge7" class="edge">
<title>SCATTER_1_VARIABLE_item&#45;&gt;CALL_FiltersReportEmp</title>
<path fill="none" stroke="black" d="M373.47,-215.7C363.54,-206.9 351.33,-196.08 340.56,-186.54"/>
<polygon fill="black" stroke="black" points="342.84,-183.88 333.03,-179.86 338.19,-189.11 342.84,-183.88"/>
</g>
<!-- CALL_CheckDepths -->
<g id="node6" class="node">
<title>CALL_CheckDepths</title>
<ellipse fill="none" stroke="black" cx="537" cy="-162" rx="90.98" ry="18"/>
<text text-anchor="middle" x="537" y="-158.3" font-family="Times,serif" font-size="14.00">call CheckDepths</text>
</g>
<!-- SCATTER_1_VARIABLE_item&#45;&gt;CALL_CheckDepths -->
<g id="edge5" class="edge">
<title>SCATTER_1_VARIABLE_item&#45;&gt;CALL_CheckDepths</title>
<path fill="none" stroke="black" d="M428.23,-215.88C448.39,-206.07 473.81,-193.72 495.01,-183.41"/>
<polygon fill="black" stroke="black" points="496.65,-186.51 504.11,-178.99 493.59,-180.21 496.65,-186.51"/>
</g>
<!-- CALL_Compress -->
<g id="node7" class="node">
<title>CALL_Compress</title>
<ellipse fill="none" stroke="black" cx="438" cy="-18" rx="76.09" ry="18"/>
<text text-anchor="middle" x="438" y="-14.3" font-family="Times,serif" font-size="14.00">call Compress</text>
</g>
<!-- CALL_MapsReportEmp&#45;&gt;CALL_Compress -->
<g id="edge6" class="edge">
<title>CALL_MapsReportEmp&#45;&gt;CALL_Compress</title>
<path fill="none" stroke="black" d="M332.77,-72.76C352.33,-62.77 377.55,-49.88 398.4,-39.23"/>
<polygon fill="black" stroke="black" points="400.03,-42.33 407.34,-34.67 396.84,-36.1 400.03,-42.33"/>
</g>
<!-- CALL_FiltersReportEmp&#45;&gt;CALL_MapsReportEmp -->
<g id="edge2" class="edge">
<title>CALL_FiltersReportEmp&#45;&gt;CALL_MapsReportEmp</title>
<path fill="none" stroke="black" d="M310.79,-143.7C309.35,-135.98 307.63,-126.71 306.04,-118.11"/>
<polygon fill="black" stroke="black" points="309.44,-117.3 304.18,-108.1 302.56,-118.58 309.44,-117.3"/>
</g>
<!-- CALL_FiltersReportEmp&#45;&gt;CALL_Compress -->
<g id="edge10" class="edge">
<title>CALL_FiltersReportEmp&#45;&gt;CALL_Compress</title>
<path fill="none" stroke="black" d="M365.2,-145.85C384.74,-137.63 405.53,-125.46 419,-108 432.53,-90.45 436.94,-65.42 438.16,-46.37"/>
<polygon fill="black" stroke="black" points="441.66,-46.34 438.55,-36.21 434.67,-46.07 441.66,-46.34"/>
</g>
<!-- CALL_SetProbsDefault -->
<g id="node4" class="node">
<title>CALL_SetProbsDefault</title>
<ellipse fill="none" stroke="black" cx="465" cy="-306" rx="106.68" ry="18"/>
<text text-anchor="middle" x="465" y="-302.3" font-family="Times,serif" font-size="14.00">call SetProbsDefault</text>
</g>
<!-- CALL_SetProbsDefault&#45;&gt;SCATTER_1_VARIABLE_item -->
<g id="edge3" class="edge">
<title>CALL_SetProbsDefault&#45;&gt;SCATTER_1_VARIABLE_item</title>
<path fill="none" stroke="black" d="M447.57,-288.05C438.62,-279.35 427.55,-268.59 417.73,-259.04"/>
<polygon fill="black" stroke="black" points="420.13,-256.49 410.52,-252.03 415.25,-261.51 420.13,-256.49"/>
</g>
<!-- CALL_SetProbsDefault&#45;&gt;CALL_CheckDepths -->
<g id="edge9" class="edge">
<title>CALL_SetProbsDefault&#45;&gt;CALL_CheckDepths</title>
<path fill="none" stroke="black" d="M556.73,-296.76C579.28,-290.12 600.96,-278.87 615,-260 626.67,-244.31 624.15,-233.28 615,-216 607.9,-202.6 595.73,-191.96 583.09,-183.83"/>
<polygon fill="black" stroke="black" points="584.69,-180.72 574.31,-178.61 581.11,-186.73 584.69,-180.72"/>
</g>
<!-- CALL_JointMarkers -->
<g id="node5" class="node">
<title>CALL_JointMarkers</title>
<ellipse fill="none" stroke="black" cx="465" cy="-378" rx="90.18" ry="18"/>
<text text-anchor="middle" x="465" y="-374.3" font-family="Times,serif" font-size="14.00">call JointMarkers</text>
</g>
<!-- CALL_JointMarkers&#45;&gt;CALL_SetProbsDefault -->
<g id="edge4" class="edge">
<title>CALL_JointMarkers&#45;&gt;CALL_SetProbsDefault</title>
<path fill="none" stroke="black" d="M465,-359.7C465,-351.98 465,-342.71 465,-334.11"/>
<polygon fill="black" stroke="black" points="468.5,-334.1 465,-324.1 461.5,-334.1 468.5,-334.1"/>
</g>
<!-- CALL_CheckDepths&#45;&gt;CALL_Compress -->
<g id="edge8" class="edge">
<title>CALL_CheckDepths&#45;&gt;CALL_Compress</title>
<path fill="none" stroke="black" d="M525.06,-143.87C507.81,-119.14 475.82,-73.24 455.79,-44.51"/>
<polygon fill="black" stroke="black" points="458.57,-42.39 449.98,-36.19 452.83,-46.39 458.57,-42.39"/>
</g>
<!-- CONDITIONAL_0_EXPRESSION -->
<g id="node8" class="node">
<title>CONDITIONAL_0_EXPRESSION</title>
<polygon fill="none" stroke="black" stroke-dasharray="5,2" points="356.22,-378 271.11,-396 100.89,-396 15.78,-378 100.89,-360 271.11,-360 356.22,-378"/>
<text text-anchor="middle" x="186" y="-374.3" font-family="Times,serif" font-size="14.00">if ((multiallelics == &quot;TRUE&quot;))</text>
</g>
</g>
</svg>
