<?xml version="1.0" encoding="UTF-8" standalone="no"?>
<!DOCTYPE svg PUBLIC "-//W3C//DTD SVG 1.1//EN"
 "http://www.w3.org/Graphics/SVG/1.1/DTD/svg11.dtd">
<!-- Generated by graphviz version 2.43.0 (0)
 -->
<!-- Title: SNPCallerMaps Pages: 1 -->
<svg width="642pt" height="420pt"
 viewBox="0.00 0.00 642.33 420.00" xmlns="http://www.w3.org/2000/svg" xmlns:xlink="http://www.w3.org/1999/xlink">
<g id="graph0" class="graph" transform="scale(1 1) rotate(0) translate(4 416)">
<title>SNPCallerMaps</title>
<polygon fill="white" stroke="transparent" points="-4,4 -4,-416 638.33,-416 638.33,4 -4,4"/>
<g id="clust1" class="cluster">
<title>cluster_0</title>
<polygon fill="white" stroke="black" stroke-dasharray="5,2" points="8,-352 8,-404 563,-404 563,-352 8,-352"/>
</g>
<g id="clust2" class="cluster">
<title>cluster_1</title>
<polygon fill="white" stroke="black" points="183,-64 183,-260 625,-260 625,-64 183,-64"/>
</g>
<!-- CALL_SetProbsDefault -->
<g id="node1" class="node">
<title>CALL_SetProbsDefault</title>
<ellipse fill="none" stroke="black" cx="465" cy="-306" rx="106.68" ry="18"/>
<text text-anchor="middle" x="465" y="-302.3" font-family="Times,serif" font-size="14.00">call SetProbsDefault</text>
</g>
<!-- SCATTER_1_VARIABLE_item -->
<g id="node2" class="node">
<title>SCATTER_1_VARIABLE_item</title>
<polygon fill="none" stroke="black" points="617.28,-234 510.64,-252 297.36,-252 190.72,-234 297.36,-216 510.64,-216 617.28,-234"/>
<text text-anchor="middle" x="404" y="-230.3" font-family="Times,serif" font-size="14.00">scatter over Pair[String, File] as item</text>
</g>
<!-- CALL_SetProbsDefault&#45;&gt;SCATTER_1_VARIABLE_item -->
<g id="edge1" class="edge">
<title>CALL_SetProbsDefault&#45;&gt;SCATTER_1_VARIABLE_item</title>
<path fill="none" stroke="black" d="M450.23,-288.05C442.85,-279.58 433.77,-269.17 425.62,-259.82"/>
<polygon fill="black" stroke="black" points="428.26,-257.51 419.05,-252.28 422.99,-262.11 428.26,-257.51"/>
</g>
<!-- CALL_ErrorsReport -->
<g id="node6" class="node">
<title>CALL_ErrorsReport</title>
<ellipse fill="none" stroke="black" cx="525" cy="-162" rx="91.78" ry="18"/>
<text text-anchor="middle" x="525" y="-158.3" font-family="Times,serif" font-size="14.00">call ErrorsReport</text>
</g>
<!-- CALL_SetProbsDefault&#45;&gt;CALL_ErrorsReport -->
<g id="edge9" class="edge">
<title>CALL_SetProbsDefault&#45;&gt;CALL_ErrorsReport</title>
<path fill="none" stroke="black" d="M539.72,-293.06C576.39,-285.52 615.04,-274.45 626,-260 637.82,-244.42 636.12,-232.73 626,-216 616.66,-200.56 601.18,-189.4 585.11,-181.42"/>
<polygon fill="black" stroke="black" points="586.17,-178.06 575.62,-177.09 583.26,-184.42 586.17,-178.06"/>
</g>
<!-- CALL_FiltersReport -->
<g id="node3" class="node">
<title>CALL_FiltersReport</title>
<ellipse fill="none" stroke="black" cx="323" cy="-162" rx="92.08" ry="18"/>
<text text-anchor="middle" x="323" y="-158.3" font-family="Times,serif" font-size="14.00">call FiltersReport</text>
</g>
<!-- SCATTER_1_VARIABLE_item&#45;&gt;CALL_FiltersReport -->
<g id="edge2" class="edge">
<title>SCATTER_1_VARIABLE_item&#45;&gt;CALL_FiltersReport</title>
<path fill="none" stroke="black" d="M383.98,-215.7C373.72,-206.84 361.09,-195.92 349.99,-186.33"/>
<polygon fill="black" stroke="black" points="352.09,-183.51 342.23,-179.62 347.51,-188.81 352.09,-183.51"/>
</g>
<!-- CALL_MapsReport -->
<g id="node5" class="node">
<title>CALL_MapsReport</title>
<ellipse fill="none" stroke="black" cx="300" cy="-90" rx="87.18" ry="18"/>
<text text-anchor="middle" x="300" y="-86.3" font-family="Times,serif" font-size="14.00">call MapsReport</text>
</g>
<!-- SCATTER_1_VARIABLE_item&#45;&gt;CALL_MapsReport -->
<g id="edge10" class="edge">
<title>SCATTER_1_VARIABLE_item&#45;&gt;CALL_MapsReport</title>
<path fill="none" stroke="black" d="M308.02,-215.9C270.25,-207.05 233.21,-194.94 222,-180 212.4,-167.2 214.51,-158.14 222,-144 229.16,-130.48 241.48,-119.77 254.25,-111.62"/>
<polygon fill="black" stroke="black" points="256.27,-114.49 263.1,-106.38 252.71,-108.46 256.27,-114.49"/>
</g>
<!-- SCATTER_1_VARIABLE_item&#45;&gt;CALL_ErrorsReport -->
<g id="edge7" class="edge">
<title>SCATTER_1_VARIABLE_item&#45;&gt;CALL_ErrorsReport</title>
<path fill="none" stroke="black" d="M433.6,-215.88C450.04,-206.36 470.65,-194.44 488.13,-184.33"/>
<polygon fill="black" stroke="black" points="490.05,-187.26 496.95,-179.23 486.54,-181.2 490.05,-187.26"/>
</g>
<!-- CALL_Compress -->
<g id="node4" class="node">
<title>CALL_Compress</title>
<ellipse fill="none" stroke="black" cx="415" cy="-18" rx="76.09" ry="18"/>
<text text-anchor="middle" x="415" y="-14.3" font-family="Times,serif" font-size="14.00">call Compress</text>
</g>
<!-- CALL_FiltersReport&#45;&gt;CALL_Compress -->
<g id="edge3" class="edge">
<title>CALL_FiltersReport&#45;&gt;CALL_Compress</title>
<path fill="none" stroke="black" d="M354.99,-144.91C369.63,-135.96 385.93,-123.49 396,-108 407.95,-89.62 412.53,-65.02 414.22,-46.34"/>
<polygon fill="black" stroke="black" points="417.72,-46.33 414.91,-36.11 410.74,-45.85 417.72,-46.33"/>
</g>
<!-- CALL_FiltersReport&#45;&gt;CALL_MapsReport -->
<g id="edge6" class="edge">
<title>CALL_FiltersReport&#45;&gt;CALL_MapsReport</title>
<path fill="none" stroke="black" d="M317.31,-143.7C314.75,-135.9 311.67,-126.51 308.82,-117.83"/>
<polygon fill="black" stroke="black" points="312.07,-116.51 305.62,-108.1 305.42,-118.7 312.07,-116.51"/>
</g>
<!-- CALL_MapsReport&#45;&gt;CALL_Compress -->
<g id="edge4" class="edge">
<title>CALL_MapsReport&#45;&gt;CALL_Compress</title>
<path fill="none" stroke="black" d="M326.67,-72.76C342.61,-63.07 363.02,-50.64 380.21,-40.17"/>
<polygon fill="black" stroke="black" points="382.15,-43.1 388.87,-34.91 378.51,-37.12 382.15,-43.1"/>
</g>
<!-- CALL_ErrorsReport&#45;&gt;CALL_Compress -->
<g id="edge5" class="edge">
<title>CALL_ErrorsReport&#45;&gt;CALL_Compress</title>
<path fill="none" stroke="black" d="M511.95,-144.15C492.68,-119.28 456.5,-72.57 434.2,-43.79"/>
<polygon fill="black" stroke="black" points="436.92,-41.59 428.03,-35.82 431.39,-45.87 436.92,-41.59"/>
</g>
<!-- CALL_JointMarkers -->
<g id="node7" class="node">
<title>CALL_JointMarkers</title>
<ellipse fill="none" stroke="black" cx="465" cy="-378" rx="90.18" ry="18"/>
<text text-anchor="middle" x="465" y="-374.3" font-family="Times,serif" font-size="14.00">call JointMarkers</text>
</g>
<!-- CALL_JointMarkers&#45;&gt;CALL_SetProbsDefault -->
<g id="edge8" class="edge">
<title>CALL_JointMarkers&#45;&gt;CALL_SetProbsDefault</title>
<path fill="none" stroke="black" d="M465,-359.7C465,-351.98 465,-342.71 465,-334.11"/>
<polygon fill="black" stroke="black" points="468.5,-334.1 465,-324.1 461.5,-334.1 468.5,-334.1"/>
</g>
<!-- CONDITIONAL_0_EXPRESSION -->
<g id="node8" class="node">
<title>CONDITIONAL_0_EXPRESSION</title>
<polygon fill="none" stroke="black" stroke-dasharray="5,2" points="356.22,-378 271.11,-396 100.89,-396 15.78,-378 100.89,-360 271.11,-360 356.22,-378"/>
<text text-anchor="middle" x="186" y="-374.3" font-family="Times,serif" font-size="14.00">if ((multiallelics == &quot;TRUE&quot;))</text>
</g>
</g>
</svg>
