<?xml version="1.0" encoding="UTF-8" standalone="no"?>
<!DOCTYPE svg PUBLIC "-//W3C//DTD SVG 1.1//EN"
 "http://www.w3.org/Graphics/SVG/1.1/DTD/svg11.dtd">
<!-- Generated by graphviz version 2.43.0 (0)
 -->
<!-- Title: StacksGenotyping Pages: 1 -->
<svg width="568pt" height="132pt"
 viewBox="0.00 0.00 568.00 132.00" xmlns="http://www.w3.org/2000/svg" xmlns:xlink="http://www.w3.org/1999/xlink">
<g id="graph0" class="graph" transform="scale(1 1) rotate(0) translate(4 128)">
<title>StacksGenotyping</title>
<polygon fill="white" stroke="transparent" points="-4,4 -4,-128 564,-128 564,4 -4,4"/>
<g id="clust1" class="cluster">
<title>cluster_0</title>
<polygon fill="white" stroke="black" stroke-dasharray="5,2" points="8,-64 8,-116 552,-116 552,-64 8,-64"/>
</g>
<!-- CALL_CreatePopMapFile -->
<g id="node1" class="node">
<title>CALL_CreatePopMapFile</title>
<ellipse fill="none" stroke="black" cx="428" cy="-90" rx="116.18" ry="18"/>
<text text-anchor="middle" x="428" y="-86.3" font-family="Times,serif" font-size="14.00">call CreatePopMapFile</text>
</g>
<!-- CALL_RefMap -->
<g id="node2" class="node">
<title>CALL_RefMap</title>
<ellipse fill="none" stroke="black" cx="428" cy="-18" rx="65.79" ry="18"/>
<text text-anchor="middle" x="428" y="-14.3" font-family="Times,serif" font-size="14.00">call RefMap</text>
</g>
<!-- CALL_CreatePopMapFile&#45;&gt;CALL_RefMap -->
<g id="edge1" class="edge">
<title>CALL_CreatePopMapFile&#45;&gt;CALL_RefMap</title>
<path fill="none" stroke="black" d="M428,-71.7C428,-63.98 428,-54.71 428,-46.11"/>
<polygon fill="black" stroke="black" points="431.5,-46.1 428,-36.1 424.5,-46.1 431.5,-46.1"/>
</g>
<!-- CONDITIONAL_0_EXPRESSION -->
<g id="node3" class="node">
<title>CONDITIONAL_0_EXPRESSION</title>
<polygon fill="none" stroke="black" stroke-dasharray="5,2" points="293.68,-90 224.34,-108 85.66,-108 16.32,-90 85.66,-72 224.34,-72 293.68,-90"/>
<text text-anchor="middle" x="155" y="-86.3" font-family="Times,serif" font-size="14.00">if (!(defined(pop_map)))</text>
</g>
</g>
</svg>
