<?xml version="1.0" encoding="UTF-8" standalone="no"?>
<!DOCTYPE svg PUBLIC "-//W3C//DTD SVG 1.1//EN"
 "http://www.w3.org/Graphics/SVG/1.1/DTD/svg11.dtd">
<!-- Generated by graphviz version 2.43.0 (0)
 -->
<!-- Title: TasselGenotyping Pages: 1 -->
<svg width="374pt" height="332pt"
 viewBox="0.00 0.00 374.28 332.00" xmlns="http://www.w3.org/2000/svg" xmlns:xlink="http://www.w3.org/1999/xlink">
<g id="graph0" class="graph" transform="scale(1 1) rotate(0) translate(4 328)">
<title>TasselGenotyping</title>
<polygon fill="white" stroke="transparent" points="-4,4 -4,-328 370.28,-328 370.28,4 -4,4"/>
<!-- CALL_BarcodeFaker -->
<g id="node1" class="node">
<title>CALL_BarcodeFaker</title>
<ellipse fill="none" stroke="black" cx="137.94" cy="-234" rx="94.48" ry="18"/>
<text text-anchor="middle" x="137.94" y="-230.3" font-family="Times,serif" font-size="14.00">call BarcodeFaker</text>
</g>
<!-- CALL_TasselAfterAlign -->
<g id="node2" class="node">
<title>CALL_TasselAfterAlign</title>
<ellipse fill="none" stroke="black" cx="105.94" cy="-18" rx="105.88" ry="18"/>
<text text-anchor="middle" x="105.94" y="-14.3" font-family="Times,serif" font-size="14.00">call TasselAfterAlign</text>
</g>
<!-- CALL_BarcodeFaker&#45;&gt;CALL_TasselAfterAlign -->
<g id="edge1" class="edge">
<title>CALL_BarcodeFaker&#45;&gt;CALL_TasselAfterAlign</title>
<path fill="none" stroke="black" d="M115.44,-216.52C104.62,-207.16 92.76,-194.45 86.94,-180 69,-135.48 83.39,-78.82 95,-45.96"/>
<polygon fill="black" stroke="black" points="98.44,-46.77 98.63,-36.17 91.88,-44.33 98.44,-46.77"/>
</g>
<!-- CALL_TasselBeforeAlign -->
<g id="node3" class="node">
<title>CALL_TasselBeforeAlign</title>
<ellipse fill="none" stroke="black" cx="208.94" cy="-162" rx="113.18" ry="18"/>
<text text-anchor="middle" x="208.94" y="-158.3" font-family="Times,serif" font-size="14.00">call TasselBeforeAlign</text>
</g>
<!-- CALL_BarcodeFaker&#45;&gt;CALL_TasselBeforeAlign -->
<g id="edge4" class="edge">
<title>CALL_BarcodeFaker&#45;&gt;CALL_TasselBeforeAlign</title>
<path fill="none" stroke="black" d="M155.13,-216.05C163.81,-207.5 174.5,-196.96 184.05,-187.54"/>
<polygon fill="black" stroke="black" points="186.75,-189.79 191.42,-180.28 181.84,-184.8 186.75,-189.79"/>
</g>
<!-- CALL_TasselBeforeAlign&#45;&gt;CALL_TasselAfterAlign -->
<g id="edge3" class="edge">
<title>CALL_TasselBeforeAlign&#45;&gt;CALL_TasselAfterAlign</title>
<path fill="none" stroke="black" d="M170.46,-145.05C154.08,-136.4 136.19,-124.12 124.94,-108 112.34,-89.93 107.83,-65.15 106.33,-46.32"/>
<polygon fill="black" stroke="black" points="109.82,-46.08 105.77,-36.29 102.83,-46.47 109.82,-46.08"/>
</g>
<!-- CALL_RunBwaAlignment -->
<g id="node4" class="node">
<title>CALL_RunBwaAlignment</title>
<ellipse fill="none" stroke="black" cx="249.94" cy="-90" rx="116.18" ry="18"/>
<text text-anchor="middle" x="249.94" y="-86.3" font-family="Times,serif" font-size="14.00">call RunBwaAlignment</text>
</g>
<!-- CALL_TasselBeforeAlign&#45;&gt;CALL_RunBwaAlignment -->
<g id="edge2" class="edge">
<title>CALL_TasselBeforeAlign&#45;&gt;CALL_RunBwaAlignment</title>
<path fill="none" stroke="black" d="M218.87,-144.05C223.63,-135.92 229.44,-126 234.75,-116.94"/>
<polygon fill="black" stroke="black" points="237.79,-118.67 239.82,-108.28 231.75,-115.14 237.79,-118.67"/>
</g>
<!-- CALL_RunBwaAlignment&#45;&gt;CALL_TasselAfterAlign -->
<g id="edge5" class="edge">
<title>CALL_RunBwaAlignment&#45;&gt;CALL_TasselAfterAlign</title>
<path fill="none" stroke="black" d="M216.18,-72.59C196.05,-62.8 170.3,-50.29 148.75,-39.81"/>
<polygon fill="black" stroke="black" points="150.01,-36.53 139.49,-35.31 146.95,-42.83 150.01,-36.53"/>
</g>
<!-- CALL_transposeSamples -->
<g id="node5" class="node">
<title>CALL_transposeSamples</title>
<ellipse fill="none" stroke="black" cx="137.94" cy="-306" rx="115.08" ry="18"/>
<text text-anchor="middle" x="137.94" y="-302.3" font-family="Times,serif" font-size="14.00">call transposeSamples</text>
</g>
<!-- CALL_transposeSamples&#45;&gt;CALL_BarcodeFaker -->
<g id="edge6" class="edge">
<title>CALL_transposeSamples&#45;&gt;CALL_BarcodeFaker</title>
<path fill="none" stroke="black" d="M137.94,-287.7C137.94,-279.98 137.94,-270.71 137.94,-262.11"/>
<polygon fill="black" stroke="black" points="141.44,-262.1 137.94,-252.1 134.44,-262.1 141.44,-262.1"/>
</g>
</g>
</svg>
